<svg width="1149" height="726" fill="none" xmlns="http://www.w3.org/2000/svg"><path d="M310.374 68.665c0 2.367-2.185 3.642-4.006 4.917-2.003 1.275-2.368 2.914-3.278 5.1-.911 2.732-5.463 4.371-7.285 6.921-2.367 3.096-4.006 6.557-6.92 9.289-1.457 1.457-2.914 2.368-3.824 4.371-1.093 1.822-5.281 4.007-7.102 5.646-4.371 3.825-9.288 6.193-14.205 9.107-3.096 1.821-4.735 4.918-8.377 5.828-3.46.911-6.374 2.732-9.652 4.007-1.639.547-2.55 2.004-4.007 2.732-.728.365-1.274.547-2.003.547-3.642.728-4.735 2.732-8.923 2.732-2.732 0-11.655-1.639-11.655-5.282 0-4.189 2.731-8.014 6.191-10.2 3.278-2.185 5.464-5.464 7.649-8.742 2.003-2.55 4.735-4.553 6.192-7.468 1.639-2.914 4.188-4.917 5.645-8.014 1.093-2.55 3.825-6.374 6.192-8.013 2.003-1.457 4.007-2.733 5.281-4.918 1.821-2.914 4.371-3.643 6.374-6.01 3.096-3.825 4.735-1.822 8.377-3.461 1.639-.729 3.46-1.64 5.464-1.64 3.096 0 5.827 1.276 8.923 1.276 4.189 0 8.377-.911 12.566-.911 3.278 0 6.374-.546 9.652-.546 1.639 0 2.731 1.275 2.731 2.732zm89.963 41.162c0 4.371-4.37 6.557-8.195 6.557-1.821 0-2.731-1.822-2.731-3.461 0-4.735 4.552-5.828 8.559-5.828 1.821 0 2.367 1.275 2.367 2.732zm-8.013-98.352c0 2.914-8.377 10.017-10.744 12.567-2.003 2.185-5.099 3.46-7.285 5.646-3.096 2.732-5.827 5.646-9.105 8.014-3.096 2.185-6.556 3.825-9.106 6.739l-1.639 1.457c-2.185 1.457-5.281 3.096-6.738 5.282-1.821 2.55-2.549 3.825-5.463 4.917-4.189 1.822-11.473 11.657-15.662 11.657-.728 0-.91-.546-.91-1.275 0-1.275 4.37-6.193 5.281-7.468 2.185-3.096 5.463-4.917 7.649-7.831 2.731-4.007 6.556-6.74 10.38-9.653 3.46-2.915 4.735-7.65 9.105-10.018 3.825-2.185 4.735-5.1 7.831-8.196 2.914-2.914 7.103-4.007 10.198-7.103 2.186-2.368 3.278-3.096 6.556-4.19 2.186-.728 4.553-2.913 6.739-2.913 1.456 0 2.913.728 2.913 2.368zm107.082 95.438c0-1.822-.547-3.461-1.093-5.1-.546-1.457-1.275-2.914-1.639-4.553-1.093-5.282-11.837-8.743-16.572-9.653-2.368-.547-4.735-1.64-7.285-1.64-1.821 0-3.46.183-5.281.183-.728 0-1.457-.183-2.185-.365-3.642-1.275-8.195-1.275-12.019-1.275-1.275 0-2.732-.728-4.007-.728-.91 0-2.367.546-2.367 1.639 0 1.457 8.195 2.55 9.469 3.096l3.278 1.275c.911.182 1.822.364 2.914.364 3.642 0 7.285.911 11.109 1.275 2.55.183 4.735 2.186 7.467 2.915 2.731.546 7.284 4.735 8.741 7.103 1.093 1.457 1.275 3.46 1.275 5.282 0 3.642-2.368 5.099-4.189 7.831-1.275 1.458-2.185 3.279-3.46 4.918-2.003 2.732-6.738 4.553-9.652 6.557-3.278 2.368-6.738 3.825-10.744 4.371-.911.182-1.639.364-2.55.729-3.278.91-6.556 1.639-9.834 1.639-.728 0-1.275-.182-1.821-.182-2.732 0-5.281 1.093-8.013 1.093-2.003 0-3.824-.911-5.645-.911-2.004 0-4.007.364-6.01.364-6.01 0-12.566-1.639-18.575-2.55-4.917-.91-13.477-1.821-13.477-8.378 0-2.003 4.189-3.096 5.828-6.192 1.457-3.279 6.92-6.557 6.92-9.471 0-7.468-4.006-7.104-9.834-8.014-.546-.182-.91-.182-1.457-.182-3.278 0-6.556 1.275-9.834 1.639-1.639.364-2.731 1.093-4.188 2.185-1.275.911-2.368 1.822-3.825 2.55-2.367 1.093-5.281 7.286-5.281 9.835 0 2.368.546 4.736.546 7.104 0 1.639-.364 2.55-2.003 3.278-4.553 1.639-9.47 3.461-14.387 3.461-2.913 0-5.645-1.093-8.377-1.457-4.552-.729-7.284-3.461-7.284-8.196 0-3.825 2.732-5.464 4.371-8.379 1.274-2.003 1.639-3.096 3.642-4.553 1.092-.729 4.553-4.735 4.553-6.01v-2.004c0-1.275-4.735-1.275-6.192-1.275h-1.093c-5.645 0-7.649 2.368-11.291 5.828-3.642 3.279-5.645 5.282-10.198 7.286-3.096 1.275-5.099 4.371-8.195 5.828-2.914 1.275-5.828 2.55-8.559 4.371-4.007 2.732-8.924 3.097-13.659 4.736-1.274.364-2.549.728-4.006.728-3.46 0-5.281-1.639-5.645-4.917 0-2.186 1.456-3.825 2.003-5.464.91-3.643 1.821-6.375 4.188-9.471 4.189-5.282 8.742-11.11 14.933-14.207 6.921-3.642 10.927-11.838 17.665-16.027 4.553-2.915 8.377-7.104 12.566-10.382 1.639-1.093 2.914-2.732 4.371-3.825 1.821-1.093 3.824-1.821 5.281-3.46 2.185-2.368 5.281-3.643 7.284-6.011 2.003-2.55 4.371-4.19 7.103-6.01 2.367-1.64 3.46-4.007 6.556-5.1 1.821-.729 2.549-2.186 4.006-3.279 2.367-1.82 4.371-4.007 6.374-6.01 2.367-2.003 4.735-3.825 7.102-5.646 2.55-2.186 4.007-5.1 6.738-6.74 4.553-2.549 8.742-8.56 8.742-13.841 0-5.282-3.278-4.007-7.103-4.736-.728 0-1.639-.182-2.367-.182-3.278 0-9.288 2.732-12.202 4.19-3.095 1.638-6.191 3.642-9.469 4.917-3.278 1.457-5.646 4.189-8.56 6.192-3.824 2.732-7.466 5.1-10.38 8.743-2.549 2.914-5.099 5.828-8.195 8.196-4.371 3.278-6.738 8.56-11.109 11.839-2.185 1.639-2.913 4.553-5.099 6.192-3.46 2.55-5.827 5.646-8.195 9.107-.91 1.457-1.821 2.185-3.46 2.185-7.831 0-15.661.729-23.31.729-2.368 0-4.735-.364-7.102-.364-2.55 0-4.371-1.64-6.192-1.64-4.917 0-8.377-3.824-10.745-3.824-2.185 0-4.006 1.457-6.192 1.457h-1.092c-2.003 0-4.917 3.278-8.924 3.642-3.642.365-6.191 1.093-10.198 1.093h-4.188c-3.278 0-6.556.729-9.834.729-.911 0-1.639-.182-2.55-.182-1.457 0-2.914.182-4.189.182-.728 0-1.456-.182-2.003-.182-1.457-.182-2.914-.547-4.37-.547-2.368 0-4.553.547-6.921.547-2.003 0-3.824-.365-5.645-.365-6.01 0-11.837 2.004-18.029 2.004h-3.278c-3.46 0-8.924 2.185-8.924 6.192 0 2.004 2.368 2.186 4.007 2.186 4.006 0 7.466-1.821 10.927-1.821a70.4 70.4 0 0 0 8.741-.547c1.821-.182 3.096-1.821 4.735-1.821 3.642 0 6.192-1.093 8.923-1.093 1.093 0 2.185.364 3.278.364 2.185 0 4.371-.728 6.556-.728 2.732 0 5.464-.364 8.195-.364.729 0 1.639.182 2.368.182 3.278 0 6.374-.911 9.652-.911.91 0 6.009.364 6.009 1.64 0 2.003-2.185 4.553-4.006 5.463-2.186.91-3.278 4.007-6.192 5.464-2.732 1.457-7.467 7.832-9.47 10.564-2.367 3.096-8.013 5.1-9.47 7.65-2.003 3.642-4.006 5.282-7.284 7.649-3.46 2.368-9.106 15.664-9.106 19.853 0 7.65 9.288 8.014 14.387 11.11 1.821 1.093 3.642 1.639 5.828 1.639 1.092 0 2.003-.364 3.096-.364 1.639 0 3.46.364 5.099.364 1.092 0 2.185-.728 3.278-.91 2.003-.547 3.824-.365 5.645-1.457 2.914-1.822 6.01-3.279 9.106-4.554 2.367-.91 3.824-2.914 6.192-3.825 2.549-.728 4.552-2.732 6.92-3.642 2.367-.911 3.824-2.914 6.009-3.825 2.004-.911 5.282-3.461 7.103-3.461 1.275 0 1.639 1.457 1.639 2.368 0 1.275-.547 2.55-.547 3.825 0 1.821 2.004 6.01 4.007 6.557 3.642.91 7.466 2.914 11.291 2.914 5.099 0 9.834-2.55 14.751-3.461 4.553-.728 9.652-2.367 13.294-5.099 1.457-.911 2.732-3.643 4.371-3.643 1.456 0 2.913-1.275 4.188-1.275 1.457 0 3.278.911 3.278 2.55 0 .546-.182.911-.182 1.275 0 .728.364 1.457.546 2.185 2.732 5.464 5.282 6.375 10.745 8.561.728.364 1.821.728 2.732.728h18.393c3.642 0 6.92-1.821 10.562-2.55 3.096-.546 6.192-2.185 9.288-2.185 4.371 0 7.284 3.825 11.473 3.825 2.914 0 5.281 2.003 8.013 2.003 3.46 0 6.374 2.186 9.652 2.186 3.642 0 7.102 1.093 10.562 1.093 1.457 0 2.914-.183 4.189-.183 5.281 0 10.38.911 15.479.911 1.639 0 2.914-.911 4.371-.911 1.457 0 2.914.365 4.37.365 8.195 0 16.208-2.914 24.039-5.1 3.278-.911 5.646-3.461 8.741-4.553 2.55-.911 4.735-2.186 6.739-3.825 2.549-1.822 3.096-5.1 5.099-7.468 2.549-3.096 4.917-5.464 4.917-10.017z" transform="rotate(-12.632 806.03 354.428)" fill="url(#paint0_radial)" fill-opacity=".2"/><path d="M587.155 191.97c0 .728-.546 2.003-.911 2.732-.546 1.639-6.92 6.921-8.559 9.471-2.003 3.096-5.281 4.735-7.284 7.649-2.186 3.825-4.371 6.193-7.831 8.743-2.914 2.367-4.371 6.01-7.649 8.196-1.639 1.092-5.099 6.192-6.192 6.192-.91 0-1.092-1.639-1.092-2.185 0-3.097 2.003-5.829 4.37-7.65 2.368-2.003 3.825-4.736 6.374-6.557 2.55-1.821 3.642-5.1 6.374-6.739 3.46-2.368 5.646-7.103 8.924-8.924 2.913-1.64 11.29-11.475 13.112-11.475.182 0 .364.364.364.547zm120.74-83.418c0-.728-.547-1.093-1.275-1.093-3.278 0-11.109 4.371-14.205 6.011-3.642 1.821-7.284 3.096-10.744 5.099-2.914 1.822-5.828 3.643-8.924 4.918-3.46 1.639-6.374 4.007-9.652 5.828-5.281 2.914-10.38 5.829-14.751 9.836-3.46 3.096-7.831 4.735-11.473 7.285-2.185 1.457-9.47 7.832-11.655 7.832-.364 0-.546-.182-.546-.547 0-2.185 2.914-6.01 4.37-7.467 1.639-2.004 2.55-4.736 4.553-6.557 2.368-2.186 4.007-4.918 6.192-7.285 5.463-6.193 8.195-14.207 14.022-20.217 2.368-2.186 3.825-5.1 6.01-7.65 1.457-1.821 5.646-6.557 5.646-8.742 0-.911-.911-1.822-1.821-1.822-4.007 0-14.205 7.468-19.122 8.925-3.824 1.275-7.102 2.732-10.563 4.735-3.278 2.186-13.84 5.464-17.664 5.464-1.639 0-2.186-1.639-2.186-3.096 0-1.275.364-2.003 1.639-2.732 4.917-3.278 10.563-5.464 15.48-8.924 4.37-3.279 8.923-6.193 14.022-8.197 3.46-1.457 6.738-3.096 10.198-4.917 2.732-1.64 8.013-1.64 11.473-1.64 4.918 0 7.103 4.736 7.103 8.561 0 2.368-1.457 4.19-1.457 6.557 0 .546.182 3.096 1.093 3.096 1.092 0 2.549-4.007 2.731-4.918.729-2.003.911-3.824.911-5.828 0-2.185-.182-4.189-.364-6.374-.547-4.554-.182-6.557-5.282-7.832-1.639-.365-3.278-.365-4.917-.365-10.198 0-26.588 4.736-35.329 9.836-9.834 5.828-20.214 10.2-30.595 14.57-12.93 5.647-17.3 6.375-24.221 19.671-.364.546-.546 1.093-.546 1.821 0 2.004 4.006 6.193 5.281 7.832 1.639 2.003 3.46 3.461 6.192 3.461 2.185 0 3.824-.911 5.463-2.368 2.914-2.732 6.556-3.279 10.199-4.918 6.92-3.096 13.476-6.739 20.942-9.107 2.55-.728 4.553-2.185 6.921-3.46 3.095-1.275 6.191-1.275 8.741-3.461 1.275-.91 7.831-4.189 9.288-4.189-.182 3.461-2.004 7.286-4.189 9.471-1.639 1.822-1.821 4.189-3.46 5.829-2.732 2.367-3.642 5.828-6.556 8.013-2.732 2.186-3.824 5.647-6.374 7.832-2.914 2.368-3.46 6.193-6.192 8.561-3.46 2.732-4.006 4.371-6.192 7.831-2.003 3.097-4.552 5.647-6.373 8.743-3.46 5.282-8.56 8.742-12.566 13.296-1.457 1.457-2.732 2.914-4.371 4.189-1.821 1.457-3.278 1.821-4.553 3.825-2.549 4.006-6.738 6.192-9.833 9.653-3.643 4.007-8.56 6.374-11.838 10.746-2.185 2.549-4.735 4.917-7.102 7.285-7.102 6.921-24.767 23.86-28.591 32.056-2.186 4.735-10.199 12.749-10.199 17.12a3.265 3.265 0 0 0 3.278 3.279c7.467 0 25.314-20.946 31.323-26.41 5.282-4.918 9.834-10.746 15.116-15.663 5.827-5.464 8.923-13.296 15.297-18.214 5.645-4.189 8.741-10.199 12.93-15.663 3.642-4.736 7.648-9.107 11.291-13.843 2.003-2.732 4.552-5.282 6.92-7.649 2.549-2.914 6.01-5.1 9.288-7.286 3.278-2.185 6.191-4.371 9.105-6.921 1.821-1.639 4.189-2.55 6.01-4.189 3.096-2.914 7.466-4.007 10.927-6.739 2.367-2.003 5.099-3.642 7.466-5.646 2.368-2.003 5.281-2.732 7.649-4.553 4.917-4.007 11.109-6.557 16.572-9.836 2.55-1.457 5.099-2.549 7.649-3.642 2.731-1.093 5.099-2.914 7.83-4.007 2.368-1.093 5.1-2.004 7.285-3.461.728-.364 1.275-.728 1.275-1.639z" transform="rotate(-12.632 806.03 354.428)" fill="url(#paint1_radial)" fill-opacity=".2"/><path d="M750.038 105.456c0 3.278-3.825 5.646-6.374 7.103-3.825 2.186-7.103 4.918-10.198 8.014-2.55 2.55-12.02 5.646-15.48 5.646-2.367 0-6.92-2.55-6.92-5.1 0-.91.546-1.457 1.093-2.003 2.185-2.004 2.549-2.186 4.006-4.918 1.821-3.46 3.642-5.1 6.92-7.285 3.46-2.368 17.483-11.292 20.943-11.292 1.275 0 1.639.546 2.003 1.639.729 2.185 4.007 6.739 4.007 8.196zm10.38-13.114c0 1.093-1.093 4.736-2.367 4.736-1.093 0-1.639-2.368-1.639-3.279 0-1.457.91-3.278 2.731-3.278.911 0 1.275 1.093 1.275 1.821zm38.061 16.028c0-.729-1.092-1.093-1.639-1.093-2.549 0-14.751 6.557-20.214 6.557-.364 0-.911 0-1.457-.182-4.189-1.093-5.463 0-8.559-3.643-1.093-1.275-2.003-2.732-2.914-3.825-.364-.364-.728-.728-.728-1.275 0-.91 6.009-12.385 6.009-17.849 0-6.192-2.185-7.65-8.013-7.65-2.731 0-4.917.365-7.284 1.64-1.639.91-3.642 1.093-5.281 2.003-2.914 1.64-2.186 6.01-4.371 7.286-1.639.91-12.748 2.185-16.026 3.096-5.463 1.64-12.019 4.371-16.39 7.832-3.642 3.096-11.109 7.467-13.476 11.292-2.003 3.461-4.917 5.1-4.917 9.653 0 .729 0 1.457.182 2.186.364 1.457 5.828 5.282 7.284 6.739 2.914 2.732 7.649 2.914 11.474 2.914h3.642c8.741 0 24.403-10.018 30.777-16.028 2.003-2.003 4.552-3.278 6.556-5.282.546-.546 1.092-1.275 2.003-1.275 3.096 0 4.37 2.55 6.738 4.007 2.185 1.275 7.648 2.914 10.198 2.914 1.639 0 3.46-.364 5.099-.546 3.096-.364 21.307-6.921 21.307-9.471z" transform="rotate(-12.632 806.03 354.428)" fill="url(#paint2_radial)" fill-opacity=".2"/><path d="M900.826 28.96c0 4.006-8.377 8.56-10.745 12.202-2.185 3.279-5.645 5.1-8.013 8.014-4.37 5.646-10.562 9.835-15.843 14.753-5.1 4.736-11.291 8.56-16.573 13.296-3.278 2.914-16.936 13.842-20.396 13.842-.182 0-.546-.182-.546-.546 0-3.097 8.195-9.653 10.198-12.385 2.185-2.914 4.188-5.829 6.738-8.196 5.646-4.736 10.016-10.564 15.479-15.3 4.917-4.37 23.129-20.763 27.863-22.402 3.461-1.275 5.828-4.371 9.288-5.464.729-.182 1.275-.547 2.003-.91.547.728.547 2.185.547 3.095zm11.473-8.925c0-5.282-3.46-5.646-8.013-5.646-6.738 0-17.847 5.828-23.857 9.288-10.198 6.193-18.393 15.118-27.499 22.767-9.287 7.65-17.118 16.757-25.131 25.863-4.006 4.554-11.109 9.653-13.84 14.935-2.004 4.007-6.192 5.464-8.377 9.107-2.004 3.278-4.371 6.01-6.921 8.56-1.274 1.457-3.824 3.097-4.735 4.554-.546.91-2.549 8.924-2.549 9.835 0 1.639.546 3.096.546 4.735 0 3.825 3.46 4.554 6.192 6.193 4.189 2.55 7.649 3.096 12.566 3.096 5.281 0 16.39-3.096 21.489-4.917 2.731-.911 5.281-2.368 8.195-3.279 2.549-.91 4.735-2.185 7.284-3.096 4.553-1.639 8.559-4.007 12.93-6.01 3.824-1.458 8.195-2.732 11.473-5.282.729-.547 1.639-1.275 1.639-2.368 0-.546-.182-.729-.728-.729-2.55 0-15.662 6.557-19.668 7.832-2.732.911-5.282 2.368-8.013 3.461-9.834 4.371-17.301 5.464-27.499 7.831-2.185.547-4.553.911-6.92.911-2.55 0-6.556-.546-6.556-4.007 0-3.46 4.188-8.742 6.556-10.928 2.914-2.732 4.553-6.375 7.284-9.107 4.189-4.37 9.834-7.831 15.115-10.746 6.556-3.824 12.93-7.831 18.94-12.385 5.281-3.825 10.38-7.831 15.115-12.385 5.828-5.828 12.202-11.11 18.211-16.756 5.646-5.282 10.381-11.11 16.026-16.21 3.278-3.096 5.099-7.468 8.377-10.2 1.639-1.457 2.368-2.55 2.368-4.917z" transform="rotate(-12.632 806.03 354.428)" fill="url(#paint3_radial)" fill-opacity=".2"/><path d="M928.696 99.445c0 1.822-9.652 6.375-11.473 6.921-3.642 1.093-4.735 4.007-8.013 5.282-5.463 2.004-22.036 8.379-26.952 8.379-.911 0-2.55-.365-2.55-1.64 0-.728.546-1.093 1.093-1.639 1.639-1.821.182-2.368 2.913-3.825 2.914-1.639 5.282-4.007 8.377-5.282 3.643-1.275 5.828-4.553 9.288-5.646 5.281-1.457 10.198-4.917 15.662-4.917h.728c2.186 0 4.917 0 6.92.728.547.182 4.007 1.275 4.007 1.64zm80.314-55.915c0-2.368-2.92-2.55-4.56-2.55-1.45 0-2.91.182-4.18.182-3.465.365-7.471 4.19-10.567 5.829-9.834 5.1-36.604 29.688-44.617 38.794-1.821 2.004-4.917 6.193-7.649 6.74-1.639.181-3.278.181-4.917.181-2.549 0-5.099-.546-7.649-.546-6.191 0-12.565.728-18.939 1.457-8.377.91-16.026 4.918-23.674 7.832-3.643 1.457-6.557 4.007-10.199 5.464-3.096 1.457-1.821 4.007-6.192 5.282-4.917 1.639-10.562 10.746-10.562 15.663 0 4.918 6.738 7.286 10.927 7.286 5.827 0 10.198-5.464 15.843-6.193 5.646-.911 25.132-10.382 30.959-13.478 1.639-.911 5.464-3.643 7.103-3.643 1.457 0 2.367 6.557 2.913 8.014 2.368 5.829 6.192 5.1 11.109 7.832 3.096 1.639 7.285 2.732 10.927 2.732 1.092 0 9.834-1.457 10.927-1.821 4.188-1.639 8.559-2.55 12.747-4.007 3.46-1.457 6.556-3.643 10.198-4.736 3.461-.91 6.557-2.732 9.835-4.007 2.913-1.092 5.281-2.914 8.012-4.007 1.093-.546 4.555-1.639 4.555-3.096 0-.91-1.09-1.275-1.823-1.275-1.275 0-2.549.547-3.46 1.275-2.55 1.457-5.099 2.004-7.649 3.096-2.367.729-4.553 1.822-6.738 2.915-5.281 2.732-11.109 4.007-16.572 6.192-6.01 2.55-13.112 3.825-19.668 3.825-3.278 0-7.102 0-7.102-4.371 0-2.914 1.639-6.739 3.824-8.561 2.914-2.367 4.735-5.281 7.649-7.467 3.096-2.186 4.006-6.193 6.192-7.65 4.734-2.914 8.195-6.739 12.201-10.563 3.278-2.915 9.47-6.74 11.837-10.2 2.55-3.643 4.553-6.375 8.377-8.742 2.732-2.004 13.842-12.568 15.662-15.3.91-1.457 1.46-3.096 2.73-4.37 1.09-1.094 2.19-2.369 2.19-4.008z" transform="rotate(-12.632 806.03 354.428)" fill="url(#paint4_radial)" fill-opacity=".2"/><path d="M110.906 262.104c0-.728-.911-.728-1.275-.728-1.821 0-3.278.728-4.735 1.457-2.367 1.092-4.917 2.003-7.284 2.914-2.186.728-4.007 1.821-6.01 2.55-2.55.91-5.281 1.639-7.649 2.914-2.367 1.093-4.917 2.185-7.284 2.914-3.278.911-7.285 1.457-10.198 3.096-2.732 1.639-6.556 1.639-9.652 1.639-1.64 0-4.371-.728-4.371-2.732 0-.728.546-1.092.91-1.639 2.55-2.732 2.732-6.739 4.007-10.017.91-2.004.91-4.007.91-6.193 0-.91-.181-2.185-.181-3.46 0-2.55.182-5.1 1.274-6.921 2.003-3.825 4.917-3.825 7.831-6.375 2.914-2.732 8.013-5.464 11.837-6.739 1.093-.364 2.004-.729 2.004-2.004 0-1.821-1.64-4.371-3.643-4.371-6.738 0-23.128 6.011-27.863 10.746-.91 1.093-1.639 2.368-2.731 3.461-3.46 2.914-11.473 5.828-15.662 7.649-1.821.911-3.824 1.64-5.281 2.915-1.093.91-1.821 1.274-3.096 1.821l-4.37 2.003c-2.004.911-17.666 9.107-18.03 9.653-.182.365-.364.547-.364.911 0 .729 1.093 1.093 1.821 1.093 3.096 0 25.86-12.749 31.687-14.935 1.822-.729 3.825-1.275 5.828-2.186 1.093-.546 2.55-1.275 4.007-1.275.91 0 1.274.547 1.274 1.457 0 4.007-.364 8.014-1.274 12.021-.547 3.097-2.55 5.646-3.279 8.925-.728 3.643-7.284 5.282-10.562 5.282-3.096 0-6.01-1.275-9.105-1.275-2.732 0-3.278 3.825-4.918 5.282-1.274 1.275-2.003 2.367-2.003 4.371 0 2.914 3.096 8.196 6.374 8.196 1.457 0 2.914-1.093 4.553-1.275 6.01-1.093 16.754-8.014 20.396-8.014 4.189 0 8.377-1.275 12.748-1.275 10.563 0 25.132-7.103 34.42-11.839 2.367-1.274 4.916-2.549 7.648-3.278 3.278-.911 6.92-3.096 10.016-4.918.546-.364 1.275-.91 1.275-1.821z" transform="rotate(-12.632 806.03 354.428)" fill="url(#paint5_radial)" fill-opacity=".2"/><path d="M295.824 218.938c0-1.821-3.096-2.914-4.735-2.914-1.457 0-3.096.547-4.553.911-2.549.546-5.099.546-7.831.546h-4.006c-2.003 0-4.006 0-6.192-.546-1.092-.182-2.185-.365-3.278-.365-8.013 0-15.843 1.64-23.674 1.64-3.825 0-7.467-1.093-11.109-1.093-5.099 0-10.016.728-15.115.728-5.281 0-10.563-.546-15.844-.546-1.821 0-7.649-1.093-7.649-3.46 0-2.733 7.285-5.647 7.285-9.107 0-3.461-7.285-5.646-10.016-5.646-1.275 0-2.003.182-2.914.91-3.46 2.368-7.467 2.914-11.109 4.918-3.46 1.639-6.009 5.282-8.741 7.832-3.824 3.642-8.741 3.642-13.658 3.642-2.004 0-4.007-.364-5.828-.364-1.275 0-2.367.364-3.46.364-2.368.182-4.735.365-7.102.365-4.371 0-8.742-.547-13.295-.547-6.009 0-12.019 1.275-18.029 1.275-1.639 0-3.095-.182-4.552-.182-2.368 0-4.735.364-6.92.364-2.368 0-4.553-.546-6.739-.546-1.092 0-3.642 0-3.642 1.639 0 2.186 15.662 2.914 18.575 2.914 3.278 0 6.374-.728 9.47-.728 1.093 0 2.186.182 3.278.182 2.914 0 5.646-.547 8.559-.547 2.368 0 4.735.547 7.103.547 3.642 0 7.102-.364 10.744-.911 1.275-.364 2.55-.364 3.825-.364 2.731 0 8.559.364 8.559 4.189 0 1.821-1.093 3.278-2.368 4.371-6.556 6.557-15.297 16.757-22.946 21.492-3.278 2.004-6.009 4.553-9.651 6.011-3.643 1.457-6.556 4.006-10.381 5.464-2.549.91-4.917 2.185-7.466 3.096-1.457.546-8.377 2.914-8.377 4.553 0 .729 1.638 1.093 2.185 1.093 3.824 0 17.118-7.832 19.486-7.832.546 0 .546.364.546.729 0 2.185-8.013 8.742-8.013 15.663 0 1.275.364 2.732.911 4.007 2.367 6.011 5.281 4.736 10.562 6.193 3.642.91 7.467 1.093 11.291 1.093 2.55 0 7.467 0 9.652-1.275 3.278-1.822 9.834-1.093 14.387-3.279 6.009-2.732 12.565-2.914 18.393-5.646 4.735-2.186 9.834-3.46 14.569-5.646 3.096-1.457 23.674-9.653 23.674-12.021 0-.911-.91-1.275-1.639-1.275-1.274 0-15.661 6.375-17.482 7.468-4.007 2.367-8.377 3.278-12.566 5.099-6.374 2.732-12.93 3.825-19.486 5.829-8.195 2.367-16.39 4.371-24.949 4.371-3.46 0-9.47-.364-9.47-4.918 0-2.367 1.457-6.739 3.46-8.014 2.914-2.185 5.099-4.735 7.103-7.649 3.824-5.1 8.559-9.107 13.112-13.478 4.37-4.189 5.645-8.196 11.29-11.293 3.825-2.003 6.739-5.099 10.381-7.467 3.46-2.186 6.192-5.828 10.016-7.65.91-.364 2.003-.546 3.096-.546h2.549c1.093 0 2.186-.182 3.643-.546.91-.365 1.821-.365 2.731-.365 4.007 0 7.649 1.275 11.655 1.275 5.646 0 11.291-1.093 17.119-1.093 3.642 0 7.284.911 11.109.911 5.645 0 11.29-1.275 17.118-1.275 4.917 0 9.834.364 14.933.364 6.738 0 13.476-1.457 20.397-1.457 2.185 0 4.37.182 6.556.182 1.274 0 5.463 0 5.463-1.639z" transform="rotate(-12.632 806.03 354.428)" fill="url(#paint6_radial)" fill-opacity=".2"/><path d="M271.229 244.255c0 3.46-4.735 6.921-7.831 7.832-3.278.91-5.281 2.914-7.648 5.099-4.007 3.461-8.195 5.829-13.112 7.832-4.917 2.186-10.017 4.007-14.934 6.375-1.821.911-3.642 1.275-5.645 1.275-1.275 0-4.553-1.093-4.553-2.732 0-.547.546-1.093.911-1.457 2.003-2.186 2.549-5.1 4.917-6.921 3.642-2.732 7.284-6.193 11.473-8.014 4.917-2.004 8.377-6.375 13.294-8.196 3.824-1.457 8.559-5.829 12.383-5.829 2.368 0 4.553.547 6.921.547 2.185 0 3.824 2.003 3.824 4.189zm46.803 18.031c0-.728-.911-1.093-1.639-1.093-2.55 0-8.56 3.097-11.109 4.372-4.735 2.185-9.652 3.824-14.569 5.828-4.371 1.821-8.377 4.189-12.93 5.1-5.646 1.092-8.195 2.732-14.569 2.732-2.732 0-5.463-2.186-5.463-5.1 0-1.457 1.092-2.55 1.639-3.825.91-2.368 1.275-2.368 3.642-3.643 3.642-2.185 6.192-6.01 9.288-8.742 1.457-1.275 2.003-2.732 2.003-4.553 0-2.186-.546-1.64-1.457-2.915 0-1.639 3.46-3.642 3.46-8.56 0-6.375-3.278-7.103-8.741-7.103-5.099 0-10.016.182-15.115.911-4.553.546-8.742 3.096-13.112 4.371-7.467 2.003-14.387 7.467-21.125 11.11-5.1 2.732-9.47 6.375-14.205 9.471-2.914 2.003-4.917 4.553-7.467 6.739-1.821 1.639-4.006 3.461-4.006 6.01 0 1.457.728 3.097 1.275 4.372 1.821 3.278 4.188 2.914 6.92 4.553 2.367 1.093 2.914 2.368 5.827 2.368 3.825 0 10.017-1.457 13.659-2.732 4.735-1.639 9.834-1.275 14.205-4.007 3.095-1.822 6.373-1.457 9.469-2.914.365-.183.729-.365 1.093-.365.546 0 1.275.729 1.275 1.457 0 .547-.182 1.275-.182 1.822 0 1.457 1.274 2.55 2.367 3.46 2.732 2.186 4.735 4.554 8.559 4.554 6.738 0 12.93-3.461 19.486-5.1 5.281-1.275 10.381-3.825 15.48-5.646 3.824-1.457 7.102-3.643 11.108-4.918 2.55-.911 4.917-2.185 7.467-3.278 1.457-.729 7.467-3.097 7.467-4.736z" transform="rotate(-12.632 806.03 354.428)" fill="url(#paint7_radial)" fill-opacity=".2"/><path d="M460.388 262.104c0-.546-.728-.546-1.092-.546-2.55 0-16.208 6.739-20.032 8.196-3.096 1.093-5.646 3.096-8.924 3.825-3.824.91-7.102 3.096-10.745 3.824-4.552.911-8.559 2.915-13.294 2.915-1.639 0-4.006 0-4.006-2.004 0-1.457 1.275-2.914 1.821-4.189 1.275-2.368 4.006-4.007 5.828-5.828 3.095-2.914 3.095-5.282 7.102-7.65 2.185-1.457 7.831-7.285 7.831-9.835 0-3.461-8.924-6.193-11.473-6.193-4.189 0-8.195 3.461-12.02 4.554-4.188 1.092-7.466 4.735-11.473 5.646-3.46.728-7.648 3.46-10.562 5.282-6.738 4.189-14.933 4.371-21.489 8.378-2.914 1.821-6.01 2.914-9.288 3.825-1.821.546-5.827 2.914-7.284 2.914-.547 0-1.093-.365-1.093-.911 0-1.639 2.55-3.278 3.642-4.189 2.732-2.003 3.825-4.553 5.646-7.285 3.096-4.736 13.294-9.471 13.294-15.3 0-7.285-7.649-6.192-12.748-7.103-.182-.182-.546-.182-.728-.182-2.55 0-4.735 3.096-6.192 3.096-2.003 0-4.007 3.279-6.556 3.825-3.278.911-5.099 3.825-8.013 5.282-4.735 2.55-8.924 5.464-13.476 8.014-1.821.911-11.655 5.464-11.655 6.921 0 .911 1.456 1.275 2.185 1.275 2.185 0 13.658-6.193 16.026-7.832 2.185-1.639 5.099-2.003 7.466-3.643 1.821-1.274 3.46-2.367 5.646-3.096 2.731-.728 4.917-3.096 7.83-3.096.183 1.821-8.559 10.382-10.198 11.839-1.639 1.457-2.367 2.914-3.46 4.735-2.549 4.007-8.559 6.739-8.559 11.839 0 4.007 1.639 6.921 5.827 6.921 8.013 0 15.844-6.01 22.764-9.107 3.825-1.821 7.649-3.278 11.291-5.1 2.732-1.457 5.646-2.003 8.559-2.914 4.735-1.275 8.924-4.189 13.659-5.464 4.37-.91 20.214-8.924 21.489-8.924.546 0 .546.364.546.728 0 1.639-7.102 7.286-8.377 9.836l-.91 1.274c-2.914 3.279-6.739 5.829-6.739 10.564 0 2.368 1.457 6.921 4.007 7.832 2.367.911 4.917.546 7.466.911.365.182.729.182 1.275.182 2.732 0 12.93-2.368 15.48-3.279 2.185-.91 4.188-2.185 6.374-2.914 3.096-.91 5.827-2.368 8.923-3.278 4.007-1.093 7.467-3.096 11.109-4.736 4.735-2.003 9.47-4.189 14.022-6.556 1.093-.547 3.278-1.822 3.278-3.279z" transform="rotate(-12.632 806.03 354.428)" fill="url(#paint8_radial)" fill-opacity=".2"/><path d="M516.278 253.362c0 1.821-9.652 6.374-11.473 6.921-3.642 1.093-4.735 4.007-8.013 5.282-5.463 2.003-22.035 8.378-26.952 8.378-.911 0-2.55-.364-2.55-1.639 0-.729.546-1.093 1.093-1.64 1.639-1.821.182-2.367 2.914-3.824 2.913-1.64 5.281-4.007 8.377-5.282 3.642-1.275 5.827-4.554 9.287-5.646 5.282-1.458 10.199-4.918 15.662-4.918h.728c2.186 0 4.917 0 6.921.728.546.183 4.006 1.275 4.006 1.64zm80.311-55.916c0-2.367-2.914-2.549-4.553-2.549-1.457 0-2.914.182-4.188.182-3.46.364-7.467 4.189-10.563 5.828-9.834 5.1-36.604 29.688-44.617 38.795-1.821 2.003-4.917 6.192-7.649 6.739-1.639.182-3.278.182-4.917.182-2.549 0-5.099-.547-7.648-.547-6.192 0-12.566.729-18.94 1.457-8.377.911-16.026 4.918-23.674 7.832-3.643 1.457-6.556 4.007-10.199 5.464-3.095 1.457-1.821 4.007-6.191 5.282-4.917 1.639-10.563 10.746-10.563 15.664 0 4.917 6.738 7.285 10.927 7.285 5.827 0 10.198-5.464 15.844-6.193 5.645-.91 25.131-10.381 30.958-13.478 1.639-.91 5.464-3.642 7.103-3.642 1.457 0 2.367 6.557 2.914 8.014 2.367 5.828 6.191 5.099 11.108 7.831 3.096 1.64 7.285 2.732 10.927 2.732 1.093 0 9.834-1.457 10.927-1.821 4.188-1.639 8.559-2.55 12.748-4.007 3.46-1.457 6.555-3.643 10.198-4.735 3.46-.911 6.556-2.732 9.834-4.007 2.914-1.093 5.281-2.914 8.013-4.007 1.092-.547 4.552-1.639 4.552-3.097 0-.91-1.092-1.274-1.821-1.274-1.275 0-2.549.546-3.46 1.274-2.549 1.458-5.099 2.004-7.649 3.097-2.367.728-4.552 1.821-6.738 2.914-5.281 2.732-11.108 4.007-16.572 6.192-6.009 2.55-13.112 3.825-19.668 3.825-3.278 0-7.102 0-7.102-4.371 0-2.914 1.639-6.739 3.824-8.56 2.914-2.368 4.735-5.282 7.649-7.468 3.096-2.185 4.006-6.192 6.192-7.649 4.735-2.915 8.195-6.739 12.201-10.564 3.278-2.914 9.47-6.739 11.837-10.2 2.55-3.642 4.553-6.374 8.377-8.742 2.732-2.004 13.841-12.567 15.662-15.299.911-1.458 1.457-3.097 2.732-4.372 1.092-1.092 2.185-2.367 2.185-4.007z" transform="rotate(-12.632 806.03 354.428)" fill="url(#paint9_radial)" fill-opacity=".2"/><path d="M652.346 244.255c0 3.46-4.735 6.921-7.83 7.832-3.278.91-5.282 2.914-7.649 5.099-4.007 3.461-8.195 5.829-13.112 7.832-4.917 2.186-10.016 4.007-14.933 6.375-1.821.911-3.642 1.275-5.646 1.275-1.274 0-4.552-1.093-4.552-2.732 0-.547.546-1.093.91-1.457 2.003-2.186 2.55-5.1 4.917-6.921 3.642-2.732 7.285-6.193 11.473-8.014 4.917-2.004 8.377-6.375 13.294-8.196 3.825-1.457 8.56-5.829 12.384-5.829 2.367 0 4.553.547 6.92.547 2.185 0 3.824 2.003 3.824 4.189zm46.803 18.031c0-.728-.911-1.093-1.639-1.093-2.55 0-8.559 3.097-11.109 4.372-4.735 2.185-9.652 3.824-14.569 5.828-4.37 1.821-8.377 4.189-12.93 5.1-5.645 1.092-8.195 2.732-14.569 2.732-2.731 0-5.463-2.186-5.463-5.1 0-1.457 1.093-2.55 1.639-3.825.911-2.368 1.275-2.368 3.642-3.643 3.643-2.185 6.192-6.01 9.288-8.742 1.457-1.275 2.003-2.732 2.003-4.553 0-2.186-.546-1.64-1.457-2.915 0-1.639 3.461-3.642 3.461-8.56 0-6.375-3.279-7.103-8.742-7.103-5.099 0-10.016.182-15.115.911-4.553.546-8.741 3.096-13.112 4.371-7.467 2.003-14.387 7.467-21.125 11.11-5.099 2.732-9.47 6.375-14.205 9.471-2.913 2.003-4.917 4.553-7.466 6.739-1.821 1.639-4.007 3.461-4.007 6.01 0 1.457.729 3.097 1.275 4.372 1.821 3.278 4.189 2.914 6.92 4.553 2.368 1.093 2.914 2.368 5.828 2.368 3.824 0 10.016-1.457 13.658-2.732 4.735-1.639 9.834-1.275 14.205-4.007 3.096-1.822 6.374-1.457 9.47-2.914.364-.183.728-.365 1.092-.365.547 0 1.275.729 1.275 1.457 0 .547-.182 1.275-.182 1.822 0 1.457 1.275 2.55 2.367 3.46 2.732 2.186 4.735 4.554 8.56 4.554 6.738 0 12.93-3.461 19.486-5.1 5.281-1.275 10.38-3.825 15.479-5.646 3.824-1.457 7.102-3.643 11.109-4.918 2.549-.911 4.917-2.185 7.466-3.278 1.457-.729 7.467-3.097 7.467-4.736z" transform="rotate(-12.632 806.03 354.428)" fill="url(#paint10_radial)" fill-opacity=".2"/><path d="M789.604 262.468c0-.728-.91-1.092-1.457-1.092-1.457 0-8.377 3.46-10.198 4.371-2.55 1.093-4.917 2.185-7.467 2.914-5.645 2.003-10.926 5.282-16.39 7.65l-3.277.91-3.461 1.457c-5.645 2.55-17.3 5.464-23.31 5.464-1.093 0-4.188 0-4.188-1.639 0-.546.91-1.093 1.274-1.457 2.004-2.003 4.189-3.643 5.646-6.01 1.092-1.457 2.367-2.732 3.642-3.825 5.099-4.736 12.202-10.382 12.202-17.849 0-4.554-3.279-7.468-7.467-8.561-1.093-.182-6.01-2.003-6.738-2.55-.547-.364-.729-1.274-.729-1.821 0-3.46 5.646-3.643 5.646-8.56 0-2.368-1.639-5.1-4.371-5.1-3.096 0-6.192 1.639-9.47 2.186-3.46.546-5.463 2.732-5.463 6.374 0 1.822.728 3.279.728 5.1 0 3.096-3.095 7.65-5.645 9.471-2.732 1.639-4.371 4.371-6.92 6.011-2.914 1.821-5.828 3.46-8.742 5.464-1.639 1.092-10.016 4.553-10.016 6.01 0 .911.911 1.275 1.639 1.275 2.186 0 11.473-4.553 13.659-6.011 1.821-1.274 3.824-2.549 5.827-3.278 4.371-1.457 10.563-5.828 14.569-8.56 1.639-1.093 3.278-2.186 5.281-2.186 2.368 0 8.013 1.639 8.013 4.554 0 .91-.182 1.639-.182 2.549 0 1.093-.91 2.004-1.639 2.55-.728.729-1.457 1.275-2.185 1.822-1.639 1.639-2.914 3.642-4.917 5.099-3.096 2.368-5.828 3.461-8.195 6.739-3.278 4.372-11.109 6.921-11.109 13.296 0 5.282 6.01 7.832 10.562 7.832 1.275 0 2.368 0 3.643-.546 2.367-.911 5.463-.911 8.195-1.275 8.195-.911 14.751-6.193 22.581-8.743 3.461-1.093 6.374-2.914 9.652-4.735 4.007-2.368 8.924-3.097 12.93-5.647 3.642-2.185 7.467-3.46 11.291-5.099 1.457-.547 6.556-2.914 6.556-4.554z" transform="rotate(-12.632 806.03 354.428)" fill="url(#paint11_radial)" fill-opacity=".2"/><path d="M843.865 253.362c0 1.821-9.652 6.374-11.473 6.921-3.642 1.093-4.735 4.007-8.013 5.282-5.463 2.003-22.036 8.378-26.953 8.378-.91 0-2.549-.364-2.549-1.639 0-.729.546-1.093 1.093-1.64 1.639-1.821.182-2.367 2.913-3.824 2.914-1.64 5.281-4.007 8.377-5.282 3.643-1.275 5.828-4.554 9.288-5.646 5.281-1.458 10.198-4.918 15.662-4.918h.728c2.185 0 4.917 0 6.92.728.547.183 4.007 1.275 4.007 1.64zm80.311-55.916c0-2.367-2.914-2.549-4.553-2.549-1.457 0-2.914.182-4.189.182-3.46.364-7.466 4.189-10.562 5.828-9.834 5.1-36.604 29.688-44.617 38.795-1.821 2.003-4.917 6.192-7.649 6.739-1.639.182-3.278.182-4.917.182-2.55 0-5.099-.547-7.649-.547-6.191 0-12.565.729-18.939 1.457-8.377.911-16.026 4.918-23.675 7.832-3.642 1.457-6.556 4.007-10.198 5.464-3.096 1.457-1.821 4.007-6.192 5.282-4.917 1.639-10.562 10.746-10.562 15.664 0 4.917 6.738 7.285 10.927 7.285 5.827 0 10.198-5.464 15.843-6.193 5.646-.91 25.132-10.381 30.959-13.478 1.639-.91 5.464-3.642 7.103-3.642 1.456 0 2.367 6.557 2.913 8.014 2.368 5.828 6.192 5.099 11.109 7.831 3.096 1.64 7.285 2.732 10.927 2.732 1.092 0 9.834-1.457 10.926-1.821 4.189-1.639 8.56-2.55 12.748-4.007 3.46-1.457 6.556-3.643 10.198-4.735 3.461-.911 6.556-2.732 9.834-4.007 2.914-1.093 5.282-2.914 8.013-4.007 1.093-.547 4.553-1.639 4.553-3.097 0-.91-1.093-1.274-1.821-1.274-1.275 0-2.55.546-3.46 1.274-2.55 1.458-5.099 2.004-7.649 3.097-2.367.728-4.553 1.821-6.738 2.914-5.281 2.732-11.109 4.007-16.572 6.192-6.01 2.55-13.112 3.825-19.668 3.825-3.278 0-7.102 0-7.102-4.371 0-2.914 1.639-6.739 3.824-8.56 2.914-2.368 4.735-5.282 7.649-7.468 3.096-2.185 4.006-6.192 6.191-7.649 4.735-2.915 8.195-6.739 12.202-10.564 3.278-2.914 9.47-6.739 11.837-10.2 2.55-3.642 4.553-6.374 8.377-8.742 2.732-2.004 13.841-12.567 15.662-15.299.91-1.458 1.457-3.097 2.731-4.372 1.093-1.092 2.186-2.367 2.186-4.007z" transform="rotate(-12.632 806.03 354.428)" fill="url(#paint12_radial)" fill-opacity=".2"/><path d="M1179.07 255.729c0-1.639-4.56-7.103-6.2-7.103-2.18 0-2.73 2.368-2.73 4.554 0 1.457.18 3.096.18 4.006 0 3.097-2.36 9.289-4.18 11.839-2.37 2.914-5.83 4.918-8.93 7.103-2 1.64-4.73 2.004-7.1 3.279-.91.546-1.64.728-2.73.728-2.92 0-10.2-.182-10.2-4.371 0-1.639.55-4.007 2.19-4.918 2-1.092 1.45-3.096 4.18-4.553 3.1-1.821 4.92-6.01 7.29-8.742 1.46-1.64 2.37-3.279 2.37-5.646 0-2.55-1.46-4.736-4.37-4.736-2.37 0-6.2 1.639-8.93 2.004-3.64.546-6.74 5.828-10.01 6.556-2.74.729-3.83 2.915-6.2 3.461-4 1.093-7.64 4.735-11.65 6.375-4.19 1.639-7.29 4.917-11.29 6.739-3.28 1.457-6.74 2.367-9.65 4.371-1.46 1.093-3.65 2.185-5.47 2.185-1.45 0-4.91 3.097-7.46 3.097-1.82 0-3.46-1.639-3.46-3.461 0-.728 1.09-4.553 1.64-4.917 2.18-1.64 3.64-3.643 5.64-5.464 1.64-1.64 1.82-4.372 3.64-5.829 2.01-1.457 4.01-4.189 4.01-6.739 0-2.185-5.83-4.371-7.65-4.371-3.28 0-6.56 2.914-8.38 2.914-2.18 0-6.01 4.918-8.56 4.918-3.64 0-4.73 3.278-7.83 3.278-3.09 0-18.21 9.653-24.4 11.11-6.01 1.275-5.83 4.736-13.66 4.736-2 0-6.55-.729-6.55-3.279 0-2.003 3.64-6.01 5.1-7.649 1.45-2.004 3.82-3.096 5.28-5.282 1.27-2.368 2.18-3.278 4.37-4.918 2.18-1.457 2.36-4.553 4.91-6.374 2.37-1.64 4.74-4.189 4.74-7.286 0-3.096-1.46-4.553-4.37-4.553-2 0-4.19.728-6.19.911-4.19.728-17.85 16.938-23.68 20.581-2.37 1.457-7.828 9.653-10.196 12.203-1.639 2.003-2.914 4.189-2.914 6.557 0 1.092.365 3.278 1.639 3.278 2.914 0 5.464 7.832 13.841 7.832 4.73 0 10.02-.182 13.48-4.007 1.45-1.639 3.82-.729 5.46-2.186 1.27-.728 2-.91 3.1-.91h2.18c1.64-.365 1.46-2.915 5.1-4.19 4.01-1.274 7.65-3.46 11.84-4.735 2.73-.729 4.19-3.461 7.1-4.189 2.55-.729 10.74-4.918 12.02-4.918.91 0 2.55.547 2.55 1.639 0 .729-4.55 6.011-4.55 12.021 0 6.739 3.46 9.289 9.83 9.289s11.11-1.093 16.57-4.553c1.28-.729 2.55-1.457 4.01-2.004 3.64-1.275 6.19-4.371 10.01-5.099 3.65-.911 6.2-3.461 9.66-4.736 2.36-.911 3.27-3.46 6.19-4.371 2.18-.729 6.92-4.189 8.56-4.189 1.45 0 2.55-1.639 3.64-1.639.55 0 1.27.546 1.27 1.092 0 .547-.54.729-.91.911-1.09.546-2.55 3.461-3.27 4.736l-2.37 2.549c-1.46 1.457-2.37 2.915-2.37 4.918 0 2.914 2 5.646 4.19 7.468 3.82 3.278 8.92 3.824 13.66 4.917.54 0 .91.182 1.27.182 3.46 0 6.56-1.639 9.84-2.185 3.46-.729 6.92-3.097 10.01-4.372 5.28-2.185 1.28-5.646 6.92-8.742 2.73-1.639 3.46-3.643 5.1-6.01 2-2.732 2.19-6.557 3.28-9.654.36-.546.55-.91.55-1.457zm-101.26-69.211c0-2.55-2.73-5.646-5.28-5.646-.91 0-1.27.547-2.18.547-.73 0-1.46-.183-2.37-.183-2.19 0-2.37 3.279-2.37 4.918 0 3.096 4.19 5.1 6.74 5.1 1.82 0 5.46-2.914 5.46-4.736z" transform="rotate(-12.632 806.03 354.428)" fill="url(#paint13_radial)" fill-opacity=".2"/><path d="M321.864 415.102c0-.364-.546-.546-.91-.546-1.457 0-8.013 2.914-9.652 3.824-3.46 1.822-7.284 2.55-10.927 4.007-5.645 2.186-14.751 4.372-20.943 4.372-2.913 0-5.281-.911-5.281-4.372 0-2.367 2.004-6.01 3.46-7.831 5.1-6.193 3.461-10.018 11.109-15.846.911-.729 1.457-1.457 1.457-2.732 0-2.732-2.185-6.193-5.099-6.193-.911 0-1.821.182-2.732.182-.728 0-1.275-.364-2.003-.364-3.278 0-6.01 4.736-9.834 5.646-2.914.729-5.281 1.275-7.831 2.915-2.367 1.821-4.917 2.367-7.648 3.46-1.275.546-4.189 2.368-5.282 2.368-.182 0-.364-.182-.546-.182 0-2.368 5.099-7.468 6.738-9.107 1.275-1.275 2.185-2.732 3.278-4.189 1.639-2.004 3.278-4.007 5.099-5.828 6.374-7.104 12.566-14.207 20.215-20.035 2.913-2.186 4.006-6.193 7.466-7.65 1.821-.728 3.278-2.185 3.278-4.371 0-1.457-1.092-2.368-2.549-2.368-8.56 0-23.129 13.296-28.046 19.853-3.095 4.007-7.83 6.01-10.926 9.835-2.914 3.461-6.556 5.646-9.652 8.743-3.46 3.096-9.834 10.199-13.658 12.02-6.921 3.279-12.93 7.65-19.851 10.564-3.824 1.457-7.284 3.643-10.926 5.282-.911.364-2.914 1.275-2.914 2.368 0 .728 1.275 1.275 1.821 1.275 3.642 0 10.563-5.1 14.023-6.375 2.549-.911 15.115-7.467 15.843-7.467.365 0 .547.182.547.364 0 2.368-4.917 7.467-6.556 8.924-5.282 4.554-8.924 10.2-13.294 15.3-5.282 6.01-10.927 11.838-16.208 17.849-5.464 6.01-10.745 12.021-16.755 17.303-2.913 2.732-6.009 5.099-9.105 7.649-2.914 2.55-4.917 5.829-8.195 8.196-1.639 1.093-2.003 2.732-3.824 4.007-3.461 2.004-14.751 11.475-15.48 15.117-.182 1.093-.364 2.368-.364 3.643 0 1.093 0 1.821.91 2.732 2.004 2.55 9.834 9.471 12.93 9.471 1.275 0 2.368-.911 3.096-1.821 2.368-2.368 3.096-5.282 4.735-8.196 2.003-3.825 4.007-7.832 6.738-11.11 3.825-4.918 8.742-8.925 12.566-13.843 2.732-3.642 5.463-7.103 8.013-10.746 2.003-2.914 4.917-5.099 7.466-7.649 4.189-4.007 8.013-8.196 11.473-12.932 2.004-2.55 4.007-5.1 6.374-7.285 2.368-2.368 5.099-3.825 6.738-6.921 1.821-3.097 4.553-4.736 6.738-7.286 1.822-2.185 4.553-3.824 6.374-6.01 2.004-2.55 4.553-4.553 6.738-7.103 3.278-3.825 20.397-14.207 25.132-14.207.728 0 .91.911.91 1.457 0 2.368-1.821 6.011-3.278 8.014-.91 1.457-1.456 3.279-2.731 4.736-1.457 1.639-3.096 6.01-3.096 8.196 0 5.464 5.281 10.017 10.562 10.017 5.464 0 10.927-1.457 16.39-2.186 4.735-.728 13.112-3.096 17.483-5.464 3.278-1.821 20.396-8.013 20.396-11.474z" transform="rotate(-12.632 806.03 354.428)" fill="url(#paint14_radial)" fill-opacity=".2"/><path d="M349.875 401.442c-1.274.729-2.731.911-3.642 1.821-1.821 2.186-4.006 2.914-6.556 4.007-1.821.729-10.198 4.736-11.109 4.736 0-1.457 1.821-2.004 2.368-2.914 1.275-2.004 3.278-2.186 5.099-3.825 2.003-2.004 4.553-1.639 6.738-3.097 1.457-.728 3.278-2.185 4.917-2.185.546 0 2.185.728 2.185 1.457zm46.074 13.478c0-.547-.546-.911-1.092-.911-1.821 0-19.85 8.196-22.946 9.653-3.825 1.822-8.013 2.914-12.02 4.736-3.278 1.639-6.556 2.732-10.38 3.46-5.827.911-9.47 2.368-15.844 2.368-5.099 0-10.562-2.732-10.562-8.378 0-6.557 1.457-8.014 7.102-10.928 2.55-1.457 5.282-2.55 8.195-3.643 3.096-1.093 5.646-3.46 8.924-4.371 3.642-.911 4.188-1.457 7.284-3.643 1.093-.91 3.825-1.639 4.553-2.367 2.185-2.368 4.006-4.372 4.006-7.832 0-2.914-2.731-3.825-5.099-3.825-1.457 0-2.913.364-4.37.364-.729 0-1.275-.182-1.821-.182-3.461 0-9.106 1.639-12.566 2.732-10.745 3.279-13.112 4.553-21.671 12.021-3.096 2.732-5.646 6.01-8.742 8.56-3.46 2.732-1.821 4.007-4.006 6.921-1.457 1.822-3.46 3.825-3.46 6.375 0 3.461 6.374 8.014 8.923 9.835 2.368 1.64 4.553 1.275 7.285 1.822 3.824.91 7.466 3.096 11.473 3.096 2.003 0 3.824-.911 5.827-.911h1.457c4.735 0 8.195-2.55 12.384-3.46 2.731-.729 5.099-2.186 7.648-2.914 6.738-2.186 14.205-4.372 20.033-8.014 5.827-3.461 13.112-4.736 18.211-8.925.546-.364 1.274-.911 1.274-1.639z" transform="rotate(-12.632 806.03 354.428)" fill="url(#paint15_radial)" fill-opacity=".2"/><path d="M487.271 415.102c0-.729-.91-1.093-1.457-1.093-1.457 0-8.377 3.461-10.198 4.371-2.55 1.093-4.917 2.186-7.467 2.915-5.645 2.003-10.926 5.281-16.39 7.649l-3.278.911-3.46 1.457c-5.645 2.55-17.3 5.464-23.31 5.464-1.093 0-4.188 0-4.188-1.639 0-.547.91-1.093 1.274-1.457 2.004-2.004 4.189-3.643 5.646-6.011 1.092-1.457 2.367-2.732 3.642-3.825 5.099-4.735 12.201-10.381 12.201-17.849 0-4.553-3.278-7.467-7.466-8.56-1.093-.182-6.01-2.003-6.738-2.55-.547-.364-.729-1.275-.729-1.821 0-3.461 5.646-3.643 5.646-8.561 0-2.367-1.639-5.099-4.371-5.099-3.096 0-6.192 1.639-9.47 2.185-3.46.547-5.463 2.732-5.463 6.375 0 1.821.728 3.278.728 5.1 0 3.096-3.095 7.649-5.645 9.471-2.732 1.639-4.371 4.371-6.92 6.01-2.914 1.822-5.828 3.461-8.742 5.464-1.639 1.093-10.016 4.554-10.016 6.011 0 .91.911 1.275 1.639 1.275 2.186 0 11.473-4.554 13.659-6.011 1.821-1.275 3.824-2.55 5.827-3.278 4.371-1.457 10.563-5.829 14.569-8.561 1.639-1.092 3.278-2.185 5.281-2.185 2.368 0 8.013 1.639 8.013 4.553 0 .911-.182 1.639-.182 2.55 0 1.093-.91 2.004-1.639 2.55-.728.728-1.457 1.275-2.185 1.821-1.639 1.639-2.914 3.643-4.917 5.1-3.096 2.368-5.828 3.461-8.195 6.739-3.278 4.371-11.109 6.921-11.109 13.296 0 5.282 6.01 7.832 10.562 7.832 1.275 0 2.368 0 3.643-.547 2.367-.911 5.463-.911 8.195-1.275 8.195-.91 14.751-6.192 22.581-8.742 3.461-1.093 6.374-2.914 9.652-4.736 4.007-2.367 8.924-3.096 12.93-5.646 3.642-2.185 7.467-3.46 11.291-5.1 1.457-.546 6.556-2.914 6.556-4.553z" transform="rotate(-12.632 806.03 354.428)" fill="url(#paint16_radial)" fill-opacity=".2"/><path d="M584.146 414.738c0-.729-.911-.729-1.275-.729-1.821 0-3.278.729-4.735 1.457-2.367 1.093-4.917 2.004-7.284 2.914-2.186.729-4.007 1.822-6.01 2.55-2.55.911-5.281 1.639-7.649 2.914-2.367 1.093-4.917 2.186-7.284 2.915-3.278.91-7.285 1.457-10.198 3.096-2.732 1.639-6.556 1.639-9.652 1.639-1.639 0-4.371-.728-4.371-2.732 0-.728.546-1.093.911-1.639 2.549-2.732 2.731-6.739 4.006-10.018.911-2.003.911-4.006.911-6.192 0-.911-.183-2.186-.183-3.461 0-2.55.183-5.099 1.275-6.921 2.004-3.825 4.917-3.825 7.831-6.374 2.914-2.732 8.013-5.464 11.837-6.739 1.093-.365 2.003-.729 2.003-2.004 0-1.821-1.638-4.371-3.642-4.371-6.738 0-23.128 6.01-27.863 10.746-.91 1.093-1.639 2.368-2.731 3.46-3.461 2.915-11.473 5.829-15.662 7.65-1.821.911-3.824 1.639-5.281 2.914-1.093.911-1.821 1.275-3.096 1.821l-4.371 2.004c-2.003.911-17.665 9.107-18.029 9.653-.182.364-.364.546-.364.911 0 .728 1.093 1.093 1.821 1.093 3.096 0 25.86-12.75 31.687-14.935 1.822-.729 3.825-1.275 5.828-2.186 1.093-.546 2.55-1.275 4.006-1.275.911 0 1.275.546 1.275 1.457 0 4.007-.364 8.014-1.275 12.021-.546 3.096-2.549 5.646-3.277 8.925-.729 3.642-7.285 5.281-10.563 5.281-3.096 0-6.01-1.275-9.106-1.275-2.731 0-3.278 3.825-4.916 5.282-1.275 1.275-2.004 2.368-2.004 4.372 0 2.914 3.096 8.196 6.374 8.196 1.457 0 2.914-1.093 4.553-1.275 6.01-1.093 16.754-8.014 20.396-8.014 4.189 0 8.377-1.275 12.748-1.275 10.563 0 25.132-7.103 34.419-11.839 2.368-1.275 4.917-2.55 7.649-3.278 3.278-.911 6.92-3.097 10.016-4.918.546-.364 1.275-.911 1.275-1.821z" transform="rotate(-12.632 806.03 354.428)" fill="url(#paint17_radial)" fill-opacity=".2"/><path d="M625.014 412.006c0 3.278-3.824 5.646-6.374 7.103-3.824 2.186-7.102 4.918-10.198 8.014-2.55 2.55-12.019 5.646-15.479 5.646-2.368 0-6.921-2.55-6.921-5.1 0-.91.547-1.457 1.093-2.003 2.185-2.004 2.549-2.186 4.006-4.918 1.821-3.46 3.643-5.1 6.921-7.285 3.46-2.368 17.482-11.293 20.942-11.293 1.275 0 1.639.547 2.004 1.64.728 2.185 4.006 6.739 4.006 8.196zm10.38-13.114c0 1.093-1.092 4.736-2.367 4.736-1.093 0-1.639-2.368-1.639-3.279 0-1.457.91-3.278 2.732-3.278.91 0 1.274 1.093 1.274 1.821zm38.062 16.028c0-.729-1.093-1.093-1.639-1.093-2.55 0-14.751 6.557-20.215 6.557-.364 0-.91 0-1.457-.182-4.188-1.093-5.463 0-8.559-3.643-1.092-1.275-2.003-2.732-2.914-3.825-.364-.364-.728-.728-.728-1.275 0-.91 6.01-12.385 6.01-17.849 0-6.192-2.186-7.649-8.013-7.649-2.732 0-4.917.364-7.285 1.639-1.639.91-3.642 1.093-5.281 2.003-2.914 1.639-2.185 6.011-4.371 7.286-1.639.91-12.747 2.185-16.025 3.096-5.464 1.639-12.02 4.371-16.39 7.832-3.643 3.096-11.109 7.467-13.477 11.292-2.003 3.461-4.917 5.1-4.917 9.653 0 .729 0 1.457.182 2.186.365 1.457 5.828 5.282 7.285 6.739 2.914 2.732 7.649 2.914 11.473 2.914h3.642c8.741 0 24.403-10.018 30.777-16.028 2.003-2.003 4.553-3.278 6.556-5.282.546-.546 1.093-1.275 2.003-1.275 3.096 0 4.371 2.55 6.738 4.007 2.186 1.275 7.649 2.914 10.198 2.914 1.639 0 3.461-.364 5.1-.546 3.095-.364 21.307-6.921 21.307-9.471z" transform="rotate(-12.632 806.03 354.428)" fill="url(#paint18_radial)" fill-opacity=".2"/><path d="M817.141 414.738c0-.547-.728-.547-1.092-.547-2.55 0-16.208 6.739-20.033 8.196-3.095 1.093-5.645 3.097-8.923 3.825-3.824.911-7.102 3.096-10.745 3.825-4.552.911-8.559 2.914-13.294 2.914-1.639 0-4.006 0-4.006-2.003 0-1.457 1.275-2.914 1.821-4.189 1.275-2.368 4.006-4.007 5.828-5.829 3.095-2.914 3.095-5.282 7.102-7.649 2.185-1.457 7.831-7.286 7.831-9.836 0-3.46-8.924-6.192-11.473-6.192-4.189 0-8.195 3.46-12.02 4.553-4.188 1.093-7.466 4.736-11.473 5.646-3.46.729-7.648 3.461-10.562 5.282-6.738 4.189-14.933 4.371-21.489 8.378-2.914 1.822-6.01 2.915-9.288 3.825-1.821.547-5.828 2.914-7.284 2.914-.547 0-1.093-.364-1.093-.91 0-1.639 2.55-3.279 3.642-4.189 2.732-2.004 3.825-4.554 5.646-7.286 3.096-4.735 13.294-9.471 13.294-15.299 0-7.285-7.649-6.193-12.748-7.103-.182-.182-.546-.182-.728-.182-2.55 0-4.735 3.096-6.192 3.096-2.003 0-4.007 3.278-6.556 3.825-3.278.91-5.099 3.825-8.013 5.282-4.735 2.55-8.924 5.464-13.476 8.014-1.822.91-11.656 5.464-11.656 6.921 0 .91 1.457 1.275 2.186 1.275 2.185 0 13.658-6.193 16.026-7.832 2.185-1.639 5.099-2.004 7.466-3.643 1.821-1.275 3.46-2.368 5.646-3.096 2.731-.729 4.917-3.096 7.83-3.096.183 1.821-8.559 10.381-10.198 11.838-1.639 1.457-2.367 2.914-3.46 4.736-2.55 4.007-8.559 6.739-8.559 11.838 0 4.007 1.639 6.922 5.827 6.922 8.013 0 15.844-6.011 22.764-9.107 3.825-1.821 7.649-3.279 11.291-5.1 2.732-1.457 5.646-2.003 8.559-2.914 4.735-1.275 8.924-4.189 13.659-5.464 4.37-.911 20.214-8.925 21.489-8.925.546 0 .546.365.546.729 0 1.639-7.102 7.285-8.377 9.835l-.91 1.275c-2.914 3.279-6.739 5.828-6.739 10.564 0 2.368 1.457 6.921 4.007 7.832 2.367.91 4.917.546 7.466.91.365.182.729.182 1.275.182 2.732 0 12.93-2.367 15.48-3.278 2.185-.911 4.188-2.186 6.374-2.914 3.095-.911 5.827-2.368 8.923-3.279 4.006-1.092 7.467-3.096 11.109-4.735 4.735-2.003 9.47-4.189 14.022-6.557 1.093-.546 3.278-1.821 3.278-3.278z" transform="rotate(-12.632 806.03 354.428)" fill="url(#paint19_radial)" fill-opacity=".2"/><path d="M881.408 396.889c0 3.46-4.735 6.921-7.831 7.831-3.278.911-5.281 2.914-7.648 5.1-4.007 3.461-8.195 5.828-13.112 7.832-4.917 2.186-10.016 4.007-14.933 6.375-1.822.91-3.643 1.275-5.646 1.275-1.275 0-4.553-1.093-4.553-2.732 0-.547.547-1.093.911-1.458 2.003-2.185 2.549-5.099 4.917-6.921 3.642-2.732 7.284-6.192 11.473-8.014 4.917-2.003 8.377-6.374 13.294-8.196 3.824-1.457 8.559-5.828 12.384-5.828 2.367 0 4.552.546 6.92.546 2.185 0 3.824 2.004 3.824 4.19zm46.803 18.031c0-.729-.911-1.093-1.639-1.093-2.55 0-8.56 3.096-11.109 4.371-4.735 2.186-9.652 3.825-14.569 5.829-4.371 1.821-8.377 4.189-12.93 5.099-5.645 1.093-8.195 2.732-14.569 2.732-2.731 0-5.463-2.185-5.463-5.099 0-1.457 1.093-2.55 1.639-3.825.91-2.368 1.275-2.368 3.642-3.643 3.642-2.186 6.192-6.01 9.288-8.742 1.457-1.275 2.003-2.732 2.003-4.554 0-2.185-.546-1.639-1.457-2.914 0-1.639 3.46-3.643 3.46-8.56 0-6.375-3.278-7.103-8.741-7.103-5.099 0-10.016.182-15.115.91-4.553.547-8.742 3.097-13.112 4.371-7.467 2.004-14.387 7.468-21.125 11.111-5.099 2.732-9.47 6.374-14.205 9.471-2.914 2.003-4.917 4.553-7.467 6.739-1.821 1.639-4.006 3.46-4.006 6.01 0 1.457.728 3.096 1.275 4.371 1.821 3.279 4.188 2.914 6.92 4.554 2.367 1.092 2.914 2.367 5.828 2.367 3.824 0 10.016-1.457 13.658-2.732 4.735-1.639 9.834-1.275 14.205-4.007 3.096-1.821 6.373-1.457 9.469-2.914.365-.182.729-.364 1.093-.364.546 0 1.275.729 1.275 1.457 0 .546-.182 1.275-.182 1.821 0 1.458 1.275 2.55 2.367 3.461 2.732 2.186 4.735 4.553 8.559 4.553 6.738 0 12.93-3.46 19.486-5.099 5.282-1.275 10.381-3.825 15.48-5.647 3.824-1.457 7.102-3.642 11.109-4.917 2.549-.911 4.917-2.186 7.466-3.279 1.457-.728 7.467-3.096 7.467-4.735z" transform="rotate(-12.632 806.03 354.428)" fill="url(#paint20_radial)" fill-opacity=".2"/><path d="M1029.23 335.509c0 4.007-8.38 8.561-10.75 12.203-2.18 3.279-5.64 5.1-8.01 8.014-4.37 5.646-10.562 9.835-15.843 14.753-5.099 4.736-11.291 8.56-16.572 13.296-3.278 2.914-16.936 13.842-20.396 13.842-.182 0-.547-.182-.547-.546 0-3.097 8.195-9.653 10.198-12.385 2.186-2.915 4.189-5.829 6.739-8.196 5.645-4.736 10.016-10.564 15.479-15.3 4.917-4.371 23.132-20.763 27.862-22.402 3.46-1.275 5.83-4.371 9.29-5.464.73-.182 1.27-.547 2-.911.55.729.55 2.186.55 3.096zm11.47-8.924c0-5.282-3.46-5.646-8.01-5.646-6.74 0-17.85 5.828-23.86 9.288-10.196 6.193-18.391 15.118-27.497 22.767-9.288 7.65-17.118 16.757-25.131 25.863-4.007 4.554-11.109 9.653-13.841 14.935-2.003 4.007-6.192 5.464-8.377 9.107-2.003 3.278-4.37 6.01-6.92 8.56-1.275 1.457-3.824 3.097-4.735 4.554-.546.91-2.55 8.924-2.55 9.835 0 1.639.547 3.096.547 4.735 0 3.825 3.46 4.554 6.192 6.193 4.188 2.55 7.648 3.096 12.565 3.096 5.281 0 16.39-3.096 21.489-4.917 2.732-.911 5.282-2.368 8.195-3.279 2.55-.91 4.735-2.185 7.285-3.096 4.553-1.639 8.559-4.007 12.93-6.01 3.824-1.458 8.195-2.733 11.468-5.282.73-.547 1.64-1.275 1.64-2.368 0-.547-.18-.729-.72-.729-2.554 0-15.666 6.557-19.673 7.832-2.731.911-5.281 2.368-8.013 3.461-9.834 4.371-17.3 5.464-27.498 7.831-2.186.547-4.553.911-6.921.911-2.549 0-6.556-.546-6.556-4.007 0-3.46 4.189-8.742 6.556-10.928 2.914-2.732 4.553-6.375 7.285-9.107 4.188-4.371 9.834-7.831 15.115-10.746 6.556-3.824 12.93-7.831 18.94-12.385 5.281-3.825 10.38-7.831 15.115-12.385 5.83-5.828 12.2-11.11 18.21-16.756 5.65-5.282 10.38-11.11 16.03-16.21 3.27-3.096 5.1-7.468 8.37-10.2 1.64-1.457 2.37-2.549 2.37-4.917z" transform="rotate(-12.632 806.03 354.428)" fill="url(#paint21_radial)" fill-opacity=".2"/><path d="M362.337 525.488c0-1.821-3.096-2.914-4.735-2.914-1.457 0-3.096.546-4.552.911-2.55.546-5.1.546-7.831.546h-4.007c-2.003 0-4.006 0-6.191-.546-1.093-.182-2.186-.365-3.279-.365-8.012 0-15.843 1.64-23.674 1.64-3.824 0-7.467-1.093-11.109-1.093-5.099 0-10.016.728-15.115.728-5.281 0-10.562-.546-15.844-.546-1.821 0-7.648-1.093-7.648-3.461 0-2.732 7.284-5.646 7.284-9.106 0-3.461-7.284-5.646-10.016-5.646-1.275 0-2.003.182-2.914.91-3.46 2.368-7.466 2.914-11.109 4.918-3.46 1.639-6.009 5.282-8.741 7.832-3.824 3.642-8.741 3.642-13.658 3.642-2.003 0-4.007-.364-5.828-.364-1.275 0-2.367.364-3.46.364-2.367.182-4.735.365-7.102.365-4.371 0-8.742-.547-13.294-.547-6.01 0-12.02 1.275-18.029 1.275-1.639 0-3.096-.182-4.553-.182-2.368 0-4.735.364-6.92.364-2.368 0-4.553-.546-6.738-.546-1.093 0-3.643 0-3.643 1.639 0 2.186 15.662 2.914 18.576 2.914 3.278 0 6.374-.728 9.469-.728 1.093 0 2.186.182 3.278.182 2.914 0 5.646-.547 8.56-.547 2.367 0 4.735.547 7.102.547 3.642 0 7.102-.364 10.745-.911 1.274-.364 2.549-.364 3.824-.364 2.732 0 8.559.364 8.559 4.189 0 1.821-1.093 3.278-2.367 4.371-6.556 6.557-15.298 16.757-22.946 21.492-3.278 2.004-6.01 4.553-9.652 6.01-3.642 1.458-6.556 4.007-10.381 5.465-2.549.91-4.917 2.185-7.466 3.096-1.457.546-8.377 2.914-8.377 4.553 0 .729 1.639 1.093 2.185 1.093 3.824 0 17.119-7.832 19.486-7.832.546 0 .546.364.546.729 0 2.185-8.013 8.742-8.013 15.663 0 1.275.365 2.732.911 4.007 2.367 6.011 5.281 4.736 10.562 6.193 3.643.91 7.467 1.093 11.291 1.093 2.55 0 7.467 0 9.652-1.275 3.278-1.822 9.834-1.093 14.387-3.279 6.01-2.732 12.566-2.914 18.393-5.646 4.735-2.186 9.834-3.46 14.569-5.646 3.096-1.457 23.675-9.653 23.675-12.021 0-.911-.911-1.275-1.639-1.275-1.275 0-15.662 6.375-17.483 7.468-4.007 2.367-8.377 3.278-12.566 5.099-6.374 2.732-12.93 3.825-19.486 5.829-8.195 2.367-16.39 4.371-24.949 4.371-3.46 0-9.47-.364-9.47-4.918 0-2.367 1.457-6.739 3.46-8.014 2.914-2.185 5.1-4.735 7.103-7.649 3.824-5.1 8.559-9.107 13.112-13.478 4.37-4.189 5.645-8.196 11.291-11.293 3.824-2.003 6.738-5.099 10.38-7.467 3.46-2.186 6.192-5.828 10.016-7.65.911-.364 2.003-.546 3.096-.546h2.55c1.092 0 2.185-.182 3.642-.547.91-.364 1.821-.364 2.731-.364 4.007 0 7.649 1.275 11.656 1.275 5.645 0 11.29-1.093 17.118-1.093 3.642 0 7.285.911 11.109.911 5.645 0 11.291-1.275 17.118-1.275 4.917 0 9.834.364 14.933.364 6.739 0 13.477-1.457 20.397-1.457 2.185 0 4.371.182 6.556.182 1.275 0 5.463 0 5.463-1.639z" transform="rotate(-12.632 806.03 354.428)" fill="url(#paint22_radial)" fill-opacity=".2"/><path d="M366.516 569.018c0-.728-.911-1.092-1.457-1.092-1.457 0-8.377 3.46-10.198 4.371-2.55 1.093-4.917 2.185-7.467 2.914-5.645 2.003-10.927 5.282-16.39 7.65l-3.278.91-3.46 1.457c-5.645 2.55-17.301 5.464-23.31 5.464-1.093 0-4.189 0-4.189-1.639 0-.546.911-1.093 1.275-1.457 2.003-2.003 4.189-3.643 5.645-6.01 1.093-1.458 2.368-2.732 3.643-3.825 5.099-4.736 12.201-10.382 12.201-17.849 0-4.554-3.278-7.468-7.466-8.561-1.093-.182-6.01-2.003-6.739-2.55-.546-.364-.728-1.275-.728-1.821 0-3.46 5.645-3.643 5.645-8.56 0-2.368-1.639-5.1-4.37-5.1-3.096 0-6.192 1.639-9.47 2.186-3.46.546-5.463 2.732-5.463 6.374 0 1.822.728 3.279.728 5.1 0 3.096-3.096 7.65-5.645 9.471-2.732 1.639-4.371 4.371-6.921 6.01-2.913 1.822-5.827 3.461-8.741 5.465-1.639 1.092-10.016 4.553-10.016 6.01 0 .911.911 1.275 1.639 1.275 2.185 0 11.473-4.554 13.658-6.011 1.821-1.275 3.825-2.549 5.828-3.278 4.371-1.457 10.562-5.828 14.569-8.56 1.639-1.093 3.278-2.186 5.281-2.186 2.367 0 8.013 1.639 8.013 4.553 0 .911-.182 1.64-.182 2.55 0 1.093-.911 2.004-1.639 2.55-.729.729-1.457 1.275-2.186 1.822-1.639 1.639-2.913 3.642-4.917 5.099-3.095 2.368-5.827 3.461-8.195 6.739-3.278 4.371-11.108 6.921-11.108 13.296 0 5.282 6.009 7.832 10.562 7.832 1.275 0 2.368 0 3.642-.547 2.368-.91 5.464-.91 8.195-1.275 8.195-.91 14.751-6.192 22.582-8.742 3.46-1.093 6.374-2.914 9.652-4.735 4.006-2.368 8.923-3.097 12.93-5.647 3.642-2.185 7.466-3.46 11.291-5.099 1.457-.547 6.556-2.914 6.556-4.554z" transform="rotate(-12.632 806.03 354.428)" fill="url(#paint23_radial)" fill-opacity=".2"/><path d="M429.154 550.805c0 3.46-4.735 6.921-7.831 7.832-3.278.91-5.281 2.914-7.649 5.099-4.006 3.461-8.195 5.829-13.112 7.832-4.917 2.186-10.016 4.007-14.933 6.375-1.821.911-3.642 1.275-5.646 1.275-1.274 0-4.552-1.093-4.552-2.732 0-.547.546-1.093.91-1.457 2.003-2.186 2.55-5.1 4.917-6.921 3.642-2.732 7.285-6.193 11.473-8.014 4.917-2.004 8.377-6.375 13.294-8.196 3.825-1.457 8.56-5.829 12.384-5.829 2.367 0 4.553.547 6.92.547 2.185 0 3.825 2.003 3.825 4.189zm46.802 18.031c0-.728-.911-1.093-1.639-1.093-2.55 0-8.559 3.097-11.109 4.372-4.735 2.185-9.652 3.824-14.569 5.828-4.37 1.821-8.377 4.189-12.93 5.1-5.645 1.092-8.195 2.732-14.568 2.732-2.732 0-5.464-2.186-5.464-5.1 0-1.457 1.093-2.55 1.639-3.825.911-2.368 1.275-2.368 3.642-3.643 3.643-2.185 6.192-6.01 9.288-8.742 1.457-1.275 2.003-2.732 2.003-4.553 0-2.186-.546-1.64-1.457-2.915 0-1.639 3.461-3.642 3.461-8.56 0-6.375-3.278-7.103-8.742-7.103-5.099 0-10.016.182-15.115.911-4.553.546-8.741 3.096-13.112 4.371-7.466 2.003-14.387 7.467-21.125 11.11-5.099 2.732-9.47 6.375-14.205 9.471-2.913 2.003-4.917 4.553-7.466 6.739-1.821 1.639-4.007 3.461-4.007 6.01 0 1.457.729 3.097 1.275 4.372 1.821 3.278 4.189 2.914 6.92 4.553 2.368 1.093 2.914 2.368 5.828 2.368 3.824 0 10.016-1.457 13.658-2.732 4.735-1.64 9.834-1.275 14.205-4.007 3.096-1.822 6.374-1.457 9.47-2.914.364-.183.728-.365 1.092-.365.547 0 1.275.729 1.275 1.457 0 .547-.182 1.275-.182 1.822 0 1.457 1.275 2.55 2.368 3.46 2.731 2.186 4.734 4.554 8.559 4.554 6.738 0 12.93-3.461 19.486-5.1 5.281-1.275 10.38-3.825 15.479-5.646 3.824-1.457 7.102-3.643 11.109-4.918 2.549-.911 4.917-2.186 7.466-3.278 1.457-.729 7.467-3.097 7.467-4.736z" transform="rotate(-12.632 806.03 354.428)" fill="url(#paint24_radial)" fill-opacity=".2"/><path d="M551.296 569.2c0-.728-1.093-1.092-1.639-1.092-2.732 0-9.652 3.642-12.566 4.735-7.284 3.096-14.569 5.828-21.853 9.107-5.099 2.368-10.927 3.096-16.208 5.1-6.556 2.367-10.744 2.549-17.665 2.549-2.913 0-8.013-.364-8.013-4.371 0-1.275.547-2.55 1.093-3.825 2.003-4.735 5.828-8.378 10.38-10.928 4.553-2.367 9.106-4.735 13.295-7.649 4.734-3.461 9.105-7.65 13.658-11.475.364-.364.91-.728.91-1.275 0-1.821-3.642-2.55-5.099-2.55-2.913 0-5.827 1.093-8.741 1.64-3.096.364-4.553 2.185-7.467 3.642-1.456.729-3.278 1.275-4.917 1.822-3.824 1.092-16.936 13.296-19.85 16.756-3.096 3.461-6.009 8.014-6.009 12.749 0 1.458.364 3.097.91 4.372 3.278 7.285 6.01 3.824 10.927 6.192 2.185 1.093 4.553 1.822 7.102 1.822 3.096 0 5.828-1.822 8.924-1.822 2.731 0 5.645-1.457 8.377-1.821 7.284-1.275 13.112-5.828 20.032-7.65 5.463-1.457 10.38-4.553 15.662-6.739 5.099-2.003 10.016-4.735 15.297-6.739.91-.364 3.46-1.275 3.46-2.55zm-16.572-67.571c0-2.368-3.642-4.736-5.281-5.829-4.553-2.732-2.55-1.092-5.646-4.371-1.092-1.275-2.731-4.371-4.37-4.371-1.275 0-4.371 2.003-5.646 2.732-1.093.728-1.821 1.457-1.821 2.732 0 2.55 2.55 6.375 4.553 7.832 2.367 1.821 6.92 1.275 10.198 2.367 1.821.547 2.914.729 4.735.729 1.275 0 3.278-.182 3.278-1.821z" transform="rotate(-12.632 806.03 354.428)" fill="url(#paint25_radial)" fill-opacity=".2"/><path d="M694.252 568.654c0-.546-.729-.546-1.093-.546-2.549 0-16.208 6.739-20.032 8.196-3.096 1.092-5.645 3.096-8.923 3.824-3.825.911-7.103 3.097-10.745 3.825-4.553.911-8.559 2.914-13.294 2.914-1.639 0-4.007 0-4.007-2.003 0-1.457 1.275-2.914 1.821-4.189 1.275-2.368 4.007-4.007 5.828-5.828 3.096-2.915 3.096-5.282 7.102-7.65 2.186-1.457 7.831-7.285 7.831-9.835 0-3.461-8.923-6.193-11.473-6.193-4.188 0-8.195 3.461-12.019 4.554-4.189 1.092-7.467 4.735-11.473 5.646-3.46.728-7.649 3.46-10.563 5.282-6.738 4.189-14.933 4.371-21.489 8.378-2.914 1.821-6.009 2.914-9.287 3.825-1.822.546-5.828 2.914-7.285 2.914-.546 0-1.093-.365-1.093-.911 0-1.639 2.55-3.278 3.643-4.189 2.731-2.004 3.824-4.553 5.645-7.285 3.096-4.736 13.294-9.471 13.294-15.3 0-7.285-7.648-6.192-12.747-7.103-.183-.182-.547-.182-.729-.182-2.549 0-4.735 3.096-6.192 3.096-2.003 0-4.006 3.279-6.556 3.825-3.278.911-5.099 3.825-8.013 5.282-4.735 2.55-8.923 5.464-13.476 8.014-1.821.91-11.655 5.464-11.655 6.921 0 .911 1.457 1.275 2.185 1.275 2.186 0 13.659-6.193 16.026-7.832 2.185-1.639 5.099-2.003 7.467-3.643 1.821-1.275 3.46-2.367 5.645-3.096 2.732-.728 4.917-3.096 7.831-3.096.182 1.821-8.559 10.381-10.198 11.839-1.639 1.457-2.368 2.914-3.46 4.735-2.55 4.007-8.56 6.739-8.56 11.839 0 4.007 1.639 6.921 5.828 6.921 8.013 0 15.844-6.011 22.764-9.107 3.824-1.821 7.648-3.278 11.291-5.1 2.731-1.457 5.645-2.003 8.559-2.914 4.735-1.275 8.923-4.189 13.658-5.464 4.371-.91 20.215-8.924 21.489-8.924.547 0 .547.364.547.728 0 1.639-7.103 7.286-8.377 9.835l-.911 1.275c-2.914 3.279-6.738 5.829-6.738 10.564 0 2.368 1.457 6.921 4.006 7.832 2.368.911 4.917.546 7.467.911.364.182.728.182 1.275.182 2.731 0 12.93-2.368 15.479-3.279 2.186-.91 4.189-2.185 6.374-2.914 3.096-.91 5.828-2.368 8.924-3.278 4.006-1.093 7.466-3.097 11.108-4.736 4.735-2.003 9.47-4.189 14.023-6.557 1.093-.546 3.278-1.821 3.278-3.278z" transform="rotate(-12.632 806.03 354.428)" fill="url(#paint26_radial)" fill-opacity=".2"/><path d="M772.177 569.2c0-.728-1.093-1.092-1.639-1.092-2.732 0-9.652 3.642-12.566 4.735-7.284 3.096-14.569 5.828-21.853 9.107-5.099 2.368-10.927 3.096-16.208 5.1-6.556 2.367-10.744 2.549-17.665 2.549-2.913 0-8.013-.364-8.013-4.371 0-1.275.547-2.55 1.093-3.825 2.003-4.735 5.828-8.378 10.38-10.928 4.553-2.367 9.106-4.735 13.294-7.649 4.735-3.461 9.106-7.65 13.659-11.475.364-.364.91-.728.91-1.275 0-1.821-3.642-2.55-5.099-2.55-2.913 0-5.827 1.093-8.741 1.64-3.096.364-4.553 2.185-7.467 3.642-1.456.729-3.278 1.275-4.917 1.822-3.824 1.092-16.936 13.296-19.85 16.756-3.096 3.461-6.009 8.014-6.009 12.749 0 1.458.364 3.097.91 4.372 3.278 7.285 6.01 3.824 10.927 6.192 2.185 1.093 4.553 1.822 7.102 1.822 3.096 0 5.828-1.822 8.924-1.822 2.731 0 5.645-1.457 8.377-1.821 7.284-1.275 13.112-5.828 20.032-7.65 5.463-1.457 10.38-4.553 15.661-6.739 5.1-2.003 10.017-4.735 15.298-6.739.91-.364 3.46-1.275 3.46-2.55zm-16.572-67.571c0-2.368-3.642-4.736-5.281-5.829-4.553-2.732-2.55-1.092-5.646-4.371-1.092-1.275-2.731-4.371-4.371-4.371-1.274 0-4.37 2.003-5.645 2.732-1.093.728-1.821 1.457-1.821 2.732 0 2.55 2.55 6.375 4.553 7.832 2.367 1.821 6.92 1.275 10.198 2.367 1.821.547 2.914.729 4.735.729 1.275 0 3.278-.182 3.278-1.821z" transform="rotate(-12.632 806.03 354.428)" fill="url(#paint27_radial)" fill-opacity=".2"/><path d="M915.133 568.654c0-.546-.729-.546-1.093-.546-2.549 0-16.208 6.739-20.032 8.196-3.096 1.092-5.646 3.096-8.923 3.824-3.825.911-7.103 3.097-10.745 3.825-4.553.911-8.559 2.914-13.294 2.914-1.639 0-4.007 0-4.007-2.003 0-1.457 1.275-2.914 1.821-4.189 1.275-2.368 4.007-4.007 5.828-5.828 3.096-2.915 3.096-5.282 7.102-7.65 2.186-1.457 7.831-7.285 7.831-9.835 0-3.461-8.923-6.193-11.473-6.193-4.188 0-8.195 3.461-12.019 4.554-4.189 1.092-7.467 4.735-11.473 5.646-3.46.728-7.649 3.46-10.563 5.282-6.738 4.189-14.933 4.371-21.489 8.378-2.914 1.821-6.009 2.914-9.287 3.825-1.822.546-5.828 2.914-7.285 2.914-.546 0-1.093-.365-1.093-.911 0-1.639 2.55-3.278 3.643-4.189 2.731-2.004 3.824-4.553 5.645-7.285 3.096-4.736 13.294-9.471 13.294-15.3 0-7.285-7.648-6.192-12.748-7.103-.182-.182-.546-.182-.728-.182-2.55 0-4.735 3.096-6.192 3.096-2.003 0-4.006 3.279-6.556 3.825-3.278.911-5.099 3.825-8.013 5.282-4.735 2.55-8.923 5.464-13.476 8.014-1.821.91-11.655 5.464-11.655 6.921 0 .911 1.457 1.275 2.185 1.275 2.186 0 13.659-6.193 16.026-7.832 2.185-1.639 5.099-2.003 7.467-3.643 1.821-1.275 3.46-2.367 5.645-3.096 2.732-.728 4.917-3.096 7.831-3.096.182 1.821-8.559 10.381-10.198 11.839-1.639 1.457-2.368 2.914-3.461 4.735-2.549 4.007-8.559 6.739-8.559 11.839 0 4.007 1.639 6.921 5.828 6.921 8.013 0 15.843-6.011 22.764-9.107 3.824-1.821 7.648-3.278 11.291-5.1 2.731-1.457 5.645-2.003 8.559-2.914 4.735-1.275 8.923-4.189 13.658-5.464 4.371-.91 20.215-8.924 21.489-8.924.547 0 .547.364.547.728 0 1.639-7.103 7.286-8.377 9.835l-.911 1.275c-2.914 3.279-6.738 5.829-6.738 10.564 0 2.368 1.457 6.921 4.006 7.832 2.368.911 4.917.546 7.467.911.364.182.728.182 1.275.182 2.731 0 12.93-2.368 15.479-3.279 2.185-.91 4.189-2.185 6.374-2.914 3.096-.91 5.828-2.368 8.923-3.278 4.007-1.093 7.467-3.097 11.109-4.736 4.735-2.003 9.47-4.189 14.023-6.557 1.092-.546 3.278-1.821 3.278-3.278z" transform="rotate(-12.632 806.03 354.428)" fill="url(#paint28_radial)" fill-opacity=".2"/><path d="M914.386 652.436c0 .728-.546 2.003-.911 2.732-.546 1.639-6.92 6.921-8.559 9.471-2.003 3.096-5.281 4.735-7.284 7.649-2.186 3.825-4.371 6.193-7.831 8.743-2.914 2.368-4.371 6.01-7.649 8.196-1.639 1.093-5.099 6.192-6.192 6.192-.91 0-1.092-1.639-1.092-2.185 0-3.096 2.003-5.828 4.37-7.65 2.368-2.003 3.825-4.735 6.374-6.557 2.55-1.821 3.643-5.099 6.374-6.739 3.46-2.367 5.646-7.103 8.924-8.924 2.913-1.639 11.291-11.475 13.112-11.475.182 0 .364.365.364.547zm120.744-83.418c0-.728-.55-1.092-1.28-1.092-3.28 0-11.11 4.371-14.2 6.01-3.65 1.821-7.29 3.096-10.75 5.1-2.91 1.821-5.83 3.642-8.922 4.917-3.46 1.64-6.374 4.007-9.652 5.829-5.281 2.914-10.38 5.828-14.751 9.835-3.46 3.096-7.831 4.735-11.473 7.285-2.185 1.457-9.47 7.832-11.655 7.832-.364 0-.546-.182-.546-.546 0-2.186 2.914-6.011 4.37-7.468 1.639-2.003 2.55-4.735 4.553-6.557 2.368-2.185 4.007-4.917 6.192-7.285 5.463-6.193 8.195-14.207 14.023-20.217 2.367-2.186 3.824-5.1 6.009-7.65 1.457-1.821 5.646-6.556 5.646-8.742 0-.911-.911-1.821-1.821-1.821-4.007 0-14.205 7.467-19.122 8.924-3.824 1.275-7.102 2.732-10.563 4.736-3.278 2.185-13.84 5.464-17.664 5.464-1.639 0-2.186-1.64-2.186-3.097 0-1.275.365-2.003 1.639-2.732 4.917-3.278 10.563-5.464 15.48-8.924 4.37-3.279 8.923-6.193 14.022-8.196 3.46-1.457 6.738-3.097 10.199-4.918 2.731-1.639 8.012-1.639 11.473-1.639 4.917 0 7.099 4.735 7.099 8.56 0 2.368-1.454 4.189-1.454 6.557 0 .546.182 3.096 1.094 3.096 1.09 0 2.55-4.007 2.73-4.917.73-2.004.91-3.825.91-5.829 0-2.185-.18-4.189-.36-6.374-.55-4.554-.19-6.557-5.285-7.832-1.639-.364-3.278-.364-4.917-.364-10.198 0-26.588 4.735-35.329 9.835-9.834 5.828-20.214 10.199-30.595 14.571-12.93 5.646-17.3 6.374-24.221 19.67-.364.547-.546 1.093-.546 1.822 0 2.003 4.007 6.192 5.281 7.831 1.639 2.004 3.46 3.461 6.192 3.461 2.185 0 3.824-.911 5.463-2.368 2.914-2.732 6.556-3.278 10.199-4.918 6.92-3.096 13.476-6.739 20.942-9.106 2.55-.729 4.553-2.186 6.921-3.461 3.095-1.275 6.191-1.275 8.741-3.46 1.275-.911 7.831-4.189 9.288-4.189-.182 3.46-2.004 7.285-4.189 9.471-1.639 1.821-1.821 4.189-3.46 5.828-2.732 2.368-3.642 5.828-6.556 8.014-2.732 2.185-3.824 5.646-6.374 7.831-2.914 2.368-3.46 6.193-6.192 8.561-3.46 2.732-4.006 4.371-6.191 7.832-2.004 3.096-4.553 5.646-6.374 8.742-3.46 5.282-8.56 8.743-12.566 13.296-1.457 1.457-2.732 2.914-4.371 4.189-1.821 1.457-3.278 1.821-4.552 3.825-2.55 4.007-6.739 6.192-9.834 9.653-3.643 4.007-8.56 6.375-11.838 10.746-2.185 2.55-4.735 4.917-7.102 7.285-7.102 6.921-24.767 23.86-28.591 32.056-2.186 4.735-10.199 12.749-10.199 17.12a3.265 3.265 0 0 0 3.278 3.279c7.467 0 25.314-20.946 31.323-26.41 5.282-4.917 9.834-10.746 15.116-15.663 5.827-5.464 8.923-13.296 15.297-18.214 5.645-4.189 8.741-10.199 12.93-15.663 3.642-4.736 7.649-9.107 11.291-13.842 2.003-2.732 4.553-5.282 6.92-7.65 2.55-2.914 6.01-5.1 9.288-7.285 3.278-2.186 6.191-4.372 9.105-6.921 1.821-1.64 4.189-2.55 6.01-4.19 3.096-2.914 7.466-4.007 10.927-6.739 2.367-2.003 5.099-3.642 7.466-5.646 2.368-2.003 5.281-2.732 7.649-4.553 4.917-4.007 11.105-6.557 16.575-9.835 2.55-1.457 5.1-2.55 7.65-3.643 2.73-1.093 5.09-2.914 7.83-4.007 2.36-1.093 5.1-2.003 7.28-3.46.73-.365 1.28-.729 1.28-1.64z" transform="rotate(-12.632 806.03 354.428)" fill="url(#paint29_radial)" fill-opacity=".2"/><defs><radialGradient id="paint0_radial" cx=".5" cy=".5" r=".5" gradientUnits="userSpaceOnUse" gradientTransform="matrix(0 765.734 -2172.91 0 1662.3 -54.078)"><stop stop-color="#F1B82D"/><stop offset="1" stop-color="#F1B82D" stop-opacity="0"/></radialGradient><radialGradient id="paint1_radial" cx=".5" cy=".5" r=".5" gradientUnits="userSpaceOnUse" gradientTransform="matrix(0 765.734 -2172.91 0 1662.3 -54.078)"><stop stop-color="#F1B82D"/><stop offset="1" stop-color="#F1B82D" stop-opacity="0"/></radialGradient><radialGradient id="paint2_radial" cx=".5" cy=".5" r=".5" gradientUnits="userSpaceOnUse" gradientTransform="matrix(0 765.734 -2172.91 0 1662.3 -54.078)"><stop stop-color="#F1B82D"/><stop offset="1" stop-color="#F1B82D" stop-opacity="0"/></radialGradient><radialGradient id="paint3_radial" cx=".5" cy=".5" r=".5" gradientUnits="userSpaceOnUse" gradientTransform="matrix(0 765.734 -2172.91 0 1662.3 -54.078)"><stop stop-color="#F1B82D"/><stop offset="1" stop-color="#F1B82D" stop-opacity="0"/></radialGradient><radialGradient id="paint4_radial" cx=".5" cy=".5" r=".5" gradientUnits="userSpaceOnUse" gradientTransform="matrix(0 765.734 -2172.91 0 1662.3 -54.078)"><stop stop-color="#F1B82D"/><stop offset="1" stop-color="#F1B82D" stop-opacity="0"/></radialGradient><radialGradient id="paint5_radial" cx=".5" cy=".5" r=".5" gradientUnits="userSpaceOnUse" gradientTransform="matrix(0 765.734 -2172.91 0 1662.3 -54.078)"><stop stop-color="#F1B82D"/><stop offset="1" stop-color="#F1B82D" stop-opacity="0"/></radialGradient><radialGradient id="paint6_radial" cx=".5" cy=".5" r=".5" gradientUnits="userSpaceOnUse" gradientTransform="matrix(0 765.734 -2172.91 0 1662.3 -54.078)"><stop stop-color="#F1B82D"/><stop offset="1" stop-color="#F1B82D" stop-opacity="0"/></radialGradient><radialGradient id="paint7_radial" cx=".5" cy=".5" r=".5" gradientUnits="userSpaceOnUse" gradientTransform="matrix(0 765.734 -2172.91 0 1662.3 -54.078)"><stop stop-color="#F1B82D"/><stop offset="1" stop-color="#F1B82D" stop-opacity="0"/></radialGradient><radialGradient id="paint8_radial" cx=".5" cy=".5" r=".5" gradientUnits="userSpaceOnUse" gradientTransform="matrix(0 765.734 -2172.91 0 1662.3 -54.078)"><stop stop-color="#F1B82D"/><stop offset="1" stop-color="#F1B82D" stop-opacity="0"/></radialGradient><radialGradient id="paint9_radial" cx=".5" cy=".5" r=".5" gradientUnits="userSpaceOnUse" gradientTransform="matrix(0 765.734 -2172.91 0 1662.3 -54.078)"><stop stop-color="#F1B82D"/><stop offset="1" stop-color="#F1B82D" stop-opacity="0"/></radialGradient><radialGradient id="paint10_radial" cx=".5" cy=".5" r=".5" gradientUnits="userSpaceOnUse" gradientTransform="matrix(0 765.734 -2172.91 0 1662.3 -54.078)"><stop stop-color="#F1B82D"/><stop offset="1" stop-color="#F1B82D" stop-opacity="0"/></radialGradient><radialGradient id="paint11_radial" cx=".5" cy=".5" r=".5" gradientUnits="userSpaceOnUse" gradientTransform="matrix(0 765.734 -2172.91 0 1662.3 -54.078)"><stop stop-color="#F1B82D"/><stop offset="1" stop-color="#F1B82D" stop-opacity="0"/></radialGradient><radialGradient id="paint12_radial" cx=".5" cy=".5" r=".5" gradientUnits="userSpaceOnUse" gradientTransform="matrix(0 765.734 -2172.91 0 1662.3 -54.078)"><stop stop-color="#F1B82D"/><stop offset="1" stop-color="#F1B82D" stop-opacity="0"/></radialGradient><radialGradient id="paint13_radial" cx=".5" cy=".5" r=".5" gradientUnits="userSpaceOnUse" gradientTransform="matrix(0 765.734 -2172.91 0 1662.3 -54.078)"><stop stop-color="#F1B82D"/><stop offset="1" stop-color="#F1B82D" stop-opacity="0"/></radialGradient><radialGradient id="paint14_radial" cx=".5" cy=".5" r=".5" gradientUnits="userSpaceOnUse" gradientTransform="matrix(0 765.734 -2172.91 0 1662.3 -54.078)"><stop stop-color="#F1B82D"/><stop offset="1" stop-color="#F1B82D" stop-opacity="0"/></radialGradient><radialGradient id="paint15_radial" cx=".5" cy=".5" r=".5" gradientUnits="userSpaceOnUse" gradientTransform="matrix(0 765.734 -2172.91 0 1662.3 -54.078)"><stop stop-color="#F1B82D"/><stop offset="1" stop-color="#F1B82D" stop-opacity="0"/></radialGradient><radialGradient id="paint16_radial" cx=".5" cy=".5" r=".5" gradientUnits="userSpaceOnUse" gradientTransform="matrix(0 765.734 -2172.91 0 1662.3 -54.078)"><stop stop-color="#F1B82D"/><stop offset="1" stop-color="#F1B82D" stop-opacity="0"/></radialGradient><radialGradient id="paint17_radial" cx=".5" cy=".5" r=".5" gradientUnits="userSpaceOnUse" gradientTransform="matrix(0 765.734 -2172.91 0 1662.3 -54.078)"><stop stop-color="#F1B82D"/><stop offset="1" stop-color="#F1B82D" stop-opacity="0"/></radialGradient><radialGradient id="paint18_radial" cx=".5" cy=".5" r=".5" gradientUnits="userSpaceOnUse" gradientTransform="matrix(0 765.734 -2172.91 0 1662.3 -54.078)"><stop stop-color="#F1B82D"/><stop offset="1" stop-color="#F1B82D" stop-opacity="0"/></radialGradient><radialGradient id="paint19_radial" cx=".5" cy=".5" r=".5" gradientUnits="userSpaceOnUse" gradientTransform="matrix(0 765.734 -2172.91 0 1662.3 -54.078)"><stop stop-color="#F1B82D"/><stop offset="1" stop-color="#F1B82D" stop-opacity="0"/></radialGradient><radialGradient id="paint20_radial" cx=".5" cy=".5" r=".5" gradientUnits="userSpaceOnUse" gradientTransform="matrix(0 765.734 -2172.91 0 1662.3 -54.078)"><stop stop-color="#F1B82D"/><stop offset="1" stop-color="#F1B82D" stop-opacity="0"/></radialGradient><radialGradient id="paint21_radial" cx=".5" cy=".5" r=".5" gradientUnits="userSpaceOnUse" gradientTransform="matrix(0 765.734 -2172.91 0 1662.3 -54.078)"><stop stop-color="#F1B82D"/><stop offset="1" stop-color="#F1B82D" stop-opacity="0"/></radialGradient><radialGradient id="paint22_radial" cx=".5" cy=".5" r=".5" gradientUnits="userSpaceOnUse" gradientTransform="matrix(0 765.734 -2172.91 0 1662.3 -54.078)"><stop stop-color="#F1B82D"/><stop offset="1" stop-color="#F1B82D" stop-opacity="0"/></radialGradient><radialGradient id="paint23_radial" cx=".5" cy=".5" r=".5" gradientUnits="userSpaceOnUse" gradientTransform="matrix(0 765.734 -2172.91 0 1662.3 -54.078)"><stop stop-color="#F1B82D"/><stop offset="1" stop-color="#F1B82D" stop-opacity="0"/></radialGradient><radialGradient id="paint24_radial" cx=".5" cy=".5" r=".5" gradientUnits="userSpaceOnUse" gradientTransform="matrix(0 765.734 -2172.91 0 1662.3 -54.078)"><stop stop-color="#F1B82D"/><stop offset="1" stop-color="#F1B82D" stop-opacity="0"/></radialGradient><radialGradient id="paint25_radial" cx=".5" cy=".5" r=".5" gradientUnits="userSpaceOnUse" gradientTransform="matrix(0 765.734 -2172.91 0 1662.3 -54.078)"><stop stop-color="#F1B82D"/><stop offset="1" stop-color="#F1B82D" stop-opacity="0"/></radialGradient><radialGradient id="paint26_radial" cx=".5" cy=".5" r=".5" gradientUnits="userSpaceOnUse" gradientTransform="matrix(0 765.734 -2172.91 0 1662.3 -54.078)"><stop stop-color="#F1B82D"/><stop offset="1" stop-color="#F1B82D" stop-opacity="0"/></radialGradient><radialGradient id="paint27_radial" cx=".5" cy=".5" r=".5" gradientUnits="userSpaceOnUse" gradientTransform="matrix(0 765.734 -2172.91 0 1662.3 -54.078)"><stop stop-color="#F1B82D"/><stop offset="1" stop-color="#F1B82D" stop-opacity="0"/></radialGradient><radialGradient id="paint28_radial" cx=".5" cy=".5" r=".5" gradientUnits="userSpaceOnUse" gradientTransform="matrix(0 765.734 -2172.91 0 1662.3 -54.078)"><stop stop-color="#F1B82D"/><stop offset="1" stop-color="#F1B82D" stop-opacity="0"/></radialGradient><radialGradient id="paint29_radial" cx=".5" cy=".5" r=".5" gradientUnits="userSpaceOnUse" gradientTransform="matrix(0 765.734 -2172.91 0 1662.3 -54.078)"><stop stop-color="#F1B82D"/><stop offset="1" stop-color="#F1B82D" stop-opacity="0"/></radialGradient></defs></svg>