<svg width="330" height="60" fill="none" xmlns="http://www.w3.org/2000/svg"><path d="M27.69 7.97h6.39L26.97 29h-6.42l-3.54-13.47L13.35 29H6.96L-.09 7.97h6.66l3.78 14.61L14.1 7.97h6.09l3.78 14.58 3.72-14.58zm8.064 0h17.19v4.8h-10.95v3.3h9.93v4.8h-9.93v3.33h11.25V29h-17.49V7.97zm35.599 6.78a20.1 20.1 0 0 0-3.69-1.68c-1.34-.46-2.44-.69-3.3-.69-.54 0-.97.11-1.29.33-.3.2-.45.5-.45.9 0 .56.3 1 .9 1.32.6.3 1.55.63 2.85.99 1.48.42 2.7.85 3.66 1.29.96.42 1.79 1.07 2.49 1.95.72.88 1.08 2.04 1.08 3.48 0 1.46-.39 2.7-1.17 3.72-.76 1-1.8 1.75-3.12 2.25-1.3.5-2.76.75-4.38.75-1.8 0-3.61-.3-5.43-.9-1.8-.62-3.36-1.46-4.68-2.52l2.34-4.74c1.06.92 2.35 1.7 3.87 2.34 1.54.62 2.86.93 3.96.93.68 0 1.21-.13 1.59-.39.38-.26.57-.63.57-1.11 0-.58-.31-1.02-.93-1.32-.62-.32-1.58-.65-2.88-.99-1.46-.38-2.67-.77-3.63-1.17-.96-.42-1.79-1.06-2.49-1.92-.7-.86-1.05-1.99-1.05-3.39 0-1.36.36-2.54 1.08-3.54.72-1.02 1.73-1.8 3.03-2.34 1.32-.54 2.85-.81 4.59-.81 1.58 0 3.15.23 4.71.69 1.56.44 2.92 1.03 4.08 1.77l-2.31 4.8zM74.3 7.97h18.48v4.98h-6.12V29h-6.27V12.95h-6.09V7.97zm46.256 0l-7.56 14.37V29h-6.24v-6.54l-7.71-14.49h6.24l4.59 8.58 4.47-8.58h6.21zm11.649-.39c2.16 0 4.11.47 5.85 1.41 1.76.94 3.13 2.24 4.11 3.9 1 1.64 1.5 3.49 1.5 5.55 0 2.08-.5 3.96-1.5 5.64-.98 1.66-2.35 2.97-4.11 3.93-1.74.94-3.69 1.41-5.85 1.41-2.18 0-4.14-.47-5.88-1.41-1.74-.96-3.11-2.27-4.11-3.93-.98-1.68-1.47-3.56-1.47-5.64 0-2.06.49-3.91 1.47-5.55 1-1.66 2.37-2.96 4.11-3.9 1.74-.94 3.7-1.41 5.88-1.41zm.09 5.19c-.92 0-1.78.25-2.58.75-.78.5-1.41 1.19-1.89 2.07-.46.86-.69 1.82-.69 2.88 0 1.06.23 2.03.69 2.91.48.88 1.11 1.58 1.89 2.1.8.5 1.66.75 2.58.75.9 0 1.73-.25 2.49-.75.78-.52 1.39-1.21 1.83-2.07.44-.88.66-1.86.66-2.94 0-1.06-.22-2.02-.66-2.88-.44-.88-1.04-1.57-1.8-2.07-.76-.5-1.6-.75-2.52-.75zM158.329 29l-2.79-5.67h-3.3V29h-6.24V7.97h9.81c2.82 0 5 .65 6.54 1.95 1.56 1.3 2.34 3.14 2.34 5.52 0 1.54-.31 2.88-.93 4.02-.6 1.12-1.47 2.01-2.61 2.67l4.26 6.87h-7.08zm-6.09-10.47h3.57c.94 0 1.66-.25 2.16-.75.52-.5.78-1.22.78-2.16 0-.92-.26-1.62-.78-2.1-.5-.5-1.22-.75-2.16-.75h-3.57v5.76zM188.707 29h-7.47l-4.92-7.74-2.34 2.58V29h-6.24V7.97h6.24v8.43l7.05-8.43h7.2l-7.65 8.52 8.13 12.51zm16.972-14.25a20.1 20.1 0 0 0-3.69-1.68c-1.34-.46-2.44-.69-3.3-.69-.54 0-.97.11-1.29.33-.3.2-.45.5-.45.9 0 .56.3 1 .9 1.32.6.3 1.55.63 2.85.99 1.48.42 2.7.85 3.66 1.29.96.42 1.79 1.07 2.49 1.95.72.88 1.08 2.04 1.08 3.48 0 1.46-.39 2.7-1.17 3.72-.76 1-1.8 1.75-3.12 2.25-1.3.5-2.76.75-4.38.75-1.8 0-3.61-.3-5.43-.9-1.8-.62-3.36-1.46-4.68-2.52l2.34-4.74c1.06.92 2.35 1.7 3.87 2.34 1.54.62 2.86.93 3.96.93.68 0 1.21-.13 1.59-.39.38-.26.57-.63.57-1.11 0-.58-.31-1.02-.93-1.32-.62-.32-1.58-.65-2.88-.99-1.46-.38-2.67-.77-3.63-1.17-.96-.42-1.79-1.06-2.49-1.92-.7-.86-1.05-1.99-1.05-3.39 0-1.36.36-2.54 1.08-3.54.72-1.02 1.73-1.8 3.03-2.34 1.32-.54 2.85-.81 4.59-.81 1.58 0 3.15.23 4.71.69 1.56.44 2.92 1.03 4.08 1.77l-2.31 4.8zm4.538-6.78h6.24v8.37h7.47V7.97h6.24V29h-6.24v-7.83h-7.47V29h-6.24V7.97zm23.496 0h6.24V29h-6.24V7.97zM255.829 29l-2.79-5.67h-3.3V29h-6.24V7.97h9.81c2.82 0 5 .65 6.54 1.95 1.56 1.3 2.34 3.14 2.34 5.52 0 1.54-.31 2.88-.93 4.02-.6 1.12-1.47 2.01-2.61 2.67l4.26 6.87h-7.08zm-6.09-10.47h3.57c.94 0 1.66-.25 2.16-.75.52-.5.78-1.22.78-2.16 0-.92-.26-1.62-.78-2.1-.5-.5-1.22-.75-2.16-.75h-3.57v5.76zm15.498-10.56h17.19v4.8h-10.95v3.3h9.93v4.8h-9.93v3.33h11.25V29h-17.49V7.97zm-253.927 37c2.72 0 4.82.65 6.3 1.95 1.5 1.3 2.25 3.14 2.25 5.52 0 2.5-.75 4.44-2.25 5.82-1.48 1.38-3.58 2.07-6.3 2.07l-3.3.03V66H1.77V44.97h9.54zm-.3 10.56c.94 0 1.66-.25 2.16-.75.52-.5.78-1.22.78-2.16 0-.92-.26-1.62-.78-2.1-.5-.5-1.22-.75-2.16-.75h-3v5.76h3zm11.239-10.56h17.19v4.8h-10.95v3.3h9.93v4.8h-9.93v3.33h11.25V66h-17.49V44.97zM55.056 66l-2.79-5.67h-3.3V66h-6.24V44.97h9.81c2.82 0 5 .65 6.54 1.95 1.56 1.3 2.34 3.14 2.34 5.52 0 1.54-.31 2.88-.93 4.02-.6 1.12-1.47 2.01-2.61 2.67l4.26 6.87h-7.08zm-6.09-10.47h3.57c.94 0 1.66-.25 2.16-.75.52-.5.78-1.22.78-2.16 0-.92-.26-1.62-.78-2.1-.5-.5-1.22-.75-2.16-.75h-3.57v5.76zm30.618-3.78a20.1 20.1 0 0 0-3.69-1.68c-1.34-.46-2.44-.69-3.3-.69-.54 0-.97.11-1.29.33-.3.2-.45.5-.45.9 0 .56.3 1 .9 1.32.6.3 1.55.63 2.85.99 1.48.42 2.7.85 3.66 1.29.96.42 1.79 1.07 2.49 1.95.72.88 1.08 2.04 1.08 3.48 0 1.46-.39 2.7-1.17 3.72-.76 1-1.8 1.75-3.12 2.25-1.3.5-2.76.75-4.38.75-1.8 0-3.61-.3-5.43-.9-1.8-.62-3.36-1.46-4.68-2.52l2.34-4.74c1.06.92 2.35 1.7 3.87 2.34 1.54.62 2.86.93 3.96.93.68 0 1.21-.13 1.59-.39.38-.26.57-.63.57-1.11 0-.58-.31-1.02-.93-1.32-.62-.32-1.58-.65-2.88-.99-1.46-.38-2.67-.77-3.63-1.17-.96-.42-1.79-1.06-2.49-1.92-.7-.86-1.05-1.99-1.05-3.39 0-1.36.36-2.54 1.08-3.54.72-1.02 1.73-1.8 3.03-2.34 1.32-.54 2.85-.81 4.59-.81 1.58 0 3.15.23 4.71.69 1.56.44 2.92 1.03 4.08 1.77l-2.31 4.8zm14.799-7.17c2.16 0 4.11.47 5.85 1.41 1.76.94 3.13 2.24 4.11 3.9 1 1.64 1.5 3.49 1.5 5.55 0 2.08-.5 3.96-1.5 5.64-.98 1.66-2.35 2.97-4.11 3.93-1.74.94-3.69 1.41-5.85 1.41-2.18 0-4.14-.47-5.88-1.41-1.74-.96-3.11-2.27-4.11-3.93-.98-1.68-1.47-3.56-1.47-5.64 0-2.06.49-3.91 1.47-5.55 1-1.66 2.37-2.96 4.11-3.9 1.74-.94 3.7-1.41 5.88-1.41zm.09 5.19c-.92 0-1.78.25-2.58.75-.78.5-1.41 1.19-1.89 2.07-.46.86-.69 1.82-.69 2.88 0 1.06.23 2.03.69 2.91.48.88 1.11 1.58 1.89 2.1.8.5 1.66.75 2.58.75.9 0 1.73-.25 2.49-.75.78-.52 1.39-1.21 1.83-2.07.44-.88.66-1.86.66-2.94 0-1.06-.22-2.02-.66-2.88-.44-.88-1.04-1.57-1.8-2.07-.76-.5-1.6-.75-2.52-.75zm27.952-4.8h5.7V66h-5.31l-8.91-11.7V66h-5.73V44.97h5.34l8.91 11.73V44.97zM147.062 66l-1.23-3.36h-8.49l-1.26 3.36h-6.42l8.97-21.03h6.42l8.67 21.03h-6.66zm-7.98-7.92h5.1l-2.52-6.87-2.58 6.87zm16.174-13.11h6.24v15.81h8.82V66h-15.06V44.97zm21.965 0h18.48v4.98h-6.12V66h-6.27V49.95h-6.09v-4.98zM209.979 66l-2.79-5.67h-3.3V66h-6.24V44.97h9.81c2.82 0 5 .65 6.54 1.95 1.56 1.3 2.34 3.14 2.34 5.52 0 1.54-.31 2.88-.93 4.02-.6 1.12-1.47 2.01-2.61 2.67l4.26 6.87h-7.08zm-6.09-10.47h3.57c.94 0 1.66-.25 2.16-.75.52-.5.78-1.22.78-2.16 0-.92-.26-1.62-.78-2.1-.5-.5-1.22-.75-2.16-.75h-3.57v5.76zM234.777 66l-1.23-3.36h-8.49l-1.26 3.36h-6.42l8.97-21.03h6.42l8.67 21.03h-6.66zm-7.98-7.92h5.1l-2.52-6.87-2.58 6.87zm16.174-13.11h6.24V66h-6.24V44.97zm24.035 0h5.7V66h-5.31l-8.91-11.7V66h-5.73V44.97h5.34l8.91 11.73V44.97zm9.246 0h6.24V66h-6.24V44.97zm24.036 0h5.7V66h-5.31l-8.91-11.7V66h-5.73V44.97h5.34l8.91 11.73V44.97zm22.986 10.14h5.37v8.55c-1.14.8-2.55 1.46-4.23 1.98-1.68.52-3.27.78-4.77.78-2.14 0-4.07-.47-5.79-1.41-1.72-.96-3.07-2.27-4.05-3.93-.98-1.66-1.47-3.53-1.47-5.61 0-2.06.5-3.92 1.5-5.58 1.02-1.66 2.42-2.96 4.2-3.9 1.8-.94 3.81-1.41 6.03-1.41 1.6 0 3.2.29 4.8.87 1.6.58 2.96 1.37 4.08 2.37l-3.54 4.26c-.72-.7-1.57-1.26-2.55-1.68-.96-.42-1.9-.63-2.82-.63-1 0-1.91.25-2.73.75-.8.5-1.43 1.19-1.89 2.07-.46.86-.69 1.82-.69 2.88 0 1.08.23 2.06.69 2.94a5.4 5.4 0 0 0 1.95 2.07c.82.5 1.73.75 2.73.75.9 0 1.96-.29 3.18-.87v-5.25z" transform="translate(1 -7)" fill="url(#paint0_radial)"/><defs><radialGradient id="paint0_radial" cx=".5" cy=".5" r=".5" gradientUnits="userSpaceOnUse" gradientTransform="matrix(0 137 -415 0 415 0)"><stop stop-color="#F1B82D"/><stop offset="1" stop-color="#F1B82D" stop-opacity=".18"/></radialGradient></defs></svg>