<svg width="1149" height="726" viewBox="0 0 1149 726" fill="none" xmlns="http://www.w3.org/2000/svg">
<path d="M310.374 68.6646C310.374 71.0324 308.189 72.3073 306.368 73.5823C304.365 74.8572 304 76.4964 303.09 78.682C302.179 81.414 297.627 83.0533 295.805 85.6031C293.438 88.6994 291.799 92.16 288.885 94.892C287.428 96.349 285.971 97.2597 285.061 99.2632C283.968 101.085 279.78 103.27 277.959 104.909C273.588 108.734 268.671 111.102 263.754 114.016C260.658 115.837 259.019 118.934 255.377 119.844C251.917 120.755 249.003 122.576 245.725 123.851C244.086 124.398 243.175 125.855 241.718 126.583C240.99 126.948 240.444 127.13 239.715 127.13C236.073 127.858 234.98 129.862 230.792 129.862C228.06 129.862 219.137 128.223 219.137 124.58C219.137 120.391 221.868 116.566 225.328 114.38C228.606 112.195 230.792 108.916 232.977 105.638C234.98 103.088 237.712 101.085 239.169 98.1704C240.808 95.2562 243.357 93.2528 244.814 90.1565C245.907 87.6066 248.639 83.7818 251.006 82.1426C253.009 80.6855 255.013 79.4105 256.287 77.2249C258.108 74.3108 260.658 73.5823 262.661 71.2145C265.757 67.3897 267.396 69.3932 271.038 67.754C272.677 67.0254 274.498 66.1148 276.502 66.1148C279.598 66.1148 282.329 67.3897 285.425 67.3897C289.614 67.3897 293.802 66.479 297.991 66.479C301.269 66.479 304.365 65.9326 307.643 65.9326C309.282 65.9326 310.374 67.2076 310.374 68.6646ZM400.337 109.827C400.337 114.198 395.967 116.384 392.142 116.384C390.321 116.384 389.411 114.562 389.411 112.923C389.411 108.188 393.963 107.095 397.97 107.095C399.791 107.095 400.337 108.37 400.337 109.827ZM392.324 11.4745C392.324 14.3886 383.947 21.4919 381.58 24.0417C379.577 26.2273 376.481 27.5023 374.295 29.6879C371.199 32.4199 368.468 35.3341 365.19 37.7018C362.094 39.8874 358.634 41.5266 356.084 44.4408L354.445 45.8978C352.26 47.3549 349.164 48.9941 347.707 51.1797C345.886 53.7296 345.158 55.0046 342.244 56.0974C338.055 57.9187 330.771 67.754 326.582 67.754C325.854 67.754 325.672 67.2076 325.672 66.479C325.672 65.2041 330.042 60.2865 330.953 59.0115C333.138 55.9152 336.416 54.0939 338.602 51.1797C341.333 47.1728 345.158 44.4408 348.982 41.5266C352.442 38.6125 353.717 33.877 358.087 31.5092C361.912 29.3236 362.822 26.4095 365.918 23.3132C368.832 20.399 373.021 19.3062 376.116 16.21C378.302 13.8422 379.394 13.1137 382.672 12.0209C384.858 11.2923 387.225 9.10672 389.411 9.10672C390.867 9.10672 392.324 9.83526 392.324 11.4745ZM499.406 106.913C499.406 105.091 498.859 103.452 498.313 101.813C497.767 100.356 497.038 98.8989 496.674 97.2597C495.581 91.9778 484.837 88.5173 480.102 87.6066C477.734 87.0602 475.367 85.9674 472.817 85.9674C470.996 85.9674 469.357 86.1495 467.536 86.1495C466.808 86.1495 466.079 85.9674 465.351 85.7853C461.709 84.5103 457.156 84.5103 453.332 84.5103C452.057 84.5103 450.6 83.7818 449.325 83.7818C448.415 83.7818 446.958 84.3282 446.958 85.421C446.958 86.8781 455.153 87.9709 456.427 88.5173L459.705 89.7922C460.616 89.9743 461.527 90.1565 462.619 90.1565C466.261 90.1565 469.904 91.0671 473.728 91.4314C476.278 91.6135 478.463 93.617 481.195 94.3456C483.926 94.892 488.479 99.0811 489.936 101.449C491.029 102.906 491.211 104.909 491.211 106.731C491.211 110.373 488.843 111.83 487.022 114.562C485.747 116.02 484.837 117.841 483.562 119.48C481.559 122.212 476.824 124.033 473.91 126.037C470.632 128.405 467.172 129.862 463.166 130.408C462.255 130.59 461.527 130.772 460.616 131.137C457.338 132.047 454.06 132.776 450.782 132.776C450.054 132.776 449.507 132.594 448.961 132.594C446.229 132.594 443.68 133.687 440.948 133.687C438.945 133.687 437.124 132.776 435.303 132.776C433.299 132.776 431.296 133.14 429.293 133.14C423.283 133.14 416.727 131.501 410.718 130.59C405.801 129.68 397.241 128.769 397.241 122.212C397.241 120.209 401.43 119.116 403.069 116.02C404.526 112.741 409.989 109.463 409.989 106.549C409.989 99.0811 405.983 99.4453 400.155 98.5346C399.609 98.3525 399.245 98.3525 398.698 98.3525C395.42 98.3525 392.142 99.6275 388.864 99.9917C387.225 100.356 386.133 101.085 384.676 102.177C383.401 103.088 382.308 103.999 380.851 104.727C378.484 105.82 375.57 112.013 375.57 114.562C375.57 116.93 376.116 119.298 376.116 121.666C376.116 123.305 375.752 124.216 374.113 124.944C369.56 126.583 364.643 128.405 359.726 128.405C356.813 128.405 354.081 127.312 351.349 126.948C346.797 126.219 344.065 123.487 344.065 118.752C344.065 114.927 346.797 113.288 348.436 110.373C349.71 108.37 350.075 107.277 352.078 105.82C353.17 105.091 356.631 101.085 356.631 99.8096V97.8061C356.631 96.5312 351.896 96.5312 350.439 96.5312H349.346C343.701 96.5312 341.697 98.8989 338.055 102.359C334.413 105.638 332.41 107.641 327.857 109.645C324.761 110.92 322.758 114.016 319.662 115.473C316.748 116.748 313.834 118.023 311.103 119.844C307.096 122.576 302.179 122.941 297.444 124.58C296.17 124.944 294.895 125.308 293.438 125.308C289.978 125.308 288.157 123.669 287.793 120.391C287.793 118.205 289.249 116.566 289.796 114.927C290.706 111.284 291.617 108.552 293.984 105.456C298.173 100.174 302.726 94.3456 308.917 91.2493C315.838 87.6066 319.844 79.4106 326.582 75.2215C331.135 72.3073 334.959 68.1182 339.148 64.8398C340.787 63.747 342.062 62.1078 343.519 61.015C345.34 59.9222 347.343 59.1937 348.8 57.5544C350.985 55.1867 354.081 53.9118 356.084 51.544C358.087 48.9941 360.455 47.3549 363.187 45.5336C365.554 43.8944 366.647 41.5266 369.743 40.4338C371.564 39.7053 372.292 38.2482 373.749 37.1554C376.116 35.3341 378.12 33.1484 380.123 31.145C382.49 29.1415 384.858 27.3202 387.225 25.4988C389.775 23.3132 391.232 20.399 393.963 18.7598C398.516 16.21 402.705 10.1995 402.705 4.91763C402.705 -0.364256 399.427 0.910671 395.602 0.182132C394.874 0.182132 393.963 0 393.235 0C389.957 0 383.947 2.73202 381.033 4.1891C377.938 5.82831 374.842 7.83178 371.564 9.10672C368.286 10.5638 365.918 13.2958 363.004 15.2993C359.18 18.0313 355.538 20.399 352.624 24.0417C350.075 26.9559 347.525 29.87 344.429 32.2378C340.058 35.5162 337.691 40.7981 333.32 44.0765C331.135 45.7157 330.407 48.6299 328.221 50.2691C324.761 52.819 322.394 55.9152 320.026 59.3758C319.116 60.8329 318.205 61.5614 316.566 61.5614C308.735 61.5614 300.905 62.2899 293.256 62.2899C290.888 62.2899 288.521 61.9257 286.154 61.9257C283.604 61.9257 281.783 60.2865 279.962 60.2865C275.045 60.2865 271.585 56.4616 269.217 56.4616C267.032 56.4616 265.211 57.9187 263.025 57.9187H261.933C259.93 57.9187 257.016 61.1971 253.009 61.5614C249.367 61.9257 246.818 62.6542 242.811 62.6542H238.623C235.345 62.6542 232.067 63.3827 228.789 63.3827C227.878 63.3827 227.15 63.2006 226.239 63.2006C224.782 63.2006 223.325 63.3827 222.05 63.3827C221.322 63.3827 220.594 63.2006 220.047 63.2006C218.59 63.0185 217.133 62.6542 215.677 62.6542C213.309 62.6542 211.124 63.2006 208.756 63.2006C206.753 63.2006 204.932 62.8363 203.111 62.8363C197.101 62.8363 191.274 64.8398 185.082 64.8398H181.804C178.344 64.8398 172.88 67.0254 172.88 71.0324C172.88 73.0359 175.248 73.218 176.887 73.218C180.893 73.218 184.353 71.3967 187.814 71.3967C190.727 71.3967 193.641 71.2145 196.555 70.8502C198.376 70.6681 199.651 69.0289 201.29 69.0289C204.932 69.0289 207.482 67.9361 210.213 67.9361C211.306 67.9361 212.398 68.3004 213.491 68.3004C215.676 68.3004 217.862 67.5718 220.047 67.5718C222.779 67.5718 225.511 67.2076 228.242 67.2076C228.971 67.2076 229.881 67.3897 230.61 67.3897C233.888 67.3897 236.984 66.479 240.262 66.479C241.172 66.479 246.271 66.8433 246.271 68.1182C246.271 70.1217 244.086 72.6716 242.265 73.5823C240.079 74.4929 238.987 77.5892 236.073 79.0463C233.341 80.5033 228.606 86.8781 226.603 89.6101C224.236 92.7064 218.59 94.7098 217.133 97.2597C215.13 100.902 213.127 102.542 209.849 104.909C206.389 107.277 200.743 120.573 200.743 124.762C200.743 132.412 210.031 132.776 215.13 135.872C216.951 136.965 218.772 137.511 220.958 137.511C222.05 137.511 222.961 137.147 224.054 137.147C225.693 137.147 227.514 137.511 229.153 137.511C230.245 137.511 231.338 136.783 232.431 136.601C234.434 136.054 236.255 136.236 238.076 135.144C240.99 133.322 244.086 131.865 247.182 130.59C249.549 129.68 251.006 127.676 253.374 126.765C255.923 126.037 257.926 124.033 260.294 123.123C262.661 122.212 264.118 120.209 266.303 119.298C268.307 118.387 271.585 115.837 273.406 115.837C274.681 115.837 275.045 117.294 275.045 118.205C275.045 119.48 274.498 120.755 274.498 122.03C274.498 123.851 276.502 128.04 278.505 128.587C282.147 129.497 285.971 131.501 289.796 131.501C294.895 131.501 299.63 128.951 304.547 128.04C309.1 127.312 314.199 125.673 317.841 122.941C319.298 122.03 320.573 119.298 322.212 119.298C323.668 119.298 325.125 118.023 326.4 118.023C327.857 118.023 329.678 118.934 329.678 120.573C329.678 121.119 329.496 121.484 329.496 121.848C329.496 122.576 329.86 123.305 330.042 124.033C332.774 129.497 335.324 130.408 340.787 132.594C341.515 132.958 342.608 133.322 343.519 133.322H361.912C365.554 133.322 368.832 131.501 372.474 130.772C375.57 130.226 378.666 128.587 381.762 128.587C386.133 128.587 389.046 132.412 393.235 132.412C396.149 132.412 398.516 134.415 401.248 134.415C404.708 134.415 407.622 136.601 410.9 136.601C414.542 136.601 418.002 137.694 421.462 137.694C422.919 137.694 424.376 137.511 425.651 137.511C430.932 137.511 436.031 138.422 441.13 138.422C442.769 138.422 444.044 137.511 445.501 137.511C446.958 137.511 448.415 137.876 449.871 137.876C458.066 137.876 466.079 134.962 473.91 132.776C477.188 131.865 479.556 129.315 482.651 128.223C485.201 127.312 487.386 126.037 489.39 124.398C491.939 122.576 492.486 119.298 494.489 116.93C497.038 113.834 499.406 111.466 499.406 106.913Z" transform="translate(-58 184.853) rotate(-12.6323)" fill="url(#paint0_radial)" fill-opacity="0.2"/>
<path d="M587.155 191.97C587.155 192.698 586.609 193.973 586.244 194.702C585.698 196.341 579.324 201.623 577.685 204.173C575.682 207.269 572.404 208.908 570.401 211.822C568.215 215.647 566.03 218.015 562.57 220.565C559.656 222.932 558.199 226.575 554.921 228.761C553.282 229.853 549.822 234.953 548.729 234.953C547.819 234.953 547.637 233.314 547.637 232.768C547.637 229.671 549.64 226.939 552.007 225.118C554.375 223.115 555.832 220.382 558.381 218.561C560.931 216.74 562.023 213.461 564.755 211.822C568.215 209.454 570.401 204.719 573.679 202.898C576.592 201.258 584.969 191.423 586.791 191.423C586.973 191.423 587.155 191.787 587.155 191.97ZM707.895 108.552C707.895 107.824 707.348 107.459 706.62 107.459C703.342 107.459 695.511 111.83 692.415 113.47C688.773 115.291 685.131 116.566 681.671 118.569C678.757 120.391 675.843 122.212 672.747 123.487C669.287 125.126 666.373 127.494 663.095 129.315C657.814 132.229 652.715 135.144 648.344 139.151C644.884 142.247 640.513 143.886 636.871 146.436C634.686 147.893 627.401 154.268 625.216 154.268C624.852 154.268 624.67 154.086 624.67 153.721C624.67 151.536 627.584 147.711 629.04 146.254C630.679 144.25 631.59 141.518 633.593 139.697C635.961 137.511 637.6 134.779 639.785 132.412C645.248 126.219 647.98 118.205 653.807 112.195C656.175 110.009 657.632 107.095 659.817 104.545C661.274 102.724 665.463 97.9883 665.463 95.8026C665.463 94.892 664.552 93.9813 663.642 93.9813C659.635 93.9813 649.437 101.449 644.52 102.906C640.696 104.181 637.418 105.638 633.957 107.641C630.679 109.827 620.117 113.105 616.293 113.105C614.654 113.105 614.107 111.466 614.107 110.009C614.107 108.734 614.471 108.006 615.746 107.277C620.663 103.999 626.309 101.813 631.226 98.3525C635.596 95.0741 640.149 92.16 645.248 90.1565C648.708 88.6994 651.986 87.0602 655.446 85.2388C658.178 83.5996 663.459 83.5996 666.919 83.5996C671.837 83.5996 674.022 88.3351 674.022 92.16C674.022 94.5277 672.565 96.3491 672.565 98.7168C672.565 99.2632 672.747 101.813 673.658 101.813C674.75 101.813 676.207 97.8061 676.389 96.8954C677.118 94.892 677.3 93.0706 677.3 91.0672C677.3 88.8815 677.118 86.8781 676.936 84.6925C676.389 80.1391 676.754 78.1356 671.654 76.8607C670.015 76.4964 668.376 76.4964 666.737 76.4964C656.539 76.4964 640.149 81.2319 631.408 86.3317C621.574 92.16 611.194 96.5312 600.813 100.902C587.883 106.549 583.513 107.277 576.592 120.573C576.228 121.119 576.046 121.666 576.046 122.394C576.046 124.398 580.052 128.587 581.327 130.226C582.966 132.229 584.787 133.687 587.519 133.687C589.704 133.687 591.343 132.776 592.982 131.319C595.896 128.587 599.538 128.04 603.181 126.401C610.101 123.305 616.657 119.662 624.123 117.294C626.673 116.566 628.676 115.109 631.044 113.834C634.139 112.559 637.235 112.559 639.785 110.373C641.06 109.463 647.616 106.184 649.073 106.184C648.891 109.645 647.069 113.47 644.884 115.655C643.245 117.477 643.063 119.844 641.424 121.484C638.692 123.851 637.782 127.312 634.868 129.497C632.136 131.683 631.044 135.144 628.494 137.329C625.58 139.697 625.034 143.522 622.302 145.89C618.842 148.622 618.296 150.261 616.11 153.721C614.107 156.818 611.558 159.368 609.737 162.464C606.277 167.746 601.177 171.206 597.171 175.76C595.714 177.217 594.439 178.674 592.8 179.949C590.979 181.406 589.522 181.77 588.247 183.774C585.698 187.78 581.509 189.966 578.414 193.427C574.771 197.434 569.854 199.801 566.576 204.173C564.391 206.722 561.841 209.09 559.474 211.458C552.372 218.379 534.707 235.318 530.883 243.514C528.697 248.249 520.684 256.263 520.684 260.634C520.684 262.456 522.141 263.913 523.962 263.913C531.429 263.913 549.276 242.967 555.285 237.503C560.567 232.585 565.119 226.757 570.401 221.84C576.228 216.376 579.324 208.544 585.698 203.626C591.343 199.437 594.439 193.427 598.628 187.963C602.27 183.227 606.276 178.856 609.919 174.12C611.922 171.388 614.471 168.838 616.839 166.471C619.388 163.557 622.849 161.371 626.127 159.185C629.405 157 632.318 154.814 635.232 152.264C637.053 150.625 639.421 149.714 641.242 148.075C644.338 145.161 648.708 144.068 652.169 141.336C654.536 139.333 657.268 137.694 659.635 135.69C662.003 133.687 664.916 132.958 667.284 131.137C672.201 127.13 678.393 124.58 683.856 121.301C686.406 119.844 688.955 118.752 691.505 117.659C694.236 116.566 696.604 114.745 699.335 113.652C701.703 112.559 704.435 111.648 706.62 110.191C707.348 109.827 707.895 109.463 707.895 108.552Z" transform="translate(-58 184.853) rotate(-12.6323)" fill="url(#paint1_radial)" fill-opacity="0.2"/>
<path d="M750.038 105.456C750.038 108.734 746.213 111.102 743.664 112.559C739.839 114.745 736.561 117.477 733.466 120.573C730.916 123.123 721.446 126.219 717.986 126.219C715.619 126.219 711.066 123.669 711.066 121.119C711.066 120.209 711.612 119.662 712.159 119.116C714.344 117.112 714.708 116.93 716.165 114.198C717.986 110.738 719.807 109.098 723.085 106.913C726.545 104.545 740.568 95.6205 744.028 95.6205C745.303 95.6205 745.667 96.1669 746.031 97.2597C746.76 99.4453 750.038 103.999 750.038 105.456ZM760.418 92.3421C760.418 93.4349 759.325 97.0776 758.051 97.0776C756.958 97.0776 756.412 94.7098 756.412 93.7992C756.412 92.3421 757.322 90.5207 759.143 90.5207C760.054 90.5207 760.418 91.6136 760.418 92.3421ZM798.479 108.37C798.479 107.641 797.387 107.277 796.84 107.277C794.291 107.277 782.089 113.834 776.626 113.834C776.262 113.834 775.715 113.834 775.169 113.652C770.98 112.559 769.706 113.652 766.61 110.009C765.517 108.734 764.607 107.277 763.696 106.184C763.332 105.82 762.968 105.456 762.968 104.909C762.968 103.999 768.977 92.5242 768.977 87.0602C768.977 80.8676 766.792 79.4106 760.964 79.4106C758.233 79.4106 756.047 79.7748 753.68 81.0498C752.041 81.9604 750.038 82.1426 748.399 83.0532C745.485 84.6925 746.213 89.0637 744.028 90.3386C742.389 91.2493 731.28 92.5242 728.002 93.4349C722.539 95.0741 715.983 97.8061 711.612 101.267C707.97 104.363 700.503 108.734 698.136 112.559C696.133 116.02 693.219 117.659 693.219 122.212C693.219 122.941 693.219 123.669 693.401 124.398C693.765 125.855 699.229 129.68 700.685 131.137C703.599 133.869 708.334 134.051 712.159 134.051H715.801C724.542 134.051 740.204 124.033 746.578 118.023C748.581 116.02 751.13 114.745 753.134 112.741C753.68 112.195 754.226 111.466 755.137 111.466C758.233 111.466 759.507 114.016 761.875 115.473C764.06 116.748 769.523 118.387 772.073 118.387C773.712 118.387 775.533 118.023 777.172 117.841C780.268 117.477 798.479 110.92 798.479 108.37Z" transform="translate(-58 184.853) rotate(-12.6323)" fill="url(#paint2_radial)" fill-opacity="0.2"/>
<path d="M900.826 28.9594C900.826 32.9663 892.449 37.5197 890.081 41.1624C887.896 44.4408 884.436 46.2621 882.068 49.1763C877.698 54.8224 871.506 59.0115 866.225 63.9291C861.125 68.6646 854.934 72.4894 849.652 77.2249C846.374 80.1391 832.716 91.0672 829.256 91.0672C829.074 91.0672 828.71 90.885 828.71 90.5207C828.71 87.4245 836.905 80.8676 838.908 78.1356C841.093 75.2215 843.096 72.3073 845.646 69.9396C851.292 65.2041 855.662 59.3758 861.125 54.6403C866.042 50.2691 884.254 33.877 888.988 32.2378C892.449 30.9628 894.816 27.8666 898.276 26.7738C899.005 26.5916 899.551 26.2273 900.279 25.8631C900.826 26.5916 900.826 28.0487 900.826 28.9594ZM912.299 20.0348C912.299 14.7529 908.839 14.3886 904.286 14.3886C897.548 14.3886 886.439 20.2169 880.429 23.6775C870.231 29.87 862.036 38.7946 852.93 46.4443C843.643 54.0939 835.812 63.2006 827.799 72.3073C823.793 76.8607 816.69 81.9604 813.959 87.2423C811.955 91.2493 807.767 92.7064 805.582 96.349C803.578 99.6275 801.211 102.359 798.661 104.909C797.387 106.366 794.837 108.006 793.926 109.463C793.38 110.373 791.377 118.387 791.377 119.298C791.377 120.937 791.923 122.394 791.923 124.033C791.923 127.858 795.383 128.587 798.115 130.226C802.304 132.776 805.764 133.322 810.681 133.322C815.962 133.322 827.071 130.226 832.17 128.405C834.901 127.494 837.451 126.037 840.365 125.126C842.914 124.216 845.1 122.941 847.649 122.03C852.202 120.391 856.208 118.023 860.579 116.02C864.403 114.562 868.774 113.288 872.052 110.738C872.781 110.191 873.691 109.463 873.691 108.37C873.691 107.824 873.509 107.641 872.963 107.641C870.413 107.641 857.301 114.198 853.295 115.473C850.563 116.384 848.013 117.841 845.282 118.934C835.448 123.305 827.981 124.398 817.783 126.765C815.598 127.312 813.23 127.676 810.863 127.676C808.313 127.676 804.307 127.13 804.307 123.669C804.307 120.209 808.495 114.927 810.863 112.741C813.777 110.009 815.416 106.366 818.147 103.634C822.336 99.2632 827.981 95.8026 833.262 92.8885C839.818 89.0637 846.192 85.0567 852.202 80.5034C857.483 76.6785 862.582 72.6716 867.317 68.1182C873.145 62.2899 879.519 57.008 885.528 51.3619C891.174 46.08 895.909 40.2517 901.554 35.1519C904.832 32.0556 906.653 27.6844 909.931 24.9524C911.57 23.4953 912.299 22.4025 912.299 20.0348Z" transform="translate(-58 184.853) rotate(-12.6323)" fill="url(#paint3_radial)" fill-opacity="0.2"/>
<path d="M928.696 99.4453C928.696 101.267 919.044 105.82 917.223 106.366C913.581 107.459 912.488 110.373 909.21 111.648C903.747 113.652 887.174 120.027 882.258 120.027C881.347 120.027 879.708 119.662 879.708 118.387C879.708 117.659 880.254 117.294 880.801 116.748C882.44 114.927 880.983 114.38 883.714 112.923C886.628 111.284 888.996 108.916 892.091 107.641C895.734 106.366 897.919 103.088 901.379 101.995C906.66 100.538 911.577 97.0776 917.041 97.0776H917.769C919.955 97.0776 922.686 97.0776 924.689 97.8061C925.236 97.9883 928.696 99.0811 928.696 99.4453ZM1009.01 43.5301C1009.01 41.1623 1006.09 40.9802 1004.45 40.9802C1003 40.9802 1001.54 41.1624 1000.27 41.1624C996.805 41.5266 992.799 45.3514 989.703 46.9907C979.869 52.0904 953.099 76.6785 945.086 85.7853C943.265 87.7887 940.169 91.9778 937.437 92.5242C935.798 92.7064 934.159 92.7064 932.52 92.7064C929.971 92.7064 927.421 92.16 924.871 92.16C918.68 92.16 912.306 92.8885 905.932 93.617C897.555 94.5277 889.906 98.5347 882.258 101.449C878.615 102.906 875.701 105.456 872.059 106.913C868.963 108.37 870.238 110.92 865.867 112.195C860.95 113.834 855.305 122.941 855.305 127.858C855.305 132.776 862.043 135.144 866.232 135.144C872.059 135.144 876.43 129.68 882.075 128.951C887.721 128.04 907.207 118.569 913.034 115.473C914.673 114.562 918.498 111.83 920.137 111.83C921.594 111.83 922.504 118.387 923.05 119.844C925.418 125.673 929.242 124.944 934.159 127.676C937.255 129.315 941.444 130.408 945.086 130.408C946.178 130.408 954.92 128.951 956.013 128.587C960.201 126.948 964.572 126.037 968.76 124.58C972.22 123.123 975.316 120.937 978.958 119.844C982.419 118.934 985.515 117.112 988.793 115.837C991.706 114.745 994.074 112.923 996.805 111.83C997.898 111.284 1001.36 110.191 1001.36 108.734C1001.36 107.824 1000.27 107.459 999.537 107.459C998.262 107.459 996.988 108.006 996.077 108.734C993.527 110.191 990.978 110.738 988.428 111.83C986.061 112.559 983.875 113.652 981.69 114.745C976.409 117.477 970.581 118.752 965.118 120.937C959.108 123.487 952.006 124.762 945.45 124.762C942.172 124.762 938.348 124.762 938.348 120.391C938.348 117.477 939.987 113.652 942.172 111.83C945.086 109.463 946.907 106.549 949.821 104.363C952.917 102.177 953.827 98.1704 956.013 96.7133C960.747 93.7992 964.208 89.9743 968.214 86.1495C971.492 83.2354 977.684 79.4105 980.051 75.95C982.601 72.3073 984.604 69.5753 988.428 67.2076C991.16 65.2041 1002.27 54.6403 1004.09 51.9083C1005 50.4512 1005.55 48.812 1006.82 47.5371C1007.91 46.4443 1009.01 45.1693 1009.01 43.5301Z" transform="translate(-58 184.853) rotate(-12.6323)" fill="url(#paint4_radial)" fill-opacity="0.2"/>
<path d="M110.906 262.104C110.906 261.376 109.995 261.376 109.631 261.376C107.81 261.376 106.353 262.104 104.896 262.833C102.529 263.925 99.979 264.836 97.6116 265.747C95.4262 266.475 93.6051 267.568 91.6019 268.297C89.0524 269.207 86.3207 269.936 83.9532 271.211C81.5858 272.304 79.0362 273.396 76.6688 274.125C73.3908 275.036 69.3844 275.582 66.4706 277.221C63.7389 278.86 59.9146 278.86 56.8187 278.86C55.1797 278.86 52.448 278.132 52.448 276.128C52.448 275.4 52.9944 275.036 53.3586 274.489C55.9081 271.757 56.0902 267.75 57.365 264.472C58.2756 262.468 58.2756 260.465 58.2756 258.279C58.2756 257.369 58.0935 256.094 58.0935 254.819C58.0935 252.269 58.2756 249.719 59.3682 247.898C61.3715 244.073 64.2852 244.073 67.199 241.523C70.1128 238.791 75.2119 236.059 79.0362 234.784C80.1289 234.42 81.0395 234.055 81.0395 232.78C81.0395 230.959 79.4005 228.409 77.3972 228.409C70.6591 228.409 54.2691 234.42 49.5342 239.155C48.6237 240.248 47.8952 241.523 46.8026 242.616C43.3425 245.53 35.3296 248.444 31.141 250.265C29.3199 251.176 27.3167 251.905 25.8598 253.18C24.7671 254.09 24.0387 254.454 22.7639 255.001L18.3932 257.004C16.39 257.915 0.728451 266.111 0.364228 266.657C0.182116 267.022 0 267.204 0 267.568C0 268.297 1.09267 268.661 1.82112 268.661C4.91701 268.661 27.6809 255.912 33.5085 253.726C35.3296 252.997 37.3328 252.451 39.336 251.54C40.4287 250.994 41.8856 250.265 43.3425 250.265C44.253 250.265 44.6172 250.812 44.6172 251.722C44.6172 255.729 44.253 259.736 43.3425 263.743C42.7961 266.84 40.7929 269.389 40.0645 272.668C39.336 276.311 32.78 277.95 29.502 277.95C26.4061 277.95 23.4923 276.675 20.3965 276.675C17.6648 276.675 17.1185 280.5 15.4794 281.957C14.2047 283.232 13.4762 284.324 13.4762 286.328C13.4762 289.242 16.5721 294.524 19.8501 294.524C21.307 294.524 22.7639 293.431 24.4029 293.249C30.4126 292.156 41.1571 285.235 44.7993 285.235C48.9879 285.235 53.1765 283.96 57.5471 283.96C68.1096 283.96 82.6785 276.857 91.9661 272.121C94.3336 270.847 96.8831 269.572 99.6148 268.843C102.893 267.932 106.535 265.747 109.631 263.925C110.177 263.561 110.906 263.015 110.906 262.104Z" transform="translate(-58 184.853) rotate(-12.6323)" fill="url(#paint5_radial)" fill-opacity="0.2"/>
<path d="M295.824 218.938C295.824 217.117 292.728 216.024 291.089 216.024C289.632 216.024 287.993 216.571 286.536 216.935C283.987 217.481 281.437 217.481 278.705 217.481H274.699C272.696 217.481 270.693 217.481 268.507 216.935C267.415 216.753 266.322 216.57 265.229 216.57C257.216 216.57 249.386 218.21 241.555 218.21C237.73 218.21 234.088 217.117 230.446 217.117C225.347 217.117 220.43 217.845 215.331 217.845C210.05 217.845 204.768 217.299 199.487 217.299C197.666 217.299 191.838 216.206 191.838 213.839C191.838 211.106 199.123 208.192 199.123 204.732C199.123 201.271 191.838 199.086 189.107 199.086C187.832 199.086 187.104 199.268 186.193 199.996C182.733 202.364 178.726 202.91 175.084 204.914C171.624 206.553 169.075 210.196 166.343 212.746C162.519 216.388 157.602 216.388 152.685 216.388C150.681 216.388 148.678 216.024 146.857 216.024C145.582 216.024 144.49 216.388 143.397 216.388C141.029 216.57 138.662 216.753 136.295 216.753C131.924 216.753 127.553 216.206 123 216.206C116.991 216.206 110.981 217.481 104.971 217.481C103.332 217.481 101.876 217.299 100.419 217.299C98.0512 217.299 95.6838 217.663 93.4984 217.663C91.131 217.663 88.9456 217.117 86.7603 217.117C85.6676 217.117 83.1181 217.117 83.1181 218.756C83.1181 220.942 98.7796 221.67 101.693 221.67C104.971 221.67 108.067 220.942 111.163 220.942C112.256 220.942 113.349 221.124 114.441 221.124C117.355 221.124 120.087 220.577 123 220.577C125.368 220.577 127.735 221.124 130.103 221.124C133.745 221.124 137.205 220.76 140.847 220.213C142.122 219.849 143.397 219.849 144.672 219.849C147.403 219.849 153.231 220.213 153.231 224.038C153.231 225.859 152.138 227.316 150.863 228.409C144.307 234.966 135.566 245.166 127.917 249.901C124.639 251.905 121.908 254.454 118.266 255.912C114.623 257.369 111.71 259.918 107.885 261.376C105.336 262.286 102.968 263.561 100.419 264.472C98.9618 265.018 92.0416 267.386 92.0416 269.025C92.0416 269.754 93.6805 270.118 94.2269 270.118C98.0512 270.118 111.345 262.286 113.713 262.286C114.259 262.286 114.259 262.65 114.259 263.015C114.259 265.2 106.246 271.757 106.246 278.678C106.246 279.953 106.61 281.41 107.157 282.685C109.524 288.696 112.438 287.421 117.719 288.878C121.361 289.788 125.186 289.971 129.01 289.971C131.56 289.971 136.477 289.971 138.662 288.696C141.94 286.874 148.496 287.603 153.049 285.417C159.058 282.685 165.614 282.503 171.442 279.771C176.177 277.585 181.276 276.311 186.011 274.125C189.107 272.668 209.685 264.472 209.685 262.104C209.685 261.193 208.775 260.829 208.046 260.829C206.772 260.829 192.385 267.204 190.564 268.297C186.557 270.664 182.187 271.575 177.998 273.396C171.624 276.128 165.068 277.221 158.512 279.225C150.317 281.592 142.122 283.596 133.563 283.596C130.103 283.596 124.093 283.232 124.093 278.678C124.093 276.311 125.55 271.939 127.553 270.664C130.467 268.479 132.652 265.929 134.656 263.015C138.48 257.915 143.215 253.908 147.768 249.537C152.138 245.348 153.413 241.341 159.058 238.244C162.883 236.241 165.797 233.145 169.439 230.777C172.899 228.591 175.631 224.949 179.455 223.127C180.365 222.763 181.458 222.581 182.551 222.581H185.1C186.193 222.581 187.286 222.399 188.743 222.035C189.653 221.67 190.564 221.67 191.474 221.67C195.481 221.67 199.123 222.945 203.129 222.945C208.775 222.945 214.42 221.852 220.248 221.852C223.89 221.852 227.532 222.763 231.357 222.763C237.002 222.763 242.647 221.488 248.475 221.488C253.392 221.488 258.309 221.852 263.408 221.852C270.146 221.852 276.884 220.395 283.805 220.395C285.99 220.395 288.175 220.577 290.361 220.577C291.635 220.577 295.824 220.577 295.824 218.938Z" transform="translate(-58 184.853) rotate(-12.6323)" fill="url(#paint6_radial)" fill-opacity="0.2"/>
<path d="M271.229 244.255C271.229 247.715 266.494 251.176 263.398 252.087C260.12 252.997 258.117 255.001 255.75 257.186C251.743 260.647 247.555 263.015 242.638 265.018C237.721 267.204 232.621 269.025 227.704 271.393C225.883 272.304 224.062 272.668 222.059 272.668C220.784 272.668 217.506 271.575 217.506 269.936C217.506 269.389 218.052 268.843 218.417 268.479C220.42 266.293 220.966 263.379 223.334 261.558C226.976 258.826 230.618 255.365 234.807 253.544C239.724 251.54 243.184 247.169 248.101 245.348C251.925 243.891 256.66 239.519 260.484 239.519C262.852 239.519 265.037 240.066 267.405 240.066C269.59 240.066 271.229 242.069 271.229 244.255ZM318.032 262.286C318.032 261.558 317.121 261.193 316.393 261.193C313.843 261.193 307.833 264.29 305.284 265.565C300.549 267.75 295.632 269.389 290.715 271.393C286.344 273.214 282.338 275.582 277.785 276.493C272.139 277.585 269.59 279.225 263.216 279.225C260.484 279.225 257.753 277.039 257.753 274.125C257.753 272.668 258.845 271.575 259.392 270.3C260.302 267.932 260.667 267.932 263.034 266.657C266.676 264.472 269.226 260.647 272.322 257.915C273.779 256.64 274.325 255.183 274.325 253.362C274.325 251.176 273.779 251.722 272.868 250.447C272.868 248.808 276.328 246.805 276.328 241.887C276.328 235.512 273.05 234.784 267.587 234.784C262.488 234.784 257.571 234.966 252.472 235.695C247.919 236.241 243.73 238.791 239.36 240.066C231.893 242.069 224.973 247.533 218.235 251.176C213.135 253.908 208.765 257.551 204.03 260.647C201.116 262.65 199.113 265.2 196.563 267.386C194.742 269.025 192.557 270.847 192.557 273.396C192.557 274.853 193.285 276.493 193.832 277.768C195.653 281.046 198.02 280.682 200.752 282.321C203.119 283.414 203.666 284.689 206.579 284.689C210.404 284.689 216.596 283.232 220.238 281.957C224.973 280.318 230.072 280.682 234.443 277.95C237.538 276.128 240.816 276.493 243.912 275.036C244.277 274.853 244.641 274.671 245.005 274.671C245.551 274.671 246.28 275.4 246.28 276.128C246.28 276.675 246.098 277.403 246.098 277.95C246.098 279.407 247.372 280.5 248.465 281.41C251.197 283.596 253.2 285.964 257.024 285.964C263.762 285.964 269.954 282.503 276.51 280.864C281.791 279.589 286.891 277.039 291.99 275.218C295.814 273.761 299.092 271.575 303.098 270.3C305.648 269.389 308.015 268.115 310.565 267.022C312.022 266.293 318.032 263.925 318.032 262.286Z" transform="translate(-58 184.853) rotate(-12.6323)" fill="url(#paint7_radial)" fill-opacity="0.2"/>
<path d="M460.388 262.104C460.388 261.558 459.66 261.558 459.296 261.558C456.746 261.558 443.088 268.297 439.264 269.754C436.168 270.847 433.618 272.85 430.34 273.579C426.516 274.489 423.238 276.675 419.595 277.403C415.043 278.314 411.036 280.318 406.301 280.318C404.662 280.318 402.295 280.318 402.295 278.314C402.295 276.857 403.57 275.4 404.116 274.125C405.391 271.757 408.122 270.118 409.944 268.297C413.039 265.383 413.039 263.015 417.046 260.647C419.231 259.19 424.877 253.362 424.877 250.812C424.877 247.351 415.953 244.619 413.404 244.619C409.215 244.619 405.209 248.08 401.384 249.173C397.196 250.265 393.918 253.908 389.911 254.819C386.451 255.547 382.263 258.279 379.349 260.101C372.611 264.29 364.416 264.472 357.86 268.479C354.946 270.3 351.85 271.393 348.572 272.304C346.751 272.85 342.745 275.218 341.288 275.218C340.741 275.218 340.195 274.853 340.195 274.307C340.195 272.668 342.745 271.029 343.837 270.118C346.569 268.115 347.662 265.565 349.483 262.833C352.579 258.097 362.777 253.362 362.777 247.533C362.777 240.248 355.128 241.341 350.029 240.43C349.847 240.248 349.483 240.248 349.301 240.248C346.751 240.248 344.566 243.344 343.109 243.344C341.106 243.344 339.102 246.623 336.553 247.169C333.275 248.08 331.454 250.994 328.54 252.451C323.805 255.001 319.616 257.915 315.064 260.465C313.243 261.376 303.409 265.929 303.409 267.386C303.409 268.297 304.865 268.661 305.594 268.661C307.779 268.661 319.252 262.468 321.62 260.829C323.805 259.19 326.719 258.826 329.086 257.186C330.907 255.912 332.546 254.819 334.732 254.09C337.463 253.362 339.649 250.994 342.562 250.994C342.745 252.815 334.003 261.376 332.364 262.833C330.725 264.29 329.997 265.747 328.904 267.568C326.355 271.575 320.345 274.307 320.345 279.407C320.345 283.414 321.984 286.328 326.172 286.328C334.185 286.328 342.016 280.318 348.936 277.221C352.761 275.4 356.585 273.943 360.227 272.121C362.959 270.664 365.873 270.118 368.786 269.207C373.521 267.932 377.71 265.018 382.445 263.743C386.815 262.833 402.659 254.819 403.934 254.819C404.48 254.819 404.48 255.183 404.48 255.547C404.48 257.186 397.378 262.833 396.103 265.383L395.193 266.657C392.279 269.936 388.454 272.486 388.454 277.221C388.454 279.589 389.911 284.142 392.461 285.053C394.828 285.964 397.378 285.599 399.927 285.964C400.292 286.146 400.656 286.146 401.202 286.146C403.934 286.146 414.132 283.778 416.682 282.867C418.867 281.957 420.87 280.682 423.056 279.953C426.152 279.043 428.883 277.585 431.979 276.675C435.986 275.582 439.446 273.579 443.088 271.939C447.823 269.936 452.558 267.75 457.11 265.383C458.203 264.836 460.388 263.561 460.388 262.104Z" transform="translate(-58 184.853) rotate(-12.6323)" fill="url(#paint8_radial)" fill-opacity="0.2"/>
<path d="M516.278 253.362C516.278 255.183 506.626 259.736 504.805 260.283C501.163 261.376 500.07 264.29 496.792 265.565C491.329 267.568 474.757 273.943 469.84 273.943C468.929 273.943 467.29 273.579 467.29 272.304C467.29 271.575 467.836 271.211 468.383 270.664C470.022 268.843 468.565 268.297 471.297 266.84C474.21 265.2 476.578 262.833 479.674 261.558C483.316 260.283 485.501 257.004 488.961 255.912C494.243 254.454 499.16 250.994 504.623 250.994H505.351C507.537 250.994 510.268 250.994 512.272 251.722C512.818 251.905 516.278 252.997 516.278 253.362ZM596.589 197.446C596.589 195.079 593.675 194.897 592.036 194.897C590.579 194.897 589.122 195.079 587.848 195.079C584.388 195.443 580.381 199.268 577.285 200.907C567.451 206.007 540.681 230.595 532.668 239.702C530.847 241.705 527.751 245.894 525.019 246.441C523.38 246.623 521.741 246.623 520.102 246.623C517.553 246.623 515.003 246.076 512.454 246.076C506.262 246.076 499.888 246.805 493.514 247.533C485.137 248.444 477.488 252.451 469.84 255.365C466.197 256.822 463.284 259.372 459.641 260.829C456.546 262.286 457.82 264.836 453.45 266.111C448.533 267.75 442.887 276.857 442.887 281.775C442.887 286.692 449.625 289.06 453.814 289.06C459.641 289.06 464.012 283.596 469.658 282.867C475.303 281.957 494.789 272.486 500.616 269.389C502.255 268.479 506.08 265.747 507.719 265.747C509.176 265.747 510.086 272.304 510.633 273.761C513 279.589 516.824 278.86 521.741 281.592C524.837 283.232 529.026 284.324 532.668 284.324C533.761 284.324 542.502 282.867 543.595 282.503C547.783 280.864 552.154 279.953 556.343 278.496C559.803 277.039 562.898 274.853 566.541 273.761C570.001 272.85 573.097 271.029 576.375 269.754C579.289 268.661 581.656 266.84 584.388 265.747C585.48 265.2 588.94 264.108 588.94 262.65C588.94 261.74 587.848 261.376 587.119 261.376C585.844 261.376 584.57 261.922 583.659 262.65C581.11 264.108 578.56 264.654 576.01 265.747C573.643 266.475 571.458 267.568 569.272 268.661C563.991 271.393 558.164 272.668 552.7 274.853C546.691 277.403 539.588 278.678 533.032 278.678C529.754 278.678 525.93 278.678 525.93 274.307C525.93 271.393 527.569 267.568 529.754 265.747C532.668 263.379 534.489 260.465 537.403 258.279C540.499 256.094 541.409 252.087 543.595 250.63C548.33 247.715 551.79 243.891 555.796 240.066C559.074 237.152 565.266 233.327 567.633 229.866C570.183 226.224 572.186 223.492 576.01 221.124C578.742 219.12 589.851 208.557 591.672 205.825C592.583 204.367 593.129 202.728 594.404 201.453C595.496 200.361 596.589 199.086 596.589 197.446Z" transform="translate(-58 184.853) rotate(-12.6323)" fill="url(#paint9_radial)" fill-opacity="0.2"/>
<path d="M652.346 244.255C652.346 247.715 647.611 251.176 644.516 252.087C641.238 252.997 639.234 255.001 636.867 257.186C632.86 260.647 628.672 263.015 623.755 265.018C618.838 267.204 613.739 269.025 608.822 271.393C607.001 272.304 605.18 272.668 603.176 272.668C601.902 272.668 598.624 271.575 598.624 269.936C598.624 269.389 599.17 268.843 599.534 268.479C601.537 266.293 602.084 263.379 604.451 261.558C608.093 258.826 611.736 255.365 615.924 253.544C620.841 251.54 624.301 247.169 629.218 245.348C633.043 243.891 637.778 239.519 641.602 239.519C643.969 239.519 646.155 240.066 648.522 240.066C650.707 240.066 652.346 242.069 652.346 244.255ZM699.149 262.286C699.149 261.558 698.238 261.193 697.51 261.193C694.96 261.193 688.951 264.29 686.401 265.565C681.666 267.75 676.749 269.389 671.832 271.393C667.462 273.214 663.455 275.582 658.902 276.493C653.257 277.585 650.707 279.225 644.333 279.225C641.602 279.225 638.87 277.039 638.87 274.125C638.87 272.668 639.963 271.575 640.509 270.3C641.42 267.932 641.784 267.932 644.151 266.657C647.794 264.472 650.343 260.647 653.439 257.915C654.896 256.64 655.442 255.183 655.442 253.362C655.442 251.176 654.896 251.722 653.985 250.447C653.985 248.808 657.446 246.805 657.446 241.887C657.446 235.512 654.167 234.784 648.704 234.784C643.605 234.784 638.688 234.966 633.589 235.695C629.036 236.241 624.848 238.791 620.477 240.066C613.01 242.069 606.09 247.533 599.352 251.176C594.253 253.908 589.882 257.551 585.147 260.647C582.234 262.65 580.23 265.2 577.681 267.386C575.86 269.025 573.674 270.847 573.674 273.396C573.674 274.853 574.403 276.493 574.949 277.768C576.77 281.046 579.138 280.682 581.869 282.321C584.237 283.414 584.783 284.689 587.697 284.689C591.521 284.689 597.713 283.232 601.355 281.957C606.09 280.318 611.189 280.682 615.56 277.95C618.656 276.128 621.934 276.493 625.03 275.036C625.394 274.853 625.758 274.671 626.122 274.671C626.669 274.671 627.397 275.4 627.397 276.128C627.397 276.675 627.215 277.403 627.215 277.95C627.215 279.407 628.49 280.5 629.582 281.41C632.314 283.596 634.317 285.964 638.142 285.964C644.88 285.964 651.072 282.503 657.628 280.864C662.909 279.589 668.008 277.039 673.107 275.218C676.931 273.761 680.209 271.575 684.216 270.3C686.765 269.389 689.133 268.115 691.682 267.022C693.139 266.293 699.149 263.925 699.149 262.286Z" transform="translate(-58 184.853) rotate(-12.6323)" fill="url(#paint10_radial)" fill-opacity="0.2"/>
<path d="M789.604 262.468C789.604 261.74 788.694 261.376 788.147 261.376C786.69 261.376 779.77 264.836 777.949 265.747C775.399 266.84 773.032 267.932 770.482 268.661C764.837 270.664 759.556 273.943 754.092 276.311L750.815 277.221L747.354 278.678C741.709 281.228 730.054 284.142 724.044 284.142C722.951 284.142 719.856 284.142 719.856 282.503C719.856 281.957 720.766 281.41 721.13 281.046C723.134 279.043 725.319 277.403 726.776 275.036C727.868 273.579 729.143 272.304 730.418 271.211C735.517 266.475 742.62 260.829 742.62 253.362C742.62 248.808 739.341 245.894 735.153 244.801C734.06 244.619 729.143 242.798 728.415 242.251C727.868 241.887 727.686 240.977 727.686 240.43C727.686 236.97 733.332 236.787 733.332 231.87C733.332 229.502 731.693 226.77 728.961 226.77C725.865 226.77 722.769 228.409 719.491 228.956C716.031 229.502 714.028 231.688 714.028 235.33C714.028 237.152 714.756 238.609 714.756 240.43C714.756 243.526 711.661 248.08 709.111 249.901C706.379 251.54 704.74 254.272 702.191 255.912C699.277 257.733 696.363 259.372 693.449 261.376C691.81 262.468 683.433 265.929 683.433 267.386C683.433 268.297 684.344 268.661 685.072 268.661C687.258 268.661 696.545 264.108 698.731 262.65C700.552 261.376 702.555 260.101 704.558 259.372C708.929 257.915 715.121 253.544 719.127 250.812C720.766 249.719 722.405 248.626 724.408 248.626C726.776 248.626 732.421 250.265 732.421 253.18C732.421 254.09 732.239 254.819 732.239 255.729C732.239 256.822 731.329 257.733 730.6 258.279C729.872 259.008 729.143 259.554 728.415 260.101C726.776 261.74 725.501 263.743 723.498 265.2C720.402 267.568 717.67 268.661 715.303 271.939C712.025 276.311 704.194 278.86 704.194 285.235C704.194 290.517 710.204 293.067 714.756 293.067C716.031 293.067 717.124 293.067 718.399 292.521C720.766 291.61 723.862 291.61 726.594 291.246C734.789 290.335 741.345 285.053 749.175 282.503C752.636 281.41 755.549 279.589 758.827 277.768C762.834 275.4 767.751 274.671 771.757 272.121C775.399 269.936 779.224 268.661 783.048 267.022C784.505 266.475 789.604 264.108 789.604 262.468Z" transform="translate(-58 184.853) rotate(-12.6323)" fill="url(#paint11_radial)" fill-opacity="0.2"/>
<path d="M843.865 253.362C843.865 255.183 834.213 259.736 832.392 260.283C828.75 261.376 827.657 264.29 824.379 265.565C818.916 267.568 802.343 273.943 797.426 273.943C796.516 273.943 794.877 273.579 794.877 272.304C794.877 271.575 795.423 271.211 795.97 270.664C797.609 268.843 796.152 268.297 798.883 266.84C801.797 265.2 804.164 262.833 807.26 261.558C810.903 260.283 813.088 257.004 816.548 255.912C821.829 254.454 826.746 250.994 832.21 250.994H832.938C835.123 250.994 837.855 250.994 839.858 251.722C840.405 251.905 843.865 252.997 843.865 253.362ZM924.176 197.446C924.176 195.079 921.262 194.897 919.623 194.897C918.166 194.897 916.709 195.079 915.434 195.079C911.974 195.443 907.968 199.268 904.872 200.907C895.038 206.007 868.268 230.595 860.255 239.702C858.434 241.705 855.338 245.894 852.606 246.441C850.967 246.623 849.328 246.623 847.689 246.623C845.139 246.623 842.59 246.076 840.04 246.076C833.849 246.076 827.475 246.805 821.101 247.533C812.724 248.444 805.075 252.451 797.426 255.365C793.784 256.822 790.87 259.372 787.228 260.829C784.132 262.286 785.407 264.836 781.036 266.111C776.119 267.75 770.474 276.857 770.474 281.775C770.474 286.692 777.212 289.06 781.401 289.06C787.228 289.06 791.599 283.596 797.244 282.867C802.89 281.957 822.376 272.486 828.203 269.389C829.842 268.479 833.667 265.747 835.306 265.747C836.762 265.747 837.673 272.304 838.219 273.761C840.587 279.589 844.411 278.86 849.328 281.592C852.424 283.232 856.613 284.324 860.255 284.324C861.347 284.324 870.089 282.867 871.181 282.503C875.37 280.864 879.741 279.953 883.929 278.496C887.389 277.039 890.485 274.853 894.127 273.761C897.588 272.85 900.683 271.029 903.961 269.754C906.875 268.661 909.243 266.84 911.974 265.747C913.067 265.2 916.527 264.108 916.527 262.65C916.527 261.74 915.434 261.376 914.706 261.376C913.431 261.376 912.156 261.922 911.246 262.65C908.696 264.108 906.147 264.654 903.597 265.747C901.23 266.475 899.044 267.568 896.859 268.661C891.578 271.393 885.75 272.668 880.287 274.853C874.277 277.403 867.175 278.678 860.619 278.678C857.341 278.678 853.517 278.678 853.517 274.307C853.517 271.393 855.156 267.568 857.341 265.747C860.255 263.379 862.076 260.465 864.99 258.279C868.086 256.094 868.996 252.087 871.181 250.63C875.916 247.715 879.376 243.891 883.383 240.066C886.661 237.152 892.853 233.327 895.22 229.866C897.77 226.224 899.773 223.492 903.597 221.124C906.329 219.12 917.438 208.557 919.259 205.825C920.169 204.367 920.716 202.728 921.99 201.453C923.083 200.361 924.176 199.086 924.176 197.446Z" transform="translate(-58 184.853) rotate(-12.6323)" fill="url(#paint12_radial)" fill-opacity="0.2"/>
<path d="M1179.07 255.729C1179.07 254.09 1174.51 248.626 1172.87 248.626C1170.69 248.626 1170.14 250.994 1170.14 253.18C1170.14 254.637 1170.32 256.276 1170.32 257.186C1170.32 260.283 1167.96 266.475 1166.14 269.025C1163.77 271.939 1160.31 273.943 1157.21 276.128C1155.21 277.768 1152.48 278.132 1150.11 279.407C1149.2 279.953 1148.47 280.135 1147.38 280.135C1144.46 280.135 1137.18 279.953 1137.18 275.764C1137.18 274.125 1137.73 271.757 1139.37 270.846C1141.37 269.754 1140.82 267.75 1143.55 266.293C1146.65 264.472 1148.47 260.283 1150.84 257.551C1152.3 255.911 1153.21 254.272 1153.21 251.905C1153.21 249.355 1151.75 247.169 1148.84 247.169C1146.47 247.169 1142.64 248.808 1139.91 249.173C1136.27 249.719 1133.17 255.001 1129.9 255.729C1127.16 256.458 1126.07 258.644 1123.7 259.19C1119.7 260.283 1116.06 263.925 1112.05 265.565C1107.86 267.204 1104.76 270.482 1100.76 272.304C1097.48 273.761 1094.02 274.671 1091.11 276.675C1089.65 277.768 1087.46 278.86 1085.64 278.86C1084.19 278.86 1080.73 281.957 1078.18 281.957C1076.36 281.957 1074.72 280.318 1074.72 278.496C1074.72 277.768 1075.81 273.943 1076.36 273.579C1078.54 271.939 1080 269.936 1082 268.115C1083.64 266.475 1083.82 263.743 1085.64 262.286C1087.65 260.829 1089.65 258.097 1089.65 255.547C1089.65 253.362 1083.82 251.176 1082 251.176C1078.72 251.176 1075.44 254.09 1073.62 254.09C1071.44 254.09 1067.61 259.008 1065.06 259.008C1061.42 259.008 1060.33 262.286 1057.23 262.286C1054.14 262.286 1039.02 271.939 1032.83 273.396C1026.82 274.671 1027 278.132 1019.17 278.132C1017.17 278.132 1012.62 277.403 1012.62 274.853C1012.62 272.85 1016.26 268.843 1017.72 267.204C1019.17 265.2 1021.54 264.108 1023 261.922C1024.27 259.554 1025.18 258.644 1027.37 257.004C1029.55 255.547 1029.73 252.451 1032.28 250.63C1034.65 248.99 1037.02 246.441 1037.02 243.344C1037.02 240.248 1035.56 238.791 1032.65 238.791C1030.65 238.791 1028.46 239.519 1026.46 239.702C1022.27 240.43 1008.61 256.64 1002.78 260.283C1000.41 261.74 994.952 269.936 992.584 272.486C990.945 274.489 989.67 276.675 989.67 279.043C989.67 280.135 990.035 282.321 991.309 282.321C994.223 282.321 996.773 290.153 1005.15 290.153C1009.88 290.153 1015.17 289.971 1018.63 286.146C1020.08 284.507 1022.45 285.417 1024.09 283.96C1025.36 283.232 1026.09 283.05 1027.19 283.05H1029.37C1031.01 282.685 1030.83 280.135 1034.47 278.86C1038.48 277.586 1042.12 275.4 1046.31 274.125C1049.04 273.396 1050.5 270.664 1053.41 269.936C1055.96 269.207 1064.15 265.018 1065.43 265.018C1066.34 265.018 1067.98 265.565 1067.98 266.657C1067.98 267.386 1063.43 272.668 1063.43 278.678C1063.43 285.417 1066.89 287.967 1073.26 287.967C1079.63 287.967 1084.37 286.874 1089.83 283.414C1091.11 282.685 1092.38 281.957 1093.84 281.41C1097.48 280.135 1100.03 277.039 1103.85 276.311C1107.5 275.4 1110.05 272.85 1113.51 271.575C1115.87 270.664 1116.78 268.115 1119.7 267.204C1121.88 266.475 1126.62 263.015 1128.26 263.015C1129.71 263.015 1130.81 261.376 1131.9 261.376C1132.45 261.376 1133.17 261.922 1133.17 262.468C1133.17 263.015 1132.63 263.197 1132.26 263.379C1131.17 263.925 1129.71 266.84 1128.99 268.115L1126.62 270.664C1125.16 272.121 1124.25 273.579 1124.25 275.582C1124.25 278.496 1126.25 281.228 1128.44 283.05C1132.26 286.328 1137.36 286.874 1142.1 287.967C1142.64 287.967 1143.01 288.149 1143.37 288.149C1146.83 288.149 1149.93 286.51 1153.21 285.964C1156.67 285.235 1160.13 282.867 1163.22 281.592C1168.5 279.407 1164.5 275.946 1170.14 272.85C1172.87 271.211 1173.6 269.207 1175.24 266.84C1177.24 264.108 1177.43 260.283 1178.52 257.186C1178.88 256.64 1179.07 256.276 1179.07 255.729ZM1077.81 186.518C1077.81 183.968 1075.08 180.872 1072.53 180.872C1071.62 180.872 1071.26 181.419 1070.35 181.419C1069.62 181.419 1068.89 181.236 1067.98 181.236C1065.79 181.236 1065.61 184.515 1065.61 186.154C1065.61 189.25 1069.8 191.254 1072.35 191.254C1074.17 191.254 1077.81 188.34 1077.81 186.518Z" transform="translate(-58 184.853) rotate(-12.6323)" fill="url(#paint13_radial)" fill-opacity="0.2"/>
<path d="M321.864 415.102C321.864 414.738 321.318 414.556 320.954 414.556C319.497 414.556 312.941 417.47 311.302 418.38C307.842 420.202 304.018 420.93 300.375 422.387C294.73 424.573 285.624 426.759 279.432 426.759C276.519 426.759 274.151 425.848 274.151 422.387C274.151 420.02 276.155 416.377 277.611 414.556C282.711 408.363 281.072 404.538 288.72 398.71C289.631 397.981 290.177 397.253 290.177 395.978C290.177 393.246 287.992 389.785 285.078 389.785C284.167 389.785 283.257 389.967 282.346 389.967C281.618 389.967 281.071 389.603 280.343 389.603C277.065 389.603 274.333 394.339 270.509 395.249C267.595 395.978 265.228 396.524 262.678 398.164C260.311 399.985 257.761 400.531 255.03 401.624C253.755 402.17 250.841 403.992 249.748 403.992C249.566 403.992 249.384 403.81 249.202 403.81C249.202 401.442 254.301 396.342 255.94 394.703C257.215 393.428 258.125 391.971 259.218 390.514C260.857 388.51 262.496 386.507 264.317 384.686C270.691 377.582 276.883 370.479 284.532 364.651C287.445 362.465 288.538 358.458 291.998 357.001C293.819 356.273 295.276 354.816 295.276 352.63C295.276 351.173 294.184 350.262 292.727 350.262C284.167 350.262 269.598 363.558 264.681 370.115C261.586 374.122 256.851 376.125 253.755 379.95C250.841 383.411 247.199 385.596 244.103 388.693C240.643 391.789 234.269 398.892 230.445 400.713C223.524 403.992 217.515 408.363 210.594 411.277C206.77 412.734 203.31 414.92 199.668 416.559C198.757 416.923 196.754 417.834 196.754 418.927C196.754 419.655 198.029 420.202 198.575 420.202C202.217 420.202 209.138 415.102 212.598 413.827C215.147 412.916 227.713 406.36 228.441 406.36C228.806 406.36 228.988 406.542 228.988 406.724C228.988 409.092 224.071 414.191 222.432 415.648C217.15 420.202 213.508 425.848 209.138 430.948C203.856 436.958 198.211 442.786 192.93 448.797C187.466 454.807 182.185 460.818 176.175 466.1C173.262 468.832 170.166 471.199 167.07 473.749C164.156 476.299 162.153 479.578 158.875 481.945C157.236 483.038 156.872 484.677 155.051 485.952C151.59 487.956 140.3 497.427 139.571 501.069C139.389 502.162 139.207 503.437 139.207 504.712C139.207 505.805 139.207 506.533 140.117 507.444C142.121 509.994 149.951 516.915 153.047 516.915C154.322 516.915 155.415 516.004 156.143 515.094C158.511 512.726 159.239 509.812 160.878 506.898C162.881 503.073 164.885 499.066 167.616 495.788C171.441 490.87 176.358 486.863 180.182 481.945C182.914 478.303 185.645 474.842 188.195 471.199C190.198 468.285 193.112 466.1 195.661 463.55C199.85 459.543 203.674 455.354 207.134 450.618C209.138 448.068 211.141 445.518 213.508 443.333C215.876 440.965 218.607 439.508 220.246 436.412C222.067 433.315 224.799 431.676 226.984 429.126C228.806 426.941 231.537 425.302 233.358 423.116C235.362 420.566 237.911 418.563 240.096 416.013C243.374 412.188 260.493 401.806 265.228 401.806C265.956 401.806 266.138 402.717 266.138 403.263C266.138 405.631 264.317 409.274 262.86 411.277C261.95 412.734 261.404 414.556 260.129 416.013C258.672 417.652 257.033 422.023 257.033 424.209C257.033 429.673 262.314 434.226 267.595 434.226C273.059 434.226 278.522 432.769 283.985 432.04C288.72 431.312 297.097 428.944 301.468 426.576C304.746 424.755 321.864 418.563 321.864 415.102Z" transform="translate(-58 184.853) rotate(-12.6323)" fill="url(#paint14_radial)" fill-opacity="0.2"/>
<path d="M349.875 401.442C348.601 402.171 347.144 402.353 346.233 403.263C344.412 405.449 342.227 406.177 339.677 407.27C337.856 407.999 329.479 412.006 328.568 412.006C328.568 410.549 330.389 410.002 330.936 409.092C332.211 407.088 334.214 406.906 336.035 405.267C338.038 403.263 340.588 403.628 342.773 402.17C344.23 401.442 346.051 399.985 347.69 399.985C348.236 399.985 349.875 400.713 349.875 401.442ZM395.949 414.92C395.949 414.373 395.403 414.009 394.857 414.009C393.036 414.009 375.007 422.205 371.911 423.662C368.086 425.484 363.898 426.576 359.891 428.398C356.613 430.037 353.335 431.13 349.511 431.858C343.684 432.769 340.041 434.226 333.667 434.226C328.568 434.226 323.105 431.494 323.105 425.848C323.105 419.291 324.562 417.834 330.207 414.92C332.757 413.463 335.489 412.37 338.402 411.277C341.498 410.184 344.048 407.817 347.326 406.906C350.968 405.995 351.514 405.449 354.61 403.263C355.703 402.353 358.435 401.624 359.163 400.896C361.348 398.528 363.169 396.524 363.169 393.064C363.169 390.15 360.438 389.239 358.07 389.239C356.613 389.239 355.157 389.603 353.7 389.603C352.971 389.603 352.425 389.421 351.879 389.421C348.418 389.421 342.773 391.06 339.313 392.153C328.568 395.432 326.201 396.706 317.642 404.174C314.546 406.906 311.996 410.184 308.9 412.734C305.44 415.466 307.079 416.741 304.894 419.655C303.437 421.477 301.434 423.48 301.434 426.03C301.434 429.491 307.808 434.044 310.357 435.865C312.725 437.505 314.91 437.14 317.642 437.687C321.466 438.597 325.108 440.783 329.115 440.783C331.118 440.783 332.939 439.872 334.942 439.872H336.399C341.134 439.872 344.594 437.322 348.783 436.412C351.514 435.683 353.882 434.226 356.431 433.498C363.169 431.312 370.636 429.126 376.464 425.484C382.291 422.023 389.576 420.748 394.675 416.559C395.221 416.195 395.949 415.648 395.949 414.92Z" transform="translate(-58 184.853) rotate(-12.6323)" fill="url(#paint15_radial)" fill-opacity="0.2"/>
<path d="M487.271 415.102C487.271 414.373 486.361 414.009 485.814 414.009C484.357 414.009 477.437 417.47 475.616 418.38C473.066 419.473 470.699 420.566 468.149 421.295C462.504 423.298 457.223 426.576 451.759 428.944L448.481 429.855L445.021 431.312C439.376 433.862 427.721 436.776 421.711 436.776C420.618 436.776 417.523 436.776 417.523 435.137C417.523 434.59 418.433 434.044 418.797 433.68C420.801 431.676 422.986 430.037 424.443 427.669C425.535 426.212 426.81 424.937 428.085 423.844C433.184 419.109 440.286 413.463 440.286 405.995C440.286 401.442 437.008 398.528 432.82 397.435C431.727 397.253 426.81 395.432 426.082 394.885C425.535 394.521 425.353 393.61 425.353 393.064C425.353 389.603 430.999 389.421 430.999 384.503C430.999 382.136 429.36 379.404 426.628 379.404C423.532 379.404 420.436 381.043 417.158 381.589C413.698 382.136 411.695 384.321 411.695 387.964C411.695 389.785 412.423 391.242 412.423 393.064C412.423 396.16 409.328 400.713 406.778 402.535C404.046 404.174 402.407 406.906 399.858 408.545C396.944 410.367 394.03 412.006 391.116 414.009C389.477 415.102 381.1 418.563 381.1 420.02C381.1 420.93 382.011 421.295 382.739 421.295C384.925 421.295 394.212 416.741 396.398 415.284C398.219 414.009 400.222 412.734 402.225 412.006C406.596 410.549 412.788 406.177 416.794 403.445C418.433 402.353 420.072 401.26 422.075 401.26C424.443 401.26 430.088 402.899 430.088 405.813C430.088 406.724 429.906 407.452 429.906 408.363C429.906 409.456 428.996 410.367 428.267 410.913C427.539 411.641 426.81 412.188 426.082 412.734C424.443 414.373 423.168 416.377 421.165 417.834C418.069 420.202 415.337 421.295 412.97 424.573C409.692 428.944 401.861 431.494 401.861 437.869C401.861 443.151 407.871 445.701 412.423 445.701C413.698 445.701 414.791 445.701 416.066 445.154C418.433 444.243 421.529 444.243 424.261 443.879C432.456 442.969 439.012 437.687 446.842 435.137C450.303 434.044 453.216 432.223 456.494 430.401C460.501 428.034 465.418 427.305 469.424 424.755C473.066 422.57 476.891 421.295 480.715 419.655C482.172 419.109 487.271 416.741 487.271 415.102Z" transform="translate(-58 184.853) rotate(-12.6323)" fill="url(#paint16_radial)" fill-opacity="0.2"/>
<path d="M584.146 414.738C584.146 414.009 583.235 414.009 582.871 414.009C581.05 414.009 579.593 414.738 578.136 415.466C575.769 416.559 573.219 417.47 570.852 418.38C568.666 419.109 566.845 420.202 564.842 420.93C562.292 421.841 559.561 422.569 557.193 423.844C554.826 424.937 552.276 426.03 549.909 426.759C546.631 427.669 542.624 428.216 539.711 429.855C536.979 431.494 533.155 431.494 530.059 431.494C528.42 431.494 525.688 430.766 525.688 428.762C525.688 428.034 526.234 427.669 526.599 427.123C529.148 424.391 529.33 420.384 530.605 417.105C531.516 415.102 531.516 413.099 531.516 410.913C531.516 410.002 531.333 408.727 531.333 407.452C531.333 404.902 531.516 402.353 532.608 400.531C534.612 396.706 537.525 396.706 540.439 394.157C543.353 391.425 548.452 388.693 552.276 387.418C553.369 387.053 554.279 386.689 554.279 385.414C554.279 383.593 552.641 381.043 550.637 381.043C543.899 381.043 527.509 387.053 522.774 391.789C521.864 392.882 521.135 394.157 520.043 395.249C516.582 398.164 508.57 401.078 504.381 402.899C502.56 403.81 500.557 404.538 499.1 405.813C498.007 406.724 497.279 407.088 496.004 407.634L491.633 409.638C489.63 410.549 473.968 418.745 473.604 419.291C473.422 419.655 473.24 419.837 473.24 420.202C473.24 420.93 474.333 421.295 475.061 421.295C478.157 421.295 500.921 408.545 506.748 406.36C508.57 405.631 510.573 405.085 512.576 404.174C513.669 403.628 515.126 402.899 516.582 402.899C517.493 402.899 517.857 403.445 517.857 404.356C517.857 408.363 517.493 412.37 516.582 416.377C516.036 419.473 514.033 422.023 513.305 425.302C512.576 428.944 506.02 430.583 502.742 430.583C499.646 430.583 496.732 429.308 493.636 429.308C490.905 429.308 490.358 433.133 488.72 434.59C487.445 435.865 486.716 436.958 486.716 438.962C486.716 441.876 489.812 447.158 493.09 447.158C494.547 447.158 496.004 446.065 497.643 445.883C503.653 444.79 514.397 437.869 518.039 437.869C522.228 437.869 526.416 436.594 530.787 436.594C541.35 436.594 555.919 429.491 565.206 424.755C567.574 423.48 570.123 422.205 572.855 421.477C576.133 420.566 579.775 418.38 582.871 416.559C583.417 416.195 584.146 415.648 584.146 414.738Z" transform="translate(-58 184.853) rotate(-12.6323)" fill="url(#paint17_radial)" fill-opacity="0.2"/>
<path d="M625.014 412.006C625.014 415.284 621.19 417.652 618.64 419.109C614.816 421.295 611.538 424.027 608.442 427.123C605.892 429.673 596.423 432.769 592.963 432.769C590.595 432.769 586.042 430.219 586.042 427.669C586.042 426.759 586.589 426.212 587.135 425.666C589.32 423.662 589.684 423.48 591.141 420.748C592.962 417.288 594.784 415.648 598.062 413.463C601.522 411.095 615.544 402.17 619.004 402.17C620.279 402.17 620.643 402.717 621.008 403.81C621.736 405.995 625.014 410.549 625.014 412.006ZM635.394 398.892C635.394 399.985 634.302 403.628 633.027 403.628C631.934 403.628 631.388 401.26 631.388 400.349C631.388 398.892 632.298 397.071 634.12 397.071C635.03 397.071 635.394 398.164 635.394 398.892ZM673.456 414.92C673.456 414.191 672.363 413.827 671.817 413.827C669.267 413.827 657.066 420.384 651.602 420.384C651.238 420.384 650.692 420.384 650.145 420.202C645.957 419.109 644.682 420.202 641.586 416.559C640.494 415.284 639.583 413.827 638.672 412.734C638.308 412.37 637.944 412.006 637.944 411.459C637.944 410.549 643.954 399.074 643.954 393.61C643.954 387.418 641.768 385.961 635.941 385.961C633.209 385.961 631.024 386.325 628.656 387.6C627.017 388.51 625.014 388.693 623.375 389.603C620.461 391.242 621.19 395.614 619.004 396.889C617.365 397.799 606.257 399.074 602.979 399.985C597.515 401.624 590.959 404.356 586.589 407.817C582.946 410.913 575.48 415.284 573.112 419.109C571.109 422.57 568.195 424.209 568.195 428.762C568.195 429.491 568.195 430.219 568.377 430.948C568.742 432.405 574.205 436.23 575.662 437.687C578.576 440.419 583.311 440.601 587.135 440.601H590.777C599.518 440.601 615.18 430.583 621.554 424.573C623.557 422.57 626.107 421.295 628.11 419.291C628.656 418.745 629.203 418.016 630.113 418.016C633.209 418.016 634.484 420.566 636.851 422.023C639.037 423.298 644.5 424.937 647.049 424.937C648.688 424.937 650.51 424.573 652.149 424.391C655.244 424.027 673.456 417.47 673.456 414.92Z" transform="translate(-58 184.853) rotate(-12.6323)" fill="url(#paint18_radial)" fill-opacity="0.2"/>
<path d="M817.141 414.738C817.141 414.191 816.413 414.191 816.049 414.191C813.499 414.191 799.841 420.93 796.016 422.387C792.921 423.48 790.371 425.484 787.093 426.212C783.269 427.123 779.991 429.308 776.348 430.037C771.796 430.948 767.789 432.951 763.054 432.951C761.415 432.951 759.048 432.951 759.048 430.948C759.048 429.491 760.323 428.034 760.869 426.759C762.144 424.391 764.875 422.752 766.697 420.93C769.792 418.016 769.792 415.648 773.799 413.281C775.984 411.824 781.63 405.995 781.63 403.445C781.63 399.985 772.706 397.253 770.157 397.253C765.968 397.253 761.962 400.713 758.137 401.806C753.949 402.899 750.671 406.542 746.664 407.452C743.204 408.181 739.016 410.913 736.102 412.734C729.364 416.923 721.169 417.105 714.613 421.112C711.699 422.934 708.603 424.027 705.325 424.937C703.504 425.484 699.497 427.851 698.041 427.851C697.494 427.851 696.948 427.487 696.948 426.941C696.948 425.302 699.498 423.662 700.59 422.752C703.322 420.748 704.415 418.198 706.236 415.466C709.332 410.731 719.53 405.995 719.53 400.167C719.53 392.882 711.881 393.974 706.782 393.064C706.6 392.882 706.236 392.882 706.054 392.882C703.504 392.882 701.319 395.978 699.862 395.978C697.859 395.978 695.855 399.256 693.306 399.803C690.028 400.713 688.207 403.628 685.293 405.085C680.558 407.635 676.369 410.549 671.817 413.099C669.995 414.009 660.161 418.563 660.161 420.02C660.161 420.93 661.618 421.295 662.347 421.295C664.532 421.295 676.005 415.102 678.373 413.463C680.558 411.824 683.472 411.459 685.839 409.82C687.66 408.545 689.299 407.452 691.485 406.724C694.216 405.995 696.402 403.628 699.315 403.628C699.498 405.449 690.756 414.009 689.117 415.466C687.478 416.923 686.75 418.38 685.657 420.202C683.107 424.209 677.098 426.941 677.098 432.04C677.098 436.047 678.737 438.962 682.925 438.962C690.938 438.962 698.769 432.951 705.689 429.855C709.514 428.034 713.338 426.576 716.98 424.755C719.712 423.298 722.626 422.752 725.539 421.841C730.274 420.566 734.463 417.652 739.198 416.377C743.568 415.466 759.412 407.452 760.687 407.452C761.233 407.452 761.233 407.817 761.233 408.181C761.233 409.82 754.131 415.466 752.856 418.016L751.946 419.291C749.032 422.57 745.207 425.119 745.207 429.855C745.207 432.223 746.664 436.776 749.214 437.687C751.581 438.597 754.131 438.233 756.68 438.597C757.045 438.779 757.409 438.779 757.955 438.779C760.687 438.779 770.885 436.412 773.435 435.501C775.62 434.59 777.623 433.315 779.809 432.587C782.904 431.676 785.636 430.219 788.732 429.308C792.738 428.216 796.199 426.212 799.841 424.573C804.576 422.57 809.311 420.384 813.863 418.016C814.956 417.47 817.141 416.195 817.141 414.738Z" transform="translate(-58 184.853) rotate(-12.6323)" fill="url(#paint19_radial)" fill-opacity="0.2"/>
<path d="M881.408 396.889C881.408 400.349 876.673 403.81 873.577 404.72C870.299 405.631 868.296 407.634 865.929 409.82C861.922 413.281 857.734 415.648 852.817 417.652C847.9 419.838 842.801 421.659 837.884 424.027C836.062 424.937 834.241 425.302 832.238 425.302C830.963 425.302 827.685 424.209 827.685 422.57C827.685 422.023 828.232 421.477 828.596 421.112C830.599 418.927 831.145 416.013 833.513 414.191C837.155 411.459 840.797 407.999 844.986 406.177C849.903 404.174 853.363 399.803 858.28 397.981C862.104 396.524 866.839 392.153 870.664 392.153C873.031 392.153 875.216 392.699 877.584 392.699C879.769 392.699 881.408 394.703 881.408 396.889ZM928.211 414.92C928.211 414.191 927.3 413.827 926.572 413.827C924.022 413.827 918.012 416.923 915.463 418.198C910.728 420.384 905.811 422.023 900.894 424.027C896.523 425.848 892.517 428.216 887.964 429.126C882.319 430.219 879.769 431.858 873.395 431.858C870.664 431.858 867.932 429.673 867.932 426.759C867.932 425.302 869.025 424.209 869.571 422.934C870.481 420.566 870.846 420.566 873.213 419.291C876.855 417.105 879.405 413.281 882.501 410.549C883.958 409.274 884.504 407.817 884.504 405.995C884.504 403.81 883.958 404.356 883.047 403.081C883.047 401.442 886.507 399.438 886.507 394.521C886.507 388.146 883.229 387.418 877.766 387.418C872.667 387.418 867.75 387.6 862.651 388.328C858.098 388.875 853.909 391.425 849.539 392.699C842.072 394.703 835.152 400.167 828.414 403.81C823.315 406.542 818.944 410.184 814.209 413.281C811.295 415.284 809.292 417.834 806.742 420.02C804.921 421.659 802.736 423.48 802.736 426.03C802.736 427.487 803.464 429.126 804.011 430.401C805.832 433.68 808.199 433.315 810.931 434.955C813.298 436.047 813.845 437.322 816.759 437.322C820.583 437.322 826.775 435.865 830.417 434.59C835.152 432.951 840.251 433.315 844.622 430.583C847.718 428.762 850.995 429.126 854.091 427.669C854.456 427.487 854.82 427.305 855.184 427.305C855.73 427.305 856.459 428.034 856.459 428.762C856.459 429.308 856.277 430.037 856.277 430.583C856.277 432.041 857.552 433.133 858.644 434.044C861.376 436.23 863.379 438.597 867.203 438.597C873.941 438.597 880.133 435.137 886.689 433.498C891.971 432.223 897.07 429.673 902.169 427.851C905.993 426.394 909.271 424.209 913.278 422.934C915.827 422.023 918.195 420.748 920.744 419.655C922.201 418.927 928.211 416.559 928.211 414.92Z" transform="translate(-58 184.853) rotate(-12.6323)" fill="url(#paint20_radial)" fill-opacity="0.2"/>
<path d="M1029.23 335.509C1029.23 339.516 1020.85 344.07 1018.48 347.712C1016.3 350.991 1012.84 352.812 1010.47 355.726C1006.1 361.372 999.908 365.561 994.627 370.479C989.528 375.215 983.336 379.039 978.055 383.775C974.777 386.689 961.119 397.617 957.659 397.617C957.477 397.617 957.112 397.435 957.112 397.071C957.112 393.974 965.307 387.418 967.31 384.686C969.496 381.771 971.499 378.857 974.049 376.49C979.694 371.754 984.065 365.926 989.528 361.19C994.445 356.819 1012.66 340.427 1017.39 338.788C1020.85 337.513 1023.22 334.417 1026.68 333.324C1027.41 333.142 1027.95 332.777 1028.68 332.413C1029.23 333.142 1029.23 334.599 1029.23 335.509ZM1040.7 326.585C1040.7 321.303 1037.24 320.939 1032.69 320.939C1025.95 320.939 1014.84 326.767 1008.83 330.227C998.634 336.42 990.439 345.345 981.333 352.994C972.045 360.644 964.215 369.751 956.202 378.857C952.195 383.411 945.093 388.51 942.361 393.792C940.358 397.799 936.169 399.256 933.984 402.899C931.981 406.177 929.614 408.909 927.064 411.459C925.789 412.916 923.24 414.556 922.329 416.013C921.783 416.923 919.779 424.937 919.779 425.848C919.779 427.487 920.326 428.944 920.326 430.583C920.326 434.408 923.786 435.137 926.518 436.776C930.706 439.326 934.166 439.872 939.083 439.872C944.364 439.872 955.473 436.776 960.572 434.955C963.304 434.044 965.854 432.587 968.767 431.676C971.317 430.766 973.502 429.491 976.052 428.58C980.605 426.941 984.611 424.573 988.982 422.57C992.806 421.112 997.177 419.837 1000.45 417.288C1001.18 416.741 1002.09 416.013 1002.09 414.92C1002.09 414.373 1001.91 414.191 1001.37 414.191C998.816 414.191 985.704 420.748 981.697 422.023C978.966 422.934 976.416 424.391 973.684 425.484C963.85 429.855 956.384 430.948 946.186 433.315C944 433.862 941.633 434.226 939.265 434.226C936.716 434.226 932.709 433.68 932.709 430.219C932.709 426.759 936.898 421.477 939.265 419.291C942.179 416.559 943.818 412.916 946.55 410.184C950.738 405.813 956.384 402.353 961.665 399.438C968.221 395.614 974.595 391.607 980.605 387.053C985.886 383.228 990.985 379.222 995.72 374.668C1001.55 368.84 1007.92 363.558 1013.93 357.912C1019.58 352.63 1024.31 346.802 1029.96 341.702C1033.23 338.606 1035.06 334.234 1038.33 331.502C1039.97 330.045 1040.7 328.953 1040.7 326.585Z" transform="translate(-58 184.853) rotate(-12.6323)" fill="url(#paint21_radial)" fill-opacity="0.2"/>
<path d="M362.337 525.488C362.337 523.667 359.241 522.574 357.602 522.574C356.145 522.574 354.506 523.12 353.05 523.485C350.5 524.031 347.95 524.031 345.219 524.031H341.212C339.209 524.031 337.206 524.031 335.021 523.485C333.928 523.303 332.835 523.12 331.742 523.12C323.73 523.12 315.899 524.76 308.068 524.76C304.244 524.76 300.601 523.667 296.959 523.667C291.86 523.667 286.943 524.395 281.844 524.395C276.563 524.395 271.282 523.849 266 523.849C264.179 523.849 258.352 522.756 258.352 520.388C258.352 517.656 265.636 514.742 265.636 511.282C265.636 507.821 258.352 505.636 255.62 505.636C254.345 505.636 253.617 505.818 252.706 506.546C249.246 508.914 245.24 509.46 241.597 511.464C238.137 513.103 235.588 516.746 232.856 519.296C229.032 522.938 224.115 522.938 219.198 522.938C217.195 522.938 215.191 522.574 213.37 522.574C212.095 522.574 211.003 522.938 209.91 522.938C207.543 523.12 205.175 523.303 202.808 523.303C198.437 523.303 194.066 522.756 189.514 522.756C183.504 522.756 177.494 524.031 171.485 524.031C169.846 524.031 168.389 523.849 166.932 523.849C164.564 523.849 162.197 524.213 160.012 524.213C157.644 524.213 155.459 523.667 153.274 523.667C152.181 523.667 149.631 523.667 149.631 525.306C149.631 527.492 165.293 528.22 168.207 528.22C171.485 528.22 174.581 527.492 177.676 527.492C178.769 527.492 179.862 527.674 180.954 527.674C183.868 527.674 186.6 527.127 189.514 527.127C191.881 527.127 194.249 527.674 196.616 527.674C200.258 527.674 203.718 527.31 207.361 526.763C208.635 526.399 209.91 526.399 211.185 526.399C213.917 526.399 219.744 526.763 219.744 530.588C219.744 532.409 218.651 533.866 217.377 534.959C210.821 541.516 202.079 551.716 194.431 556.451C191.153 558.455 188.421 561.004 184.779 562.461C181.137 563.919 178.223 566.468 174.398 567.926C171.849 568.836 169.481 570.111 166.932 571.022C165.475 571.568 158.555 573.936 158.555 575.575C158.555 576.304 160.194 576.668 160.74 576.668C164.564 576.668 177.859 568.836 180.226 568.836C180.772 568.836 180.772 569.2 180.772 569.565C180.772 571.75 172.759 578.307 172.759 585.228C172.759 586.503 173.124 587.96 173.67 589.235C176.037 595.246 178.951 593.971 184.232 595.428C187.875 596.338 191.699 596.521 195.523 596.521C198.073 596.521 202.99 596.521 205.175 595.246C208.453 593.424 215.009 594.153 219.562 591.967C225.572 589.235 232.128 589.053 237.955 586.321C242.69 584.135 247.789 582.861 252.524 580.675C255.62 579.218 276.199 571.022 276.199 568.654C276.199 567.743 275.288 567.379 274.56 567.379C273.285 567.379 258.898 573.754 257.077 574.847C253.07 577.214 248.7 578.125 244.511 579.946C238.137 582.678 231.581 583.771 225.025 585.775C216.83 588.142 208.635 590.146 200.076 590.146C196.616 590.146 190.606 589.782 190.606 585.228C190.606 582.861 192.063 578.489 194.066 577.214C196.98 575.029 199.166 572.479 201.169 569.565C204.993 564.465 209.728 560.458 214.281 556.087C218.651 551.898 219.926 547.891 225.572 544.794C229.396 542.791 232.31 539.695 235.952 537.327C239.412 535.141 242.144 531.499 245.968 529.677C246.879 529.313 247.971 529.131 249.064 529.131H251.614C252.706 529.131 253.799 528.949 255.256 528.584C256.166 528.22 257.077 528.22 257.987 528.22C261.994 528.22 265.636 529.495 269.643 529.495C275.288 529.495 280.933 528.402 286.761 528.402C290.403 528.402 294.046 529.313 297.87 529.313C303.515 529.313 309.161 528.038 314.988 528.038C319.905 528.038 324.822 528.402 329.921 528.402C336.66 528.402 343.398 526.945 350.318 526.945C352.503 526.945 354.689 527.127 356.874 527.127C358.149 527.127 362.337 527.127 362.337 525.488Z" transform="translate(-58 184.853) rotate(-12.6323)" fill="url(#paint22_radial)" fill-opacity="0.2"/>
<path d="M366.516 569.018C366.516 568.29 365.605 567.926 365.059 567.926C363.602 567.926 356.682 571.386 354.861 572.297C352.311 573.39 349.944 574.482 347.394 575.211C341.749 577.214 336.467 580.493 331.004 582.861L327.726 583.771L324.266 585.228C318.621 587.778 306.965 590.692 300.956 590.692C299.863 590.692 296.767 590.692 296.767 589.053C296.767 588.507 297.678 587.96 298.042 587.596C300.045 585.593 302.231 583.953 303.687 581.586C304.78 580.128 306.055 578.854 307.33 577.761C312.429 573.025 319.531 567.379 319.531 559.912C319.531 555.358 316.253 552.444 312.065 551.351C310.972 551.169 306.055 549.348 305.326 548.801C304.78 548.437 304.598 547.526 304.598 546.98C304.598 543.52 310.243 543.337 310.243 538.42C310.243 536.052 308.604 533.32 305.873 533.32C302.777 533.32 299.681 534.959 296.403 535.506C292.943 536.052 290.94 538.238 290.94 541.88C290.94 543.702 291.668 545.159 291.668 546.98C291.668 550.076 288.572 554.63 286.023 556.451C283.291 558.09 281.652 560.822 279.102 562.461C276.189 564.283 273.275 565.922 270.361 567.926C268.722 569.018 260.345 572.479 260.345 573.936C260.345 574.847 261.256 575.211 261.984 575.211C264.169 575.211 273.457 570.657 275.642 569.2C277.463 567.925 279.467 566.651 281.47 565.922C285.841 564.465 292.032 560.094 296.039 557.362C297.678 556.269 299.317 555.176 301.32 555.176C303.687 555.176 309.333 556.815 309.333 559.729C309.333 560.64 309.151 561.369 309.151 562.279C309.151 563.372 308.24 564.283 307.512 564.829C306.783 565.558 306.055 566.104 305.326 566.651C303.687 568.29 302.413 570.293 300.409 571.75C297.314 574.118 294.582 575.211 292.214 578.489C288.936 582.86 281.106 585.41 281.106 591.785C281.106 597.067 287.115 599.617 291.668 599.617C292.943 599.617 294.036 599.617 295.31 599.07C297.678 598.16 300.774 598.16 303.505 597.795C311.7 596.885 318.256 591.603 326.087 589.053C329.547 587.96 332.461 586.139 335.739 584.318C339.745 581.95 344.662 581.221 348.669 578.671C352.311 576.486 356.135 575.211 359.96 573.572C361.417 573.025 366.516 570.658 366.516 569.018Z" transform="translate(-58 184.853) rotate(-12.6323)" fill="url(#paint23_radial)" fill-opacity="0.2"/>
<path d="M429.154 550.805C429.154 554.265 424.419 557.726 421.323 558.637C418.045 559.547 416.042 561.551 413.674 563.736C409.668 567.197 405.479 569.565 400.562 571.568C395.645 573.754 390.546 575.575 385.629 577.943C383.808 578.854 381.987 579.218 379.983 579.218C378.709 579.218 375.431 578.125 375.431 576.486C375.431 575.939 375.977 575.393 376.341 575.029C378.344 572.843 378.891 569.929 381.258 568.108C384.9 565.376 388.543 561.915 392.731 560.094C397.648 558.09 401.108 553.719 406.025 551.898C409.85 550.441 414.585 546.069 418.409 546.069C420.776 546.069 422.962 546.616 425.329 546.616C427.514 546.616 429.154 548.619 429.154 550.805ZM475.956 568.836C475.956 568.108 475.045 567.743 474.317 567.743C471.767 567.743 465.758 570.84 463.208 572.115C458.473 574.3 453.556 575.939 448.639 577.943C444.269 579.764 440.262 582.132 435.709 583.043C430.064 584.135 427.514 585.775 421.141 585.775C418.409 585.775 415.677 583.589 415.677 580.675C415.677 579.218 416.77 578.125 417.316 576.85C418.227 574.482 418.591 574.482 420.958 573.207C424.601 571.022 427.15 567.197 430.246 564.465C431.703 563.19 432.249 561.733 432.249 559.912C432.249 557.726 431.703 558.272 430.792 556.997C430.792 555.358 434.253 553.355 434.253 548.437C434.253 542.062 430.975 541.334 425.511 541.334C420.412 541.334 415.495 541.516 410.396 542.245C405.843 542.791 401.655 545.341 397.284 546.616C389.818 548.619 382.897 554.083 376.159 557.726C371.06 560.458 366.689 564.101 361.954 567.197C359.041 569.2 357.037 571.75 354.488 573.936C352.667 575.575 350.481 577.397 350.481 579.946C350.481 581.403 351.21 583.043 351.756 584.318C353.577 587.596 355.945 587.232 358.676 588.871C361.044 589.964 361.59 591.239 364.504 591.239C368.328 591.239 374.52 589.782 378.162 588.507C382.897 586.867 387.996 587.232 392.367 584.5C395.463 582.678 398.741 583.043 401.837 581.586C402.201 581.403 402.565 581.221 402.929 581.221C403.476 581.221 404.204 581.95 404.204 582.678C404.204 583.225 404.022 583.953 404.022 584.5C404.022 585.957 405.297 587.05 406.39 587.96C409.121 590.146 411.124 592.514 414.949 592.514C421.687 592.514 427.879 589.053 434.435 587.414C439.716 586.139 444.815 583.589 449.914 581.768C453.738 580.311 457.016 578.125 461.023 576.85C463.572 575.939 465.94 574.664 468.489 573.572C469.946 572.843 475.956 570.475 475.956 568.836Z" transform="translate(-58 184.853) rotate(-12.6323)" fill="url(#paint24_radial)" fill-opacity="0.2"/>
<path d="M551.296 569.2C551.296 568.472 550.203 568.108 549.657 568.108C546.925 568.108 540.005 571.75 537.091 572.843C529.807 575.939 522.522 578.671 515.238 581.95C510.139 584.318 504.311 585.046 499.03 587.05C492.474 589.417 488.286 589.599 481.365 589.599C478.452 589.599 473.352 589.235 473.352 585.228C473.352 583.953 473.899 582.678 474.445 581.403C476.448 576.668 480.273 573.025 484.825 570.475C489.378 568.108 493.931 565.74 498.12 562.826C502.854 559.365 507.225 555.176 511.778 551.351C512.142 550.987 512.688 550.623 512.688 550.076C512.688 548.255 509.046 547.526 507.589 547.526C504.676 547.526 501.762 548.619 498.848 549.166C495.752 549.53 494.295 551.351 491.381 552.808C489.925 553.537 488.103 554.083 486.464 554.63C482.64 555.722 469.528 567.926 466.614 571.386C463.518 574.847 460.605 579.4 460.605 584.135C460.605 585.593 460.969 587.232 461.515 588.507C464.793 595.792 467.525 592.331 472.442 594.699C474.627 595.792 476.995 596.521 479.544 596.521C482.64 596.521 485.372 594.699 488.468 594.699C491.199 594.699 494.113 593.242 496.845 592.878C504.129 591.603 509.957 587.05 516.877 585.228C522.34 583.771 527.257 580.675 532.539 578.489C537.638 576.486 542.555 573.754 547.836 571.75C548.746 571.386 551.296 570.475 551.296 569.2ZM534.724 501.629C534.724 499.261 531.082 496.893 529.443 495.8C524.89 493.068 526.893 494.708 523.797 491.429C522.705 490.154 521.066 487.058 519.427 487.058C518.152 487.058 515.056 489.061 513.781 489.79C512.688 490.518 511.96 491.247 511.96 492.522C511.96 495.072 514.51 498.897 516.513 500.354C518.88 502.175 523.433 501.629 526.711 502.721C528.532 503.268 529.625 503.45 531.446 503.45C532.721 503.45 534.724 503.268 534.724 501.629Z" transform="translate(-58 184.853) rotate(-12.6323)" fill="url(#paint25_radial)" fill-opacity="0.2"/>
<path d="M694.252 568.654C694.252 568.108 693.523 568.108 693.159 568.108C690.61 568.108 676.951 574.847 673.127 576.304C670.031 577.396 667.482 579.4 664.204 580.128C660.379 581.039 657.101 583.225 653.459 583.953C648.906 584.864 644.9 586.867 640.165 586.867C638.526 586.867 636.158 586.867 636.158 584.864C636.158 583.407 637.433 581.95 637.979 580.675C639.254 578.307 641.986 576.668 643.807 574.847C646.903 571.932 646.903 569.565 650.909 567.197C653.095 565.74 658.74 559.912 658.74 557.362C658.74 553.901 649.817 551.169 647.267 551.169C643.079 551.169 639.072 554.63 635.248 555.723C631.059 556.815 627.781 560.458 623.775 561.369C620.315 562.097 616.126 564.829 613.212 566.651C606.474 570.84 598.279 571.022 591.723 575.029C588.809 576.85 585.714 577.943 582.436 578.854C580.614 579.4 576.608 581.768 575.151 581.768C574.605 581.768 574.058 581.403 574.058 580.857C574.058 579.218 576.608 577.579 577.701 576.668C580.432 574.664 581.525 572.115 583.346 569.383C586.442 564.647 596.64 559.912 596.64 554.083C596.64 546.798 588.992 547.891 583.893 546.98C583.71 546.798 583.346 546.798 583.164 546.798C580.615 546.798 578.429 549.894 576.972 549.894C574.969 549.894 572.966 553.173 570.416 553.719C567.138 554.63 565.317 557.544 562.403 559.001C557.668 561.551 553.48 564.465 548.927 567.015C547.106 567.925 537.272 572.479 537.272 573.936C537.272 574.847 538.729 575.211 539.457 575.211C541.643 575.211 553.116 569.018 555.483 567.379C557.668 565.74 560.582 565.376 562.95 563.736C564.771 562.461 566.41 561.369 568.595 560.64C571.327 559.912 573.512 557.544 576.426 557.544C576.608 559.365 567.867 567.925 566.228 569.383C564.589 570.84 563.86 572.297 562.768 574.118C560.218 578.125 554.208 580.857 554.208 585.957C554.208 589.964 555.847 592.878 560.036 592.878C568.049 592.878 575.88 586.867 582.8 583.771C586.624 581.95 590.448 580.493 594.091 578.671C596.822 577.214 599.736 576.668 602.65 575.757C607.385 574.482 611.573 571.568 616.308 570.293C620.679 569.383 636.523 561.369 637.797 561.369C638.344 561.369 638.344 561.733 638.344 562.097C638.344 563.736 631.241 569.383 629.967 571.932L629.056 573.207C626.142 576.486 622.318 579.036 622.318 583.771C622.318 586.139 623.775 590.692 626.324 591.603C628.692 592.514 631.241 592.149 633.791 592.514C634.155 592.696 634.519 592.696 635.066 592.696C637.797 592.696 647.996 590.328 650.545 589.417C652.731 588.507 654.734 587.232 656.919 586.503C660.015 585.593 662.747 584.135 665.843 583.225C669.849 582.132 673.309 580.128 676.951 578.489C681.686 576.486 686.421 574.3 690.974 571.932C692.067 571.386 694.252 570.111 694.252 568.654Z" transform="translate(-58 184.853) rotate(-12.6323)" fill="url(#paint26_radial)" fill-opacity="0.2"/>
<path d="M772.177 569.2C772.177 568.472 771.084 568.108 770.538 568.108C767.806 568.108 760.886 571.75 757.972 572.843C750.688 575.939 743.403 578.671 736.119 581.95C731.02 584.318 725.192 585.046 719.911 587.05C713.355 589.417 709.167 589.599 702.246 589.599C699.333 589.599 694.233 589.235 694.233 585.228C694.233 583.953 694.78 582.678 695.326 581.403C697.329 576.668 701.154 573.025 705.706 570.475C710.259 568.108 714.812 565.74 719 562.826C723.735 559.365 728.106 555.176 732.659 551.351C733.023 550.987 733.569 550.623 733.569 550.076C733.569 548.255 729.927 547.526 728.47 547.526C725.557 547.526 722.643 548.619 719.729 549.166C716.633 549.53 715.176 551.351 712.262 552.808C710.806 553.537 708.984 554.083 707.345 554.63C703.521 555.722 690.409 567.926 687.495 571.386C684.399 574.847 681.486 579.4 681.486 584.135C681.486 585.593 681.85 587.232 682.396 588.507C685.674 595.792 688.406 592.331 693.323 594.699C695.508 595.792 697.876 596.521 700.425 596.521C703.521 596.521 706.253 594.699 709.349 594.699C712.08 594.699 714.994 593.242 717.726 592.878C725.01 591.603 730.838 587.05 737.758 585.228C743.221 583.771 748.138 580.675 753.419 578.489C758.519 576.486 763.436 573.754 768.717 571.75C769.627 571.386 772.177 570.475 772.177 569.2ZM755.605 501.629C755.605 499.261 751.963 496.893 750.324 495.8C745.771 493.068 747.774 494.708 744.678 491.429C743.586 490.154 741.947 487.058 740.307 487.058C739.033 487.058 735.937 489.061 734.662 489.79C733.569 490.518 732.841 491.247 732.841 492.522C732.841 495.072 735.391 498.897 737.394 500.354C739.761 502.175 744.314 501.629 747.592 502.721C749.413 503.268 750.506 503.45 752.327 503.45C753.602 503.45 755.605 503.268 755.605 501.629Z" transform="translate(-58 184.853) rotate(-12.6323)" fill="url(#paint27_radial)" fill-opacity="0.2"/>
<path d="M915.133 568.654C915.133 568.108 914.404 568.108 914.04 568.108C911.491 568.108 897.832 574.847 894.008 576.304C890.912 577.396 888.362 579.4 885.085 580.128C881.26 581.039 877.982 583.225 874.34 583.953C869.787 584.864 865.781 586.867 861.046 586.867C859.407 586.867 857.039 586.867 857.039 584.864C857.039 583.407 858.314 581.95 858.86 580.675C860.135 578.307 862.867 576.668 864.688 574.847C867.784 571.932 867.784 569.565 871.79 567.197C873.976 565.74 879.621 559.912 879.621 557.362C879.621 553.901 870.698 551.169 868.148 551.169C863.96 551.169 859.953 554.63 856.129 555.723C851.94 556.815 848.662 560.458 844.656 561.369C841.196 562.097 837.007 564.829 834.093 566.651C827.355 570.84 819.16 571.022 812.604 575.029C809.69 576.85 806.595 577.943 803.317 578.854C801.495 579.4 797.489 581.768 796.032 581.768C795.486 581.768 794.939 581.403 794.939 580.857C794.939 579.218 797.489 577.579 798.582 576.668C801.313 574.664 802.406 572.115 804.227 569.383C807.323 564.647 817.521 559.912 817.521 554.083C817.521 546.798 809.873 547.891 804.773 546.98C804.591 546.798 804.227 546.798 804.045 546.798C801.495 546.798 799.31 549.894 797.853 549.894C795.85 549.894 793.847 553.173 791.297 553.719C788.019 554.63 786.198 557.544 783.284 559.001C778.549 561.551 774.361 564.465 769.808 567.015C767.987 567.925 758.153 572.479 758.153 573.936C758.153 574.847 759.61 575.211 760.338 575.211C762.524 575.211 773.997 569.018 776.364 567.379C778.549 565.74 781.463 565.376 783.831 563.736C785.652 562.461 787.291 561.369 789.476 560.64C792.208 559.912 794.393 557.544 797.307 557.544C797.489 559.365 788.748 567.925 787.109 569.383C785.47 570.84 784.741 572.297 783.648 574.118C781.099 578.125 775.089 580.857 775.089 585.957C775.089 589.964 776.728 592.878 780.917 592.878C788.93 592.878 796.76 586.867 803.681 583.771C807.505 581.95 811.329 580.493 814.972 578.671C817.703 577.214 820.617 576.668 823.531 575.757C828.266 574.482 832.454 571.568 837.189 570.293C841.56 569.383 857.404 561.369 858.678 561.369C859.225 561.369 859.225 561.733 859.225 562.097C859.225 563.736 852.122 569.383 850.848 571.932L849.937 573.207C847.023 576.486 843.199 579.036 843.199 583.771C843.199 586.139 844.656 590.692 847.205 591.603C849.573 592.514 852.122 592.149 854.672 592.514C855.036 592.696 855.4 592.696 855.947 592.696C858.678 592.696 868.877 590.328 871.426 589.417C873.611 588.507 875.615 587.232 877.8 586.503C880.896 585.593 883.628 584.135 886.723 583.225C890.73 582.132 894.19 580.128 897.832 578.489C902.567 576.486 907.302 574.3 911.855 571.932C912.947 571.386 915.133 570.111 915.133 568.654Z" transform="translate(-58 184.853) rotate(-12.6323)" fill="url(#paint28_radial)" fill-opacity="0.2"/>
<path d="M914.386 652.436C914.386 653.164 913.84 654.439 913.475 655.168C912.929 656.807 906.555 662.089 904.916 664.639C902.913 667.735 899.635 669.374 897.632 672.288C895.446 676.113 893.261 678.481 889.801 681.031C886.887 683.399 885.43 687.041 882.152 689.227C880.513 690.32 877.053 695.419 875.96 695.419C875.05 695.419 874.868 693.78 874.868 693.234C874.868 690.138 876.871 687.406 879.238 685.584C881.606 683.581 883.063 680.849 885.612 679.027C888.162 677.206 889.255 673.928 891.986 672.288C895.446 669.921 897.632 665.185 900.91 663.364C903.823 661.725 912.201 651.889 914.022 651.889C914.204 651.889 914.386 652.254 914.386 652.436ZM1035.13 569.018C1035.13 568.29 1034.58 567.926 1033.85 567.926C1030.57 567.926 1022.74 572.297 1019.65 573.936C1016 575.757 1012.36 577.032 1008.9 579.036C1005.99 580.857 1003.07 582.678 999.978 583.953C996.518 585.593 993.604 587.96 990.326 589.782C985.045 592.696 979.946 595.61 975.575 599.617C972.115 602.713 967.744 604.352 964.102 606.902C961.917 608.359 954.632 614.734 952.447 614.734C952.083 614.734 951.901 614.552 951.901 614.188C951.901 612.002 954.815 608.177 956.271 606.72C957.91 604.717 958.821 601.985 960.824 600.163C963.192 597.978 964.831 595.246 967.016 592.878C972.479 586.685 975.211 578.671 981.039 572.661C983.406 570.475 984.863 567.561 987.048 565.011C988.505 563.19 992.694 558.455 992.694 556.269C992.694 555.358 991.783 554.448 990.873 554.448C986.866 554.448 976.668 561.915 971.751 563.372C967.927 564.647 964.649 566.104 961.188 568.108C957.91 570.293 947.348 573.572 943.524 573.572C941.885 573.572 941.338 571.932 941.338 570.475C941.338 569.2 941.703 568.472 942.977 567.743C947.894 564.465 953.54 562.279 958.457 558.819C962.827 555.54 967.38 552.626 972.479 550.623C975.939 549.166 979.217 547.526 982.678 545.705C985.409 544.066 990.69 544.066 994.151 544.066C999.068 544.066 1001.25 548.801 1001.25 552.626C1001.25 554.994 999.796 556.815 999.796 559.183C999.796 559.729 999.978 562.279 1000.89 562.279C1001.98 562.279 1003.44 558.272 1003.62 557.362C1004.35 555.358 1004.53 553.537 1004.53 551.533C1004.53 549.348 1004.35 547.344 1004.17 545.159C1003.62 540.605 1003.98 538.602 998.885 537.327C997.246 536.963 995.607 536.963 993.968 536.963C983.77 536.963 967.38 541.698 958.639 546.798C948.805 552.626 938.425 556.997 928.044 561.369C915.114 567.015 910.744 567.743 903.823 581.039C903.459 581.586 903.277 582.132 903.277 582.861C903.277 584.864 907.284 589.053 908.558 590.692C910.197 592.696 912.018 594.153 914.75 594.153C916.935 594.153 918.574 593.242 920.213 591.785C923.127 589.053 926.769 588.507 930.412 586.867C937.332 583.771 943.888 580.128 951.354 577.761C953.904 577.032 955.907 575.575 958.275 574.3C961.37 573.025 964.466 573.025 967.016 570.84C968.291 569.929 974.847 566.651 976.304 566.651C976.122 570.111 974.3 573.936 972.115 576.122C970.476 577.943 970.294 580.311 968.655 581.95C965.923 584.318 965.013 587.778 962.099 589.964C959.367 592.149 958.275 595.61 955.725 597.795C952.811 600.163 952.265 603.988 949.533 606.356C946.073 609.088 945.527 610.727 943.342 614.188C941.338 617.284 938.789 619.834 936.968 622.93C933.508 628.212 928.408 631.673 924.402 636.226C922.945 637.683 921.67 639.14 920.031 640.415C918.21 641.872 916.753 642.236 915.479 644.24C912.929 648.247 908.74 650.432 905.645 653.893C902.002 657.9 897.085 660.268 893.807 664.639C891.622 667.189 889.072 669.556 886.705 671.924C879.603 678.845 861.938 695.784 858.114 703.98C855.928 708.715 847.915 716.729 847.915 721.1C847.915 722.922 849.372 724.379 851.193 724.379C858.66 724.379 876.507 703.433 882.516 697.969C887.798 693.052 892.35 687.223 897.632 682.306C903.459 676.842 906.555 669.01 912.929 664.092C918.574 659.903 921.67 653.893 925.859 648.429C929.501 643.693 933.508 639.322 937.15 634.587C939.153 631.855 941.703 629.305 944.07 626.937C946.62 624.023 950.08 621.837 953.358 619.652C956.636 617.466 959.549 615.28 962.463 612.731C964.284 611.091 966.652 610.181 968.473 608.541C971.569 605.627 975.939 604.534 979.4 601.802C981.767 599.799 984.499 598.16 986.866 596.156C989.234 594.153 992.147 593.424 994.515 591.603C999.432 587.596 1005.62 585.046 1011.09 581.768C1013.64 580.311 1016.19 579.218 1018.74 578.125C1021.47 577.032 1023.83 575.211 1026.57 574.118C1028.93 573.025 1031.67 572.115 1033.85 570.658C1034.58 570.293 1035.13 569.929 1035.13 569.018Z" transform="translate(-58 184.853) rotate(-12.6323)" fill="url(#paint29_radial)" fill-opacity="0.2"/>
<defs>
<radialGradient id="paint0_radial" cx="0.5" cy="0.5" r="0.5" gradientUnits="userSpaceOnUse" gradientTransform="translate(1662.3 -54.0783) scale(2172.91 765.734) rotate(90)">
<stop stop-color="#F1B82D"/>
<stop offset="1" stop-color="#F1B82D" stop-opacity="0"/>
</radialGradient>
<radialGradient id="paint1_radial" cx="0.5" cy="0.5" r="0.5" gradientUnits="userSpaceOnUse" gradientTransform="translate(1662.3 -54.0783) scale(2172.91 765.734) rotate(90)">
<stop stop-color="#F1B82D"/>
<stop offset="1" stop-color="#F1B82D" stop-opacity="0"/>
</radialGradient>
<radialGradient id="paint2_radial" cx="0.5" cy="0.5" r="0.5" gradientUnits="userSpaceOnUse" gradientTransform="translate(1662.3 -54.0783) scale(2172.91 765.734) rotate(90)">
<stop stop-color="#F1B82D"/>
<stop offset="1" stop-color="#F1B82D" stop-opacity="0"/>
</radialGradient>
<radialGradient id="paint3_radial" cx="0.5" cy="0.5" r="0.5" gradientUnits="userSpaceOnUse" gradientTransform="translate(1662.3 -54.0783) scale(2172.91 765.734) rotate(90)">
<stop stop-color="#F1B82D"/>
<stop offset="1" stop-color="#F1B82D" stop-opacity="0"/>
</radialGradient>
<radialGradient id="paint4_radial" cx="0.5" cy="0.5" r="0.5" gradientUnits="userSpaceOnUse" gradientTransform="translate(1662.3 -54.0783) scale(2172.91 765.734) rotate(90)">
<stop stop-color="#F1B82D"/>
<stop offset="1" stop-color="#F1B82D" stop-opacity="0"/>
</radialGradient>
<radialGradient id="paint5_radial" cx="0.5" cy="0.5" r="0.5" gradientUnits="userSpaceOnUse" gradientTransform="translate(1662.3 -54.0783) scale(2172.91 765.734) rotate(90)">
<stop stop-color="#F1B82D"/>
<stop offset="1" stop-color="#F1B82D" stop-opacity="0"/>
</radialGradient>
<radialGradient id="paint6_radial" cx="0.5" cy="0.5" r="0.5" gradientUnits="userSpaceOnUse" gradientTransform="translate(1662.3 -54.0783) scale(2172.91 765.734) rotate(90)">
<stop stop-color="#F1B82D"/>
<stop offset="1" stop-color="#F1B82D" stop-opacity="0"/>
</radialGradient>
<radialGradient id="paint7_radial" cx="0.5" cy="0.5" r="0.5" gradientUnits="userSpaceOnUse" gradientTransform="translate(1662.3 -54.0783) scale(2172.91 765.734) rotate(90)">
<stop stop-color="#F1B82D"/>
<stop offset="1" stop-color="#F1B82D" stop-opacity="0"/>
</radialGradient>
<radialGradient id="paint8_radial" cx="0.5" cy="0.5" r="0.5" gradientUnits="userSpaceOnUse" gradientTransform="translate(1662.3 -54.0783) scale(2172.91 765.734) rotate(90)">
<stop stop-color="#F1B82D"/>
<stop offset="1" stop-color="#F1B82D" stop-opacity="0"/>
</radialGradient>
<radialGradient id="paint9_radial" cx="0.5" cy="0.5" r="0.5" gradientUnits="userSpaceOnUse" gradientTransform="translate(1662.3 -54.0783) scale(2172.91 765.734) rotate(90)">
<stop stop-color="#F1B82D"/>
<stop offset="1" stop-color="#F1B82D" stop-opacity="0"/>
</radialGradient>
<radialGradient id="paint10_radial" cx="0.5" cy="0.5" r="0.5" gradientUnits="userSpaceOnUse" gradientTransform="translate(1662.3 -54.0783) scale(2172.91 765.734) rotate(90)">
<stop stop-color="#F1B82D"/>
<stop offset="1" stop-color="#F1B82D" stop-opacity="0"/>
</radialGradient>
<radialGradient id="paint11_radial" cx="0.5" cy="0.5" r="0.5" gradientUnits="userSpaceOnUse" gradientTransform="translate(1662.3 -54.0783) scale(2172.91 765.734) rotate(90)">
<stop stop-color="#F1B82D"/>
<stop offset="1" stop-color="#F1B82D" stop-opacity="0"/>
</radialGradient>
<radialGradient id="paint12_radial" cx="0.5" cy="0.5" r="0.5" gradientUnits="userSpaceOnUse" gradientTransform="translate(1662.3 -54.0783) scale(2172.91 765.734) rotate(90)">
<stop stop-color="#F1B82D"/>
<stop offset="1" stop-color="#F1B82D" stop-opacity="0"/>
</radialGradient>
<radialGradient id="paint13_radial" cx="0.5" cy="0.5" r="0.5" gradientUnits="userSpaceOnUse" gradientTransform="translate(1662.3 -54.0783) scale(2172.91 765.734) rotate(90)">
<stop stop-color="#F1B82D"/>
<stop offset="1" stop-color="#F1B82D" stop-opacity="0"/>
</radialGradient>
<radialGradient id="paint14_radial" cx="0.5" cy="0.5" r="0.5" gradientUnits="userSpaceOnUse" gradientTransform="translate(1662.3 -54.0783) scale(2172.91 765.734) rotate(90)">
<stop stop-color="#F1B82D"/>
<stop offset="1" stop-color="#F1B82D" stop-opacity="0"/>
</radialGradient>
<radialGradient id="paint15_radial" cx="0.5" cy="0.5" r="0.5" gradientUnits="userSpaceOnUse" gradientTransform="translate(1662.3 -54.0783) scale(2172.91 765.734) rotate(90)">
<stop stop-color="#F1B82D"/>
<stop offset="1" stop-color="#F1B82D" stop-opacity="0"/>
</radialGradient>
<radialGradient id="paint16_radial" cx="0.5" cy="0.5" r="0.5" gradientUnits="userSpaceOnUse" gradientTransform="translate(1662.3 -54.0783) scale(2172.91 765.734) rotate(90)">
<stop stop-color="#F1B82D"/>
<stop offset="1" stop-color="#F1B82D" stop-opacity="0"/>
</radialGradient>
<radialGradient id="paint17_radial" cx="0.5" cy="0.5" r="0.5" gradientUnits="userSpaceOnUse" gradientTransform="translate(1662.3 -54.0783) scale(2172.91 765.734) rotate(90)">
<stop stop-color="#F1B82D"/>
<stop offset="1" stop-color="#F1B82D" stop-opacity="0"/>
</radialGradient>
<radialGradient id="paint18_radial" cx="0.5" cy="0.5" r="0.5" gradientUnits="userSpaceOnUse" gradientTransform="translate(1662.3 -54.0783) scale(2172.91 765.734) rotate(90)">
<stop stop-color="#F1B82D"/>
<stop offset="1" stop-color="#F1B82D" stop-opacity="0"/>
</radialGradient>
<radialGradient id="paint19_radial" cx="0.5" cy="0.5" r="0.5" gradientUnits="userSpaceOnUse" gradientTransform="translate(1662.3 -54.0783) scale(2172.91 765.734) rotate(90)">
<stop stop-color="#F1B82D"/>
<stop offset="1" stop-color="#F1B82D" stop-opacity="0"/>
</radialGradient>
<radialGradient id="paint20_radial" cx="0.5" cy="0.5" r="0.5" gradientUnits="userSpaceOnUse" gradientTransform="translate(1662.3 -54.0783) scale(2172.91 765.734) rotate(90)">
<stop stop-color="#F1B82D"/>
<stop offset="1" stop-color="#F1B82D" stop-opacity="0"/>
</radialGradient>
<radialGradient id="paint21_radial" cx="0.5" cy="0.5" r="0.5" gradientUnits="userSpaceOnUse" gradientTransform="translate(1662.3 -54.0783) scale(2172.91 765.734) rotate(90)">
<stop stop-color="#F1B82D"/>
<stop offset="1" stop-color="#F1B82D" stop-opacity="0"/>
</radialGradient>
<radialGradient id="paint22_radial" cx="0.5" cy="0.5" r="0.5" gradientUnits="userSpaceOnUse" gradientTransform="translate(1662.3 -54.0783) scale(2172.91 765.734) rotate(90)">
<stop stop-color="#F1B82D"/>
<stop offset="1" stop-color="#F1B82D" stop-opacity="0"/>
</radialGradient>
<radialGradient id="paint23_radial" cx="0.5" cy="0.5" r="0.5" gradientUnits="userSpaceOnUse" gradientTransform="translate(1662.3 -54.0783) scale(2172.91 765.734) rotate(90)">
<stop stop-color="#F1B82D"/>
<stop offset="1" stop-color="#F1B82D" stop-opacity="0"/>
</radialGradient>
<radialGradient id="paint24_radial" cx="0.5" cy="0.5" r="0.5" gradientUnits="userSpaceOnUse" gradientTransform="translate(1662.3 -54.0783) scale(2172.91 765.734) rotate(90)">
<stop stop-color="#F1B82D"/>
<stop offset="1" stop-color="#F1B82D" stop-opacity="0"/>
</radialGradient>
<radialGradient id="paint25_radial" cx="0.5" cy="0.5" r="0.5" gradientUnits="userSpaceOnUse" gradientTransform="translate(1662.3 -54.0783) scale(2172.91 765.734) rotate(90)">
<stop stop-color="#F1B82D"/>
<stop offset="1" stop-color="#F1B82D" stop-opacity="0"/>
</radialGradient>
<radialGradient id="paint26_radial" cx="0.5" cy="0.5" r="0.5" gradientUnits="userSpaceOnUse" gradientTransform="translate(1662.3 -54.0783) scale(2172.91 765.734) rotate(90)">
<stop stop-color="#F1B82D"/>
<stop offset="1" stop-color="#F1B82D" stop-opacity="0"/>
</radialGradient>
<radialGradient id="paint27_radial" cx="0.5" cy="0.5" r="0.5" gradientUnits="userSpaceOnUse" gradientTransform="translate(1662.3 -54.0783) scale(2172.91 765.734) rotate(90)">
<stop stop-color="#F1B82D"/>
<stop offset="1" stop-color="#F1B82D" stop-opacity="0"/>
</radialGradient>
<radialGradient id="paint28_radial" cx="0.5" cy="0.5" r="0.5" gradientUnits="userSpaceOnUse" gradientTransform="translate(1662.3 -54.0783) scale(2172.91 765.734) rotate(90)">
<stop stop-color="#F1B82D"/>
<stop offset="1" stop-color="#F1B82D" stop-opacity="0"/>
</radialGradient>
<radialGradient id="paint29_radial" cx="0.5" cy="0.5" r="0.5" gradientUnits="userSpaceOnUse" gradientTransform="translate(1662.3 -54.0783) scale(2172.91 765.734) rotate(90)">
<stop stop-color="#F1B82D"/>
<stop offset="1" stop-color="#F1B82D" stop-opacity="0"/>
</radialGradient>
</defs>
</svg>
